<svg xmlns="http://www.w3.org/2000/svg" viewBox="0 0 30 30" class="h-5 scale-105" fill="#FF7427"><path d="m14.93,1c-5.65.04-10.75,3.46-12.89,8.7-2.14,5.24-.92,11.26,3.11,15.25,4.03,3.99,10.05,5.15,15.27,2.96,5.23-2.19,8.6-7.31,8.58-12.97-.04-7.73-6.32-13.96-14.07-13.94Zm4.91,25.53c-4.67,1.96-10.03.9-13.63-2.64-3.59-3.56-4.69-8.93-2.78-13.61,1.91-4.69,6.46-7.74,11.5-7.78,6.92-.03,12.54,5.52,12.57,12.43.02,5.06-3,9.63-7.67,11.59Z"></path><path d="m21.34,10.53c-.9-.26-1.84-.63-2.79-1.01-.02-.1-.08-.22-.17-.34-.63-1.09-2.08-1.22-3.32-.85-1.11-.26-2.21-.36-3.27-.1-4.74,1.31-5.41,3.65-5.57,6.46-.24,2.84-.39,4.99-1.49,7.43,2.25,3.61,7.62,6.39,12.49,5.2,0,0,0-.01,0-.02,0,0,0,0,0,0,0,0,0,0,0,0-.51-3.66,2.68-7.22,4.47-9.04.42-.43,1.9-1.86,2.04-2.01-.77.78-5.69,3.51-8.46.81-.05-.04-.06-.13-.02-.18.05-.06.14-.08.21-.04.57.37,1.29.57,2.21.61.85.02,1.63-.04,2.36-.19.8-.17,1.57-.41,2.3-.71.58-.24,1.31-.57,1.98-1.06.03-.03.07-.06.1-.09,0,0,.01,0,.02,0,1.25-1.86.83-3.8-3.06-4.86Zm-7.15,3.73c-.94.39-2.03.18-2.76-.55-.73-.73-.94-1.81-.55-2.76s1.32-1.56,2.33-1.56c.68,0,1.32.27,1.78.73.5.5.76,1.14.76,1.81,0,1.01-.62,1.94-1.56,2.33Zm7.25.54c-.4-.4-.13-1.1.44-1.12.36.02.66.3.66.66,0,.57-.7.87-1.1.47Zm-6.63-2.85c0,.63-.38,1.21-.98,1.45-.58.24-1.26.11-1.72-.35s-.58-1.12-.35-1.72c.24-.58.82-.98,1.45-.98.88.02,1.59.73,1.59,1.59Z"></path></svg>