<svg xmlns="http://www.w3.org/2000/svg" viewBox="0 0 30 30" class=" h-5" fill="#FF7427"><path d="m3.68,22.95c1.17,1.63,2.68,3,4.41,4,1.74,1.01,3.67,1.64,5.66,1.85-1.03-1.55-2.52-2.97-4.39-4.05-1.86-1.08-3.84-1.67-5.69-1.8Zm8.2-2.51c-3.59-2.09-7.48-2.62-10.26-1.68.27.89.62,1.75,1.06,2.57,2.42-.06,5.06.6,7.51,2.03,2.46,1.43,4.33,3.4,5.48,5.52.93-.03,1.85-.15,2.76-.35-.56-2.88-2.95-6-6.55-8.09Zm17.12-8.47c-.46-1.86-1.28-3.61-2.43-5.14-1.15-1.53-2.59-2.82-4.25-3.78-1.65-.96-3.49-1.58-5.38-1.82-1.9-.24-3.83-.09-5.67.43,3.07.38,6.49,1.53,9.83,3.47,3.35,1.94,6.04,4.34,7.89,6.82Zm-4.47,6.81c-1.57-2.61-4.27-5.12-7.59-7.05-3.32-1.93-6.83-3.03-9.88-3.1-2.68-.06-4.69.72-5.52,2.14,0,0-.01.02-.02.02-.07.27-.14.53-.2.8,1.15-.46,2.49-.71,3.98-.74,3.3-.06,7,.99,10.41,2.98,3.41,1.98,6.16,4.67,7.75,7.57.71,1.31,1.15,2.59,1.33,3.82.2-.18.4-.37.6-.57,0,0,0-.02.01-.03.83-1.42.51-3.56-.88-5.85Zm-10.12-2.7c-5.09-2.95-10.71-3.42-13.41-1.36,0,.65.05,1.29.15,1.93.8-.24,1.61-.39,2.44-.45,3.02-.23,6.35.61,9.37,2.37,3.02,1.76,5.4,4.23,6.7,6.97.36.75.63,1.54.82,2.35.6-.24,1.19-.51,1.75-.83.45-3.37-2.73-8.02-7.82-10.98Zm12.73-1.68c-1.59-2.61-4.31-5.12-7.66-7.06-3.34-1.94-6.87-3.06-9.92-3.15-2.33-.07-4.14.5-5.07,1.56,3.89-.66,9.01.45,13.98,3.33,4.97,2.89,8.47,6.79,9.82,10.49.46-1.34.06-3.19-1.15-5.18Z"></path></svg>