<?xml version="1.0" encoding="UTF-8" standalone="no"?><svg xmlns="http://www.w3.org/2000/svg" xmlns:xlink="http://www.w3.org/1999/xlink" fill="#000000" height="324" preserveAspectRatio="xMidYMid meet" version="1" viewBox="-0.8 -1.1 399.5 324.0" width="399.5" zoomAndPan="magnify"><g id="change1_1"><path d="M32.9399,209.1348c1.0479-22.0435,8.7347-50.087,10.2999-56.3913 c1.5652-6.3043,12.1304-43.3913,31.9565-70.1304s39.3938-42.8244,68.087-61.0435S210.8485-1.126,235.892,3.0342 s44.6087,19.4484,58.6956,28.0571c14.087,8.6087,30.5243,26.0021,48.7826,52.3043s23.2348,38.8738,36.2609,62.8696 s10.6956,46.9565,14.8621,63.7826c4.1664,16.8261-0.5143,42.913-1.4273,51.7826s-12.6522,13.4348-12.6522,13.4348l-35.4783,1.0801 l-24.9131,1.3367c0,0,1.0435-19.8951,1.1739-30.8516c0.1304-10.9565-4.3044-47.2174-4.3044-47.2174s-5.7391-29.6087-11.6087-59.9233 c-5.8695-30.3146-27.6522-47.9463-31.1739-50.8158c-3.5218-2.8696-31.6304-27.1304-75.1698-13.4348 s-58.3603,40.4788-71.5041,64.2506s-25.8913,70.3581-25.8913,70.3581s-6.913,43.5652-8.4783,53.8696 c-1.5652,10.3044-2.469,9.0709-16.3044,10.6957c-13.8353,1.6248-44.6087,0.6522-44.6087,0.6522 C31.7698,273.3868,31.892,231.1783,32.9399,209.1348z M32.9399,209.1348c1.0479-22.0435,8.7347-50.087,10.2999-56.3913 c1.5652-6.3043,12.1304-43.3913,31.9565-70.1304s39.3938-42.8244,68.087-61.0435S210.8485-1.126,235.892,3.0342 s44.6087,19.4484,58.6956,28.0571c14.087,8.6087,30.5243,26.0021,48.7826,52.3043s23.2348,38.8738,36.2609,62.8696 s10.6956,46.9565,14.8621,63.7826c4.1664,16.8261-0.5143,42.913-1.4273,51.7826s-12.6522,13.4348-12.6522,13.4348l-35.4783,1.0801 l-24.9131,1.3367c0,0,1.0435-19.8951,1.1739-30.8516c0.1304-10.9565-4.3044-47.2174-4.3044-47.2174s-5.7391-29.6087-11.6087-59.9233 c-5.8695-30.3146-27.6522-47.9463-31.1739-50.8158c-3.5218-2.8696-31.6304-27.1304-75.1698-13.4348 s-58.3603,40.4788-71.5041,64.2506s-25.8913,70.3581-25.8913,70.3581s-6.913,43.5652-8.4783,53.8696 c-1.5652,10.3044-2.469,9.0709-16.3044,10.6957c-13.8353,1.6248-44.6087,0.6522-44.6087,0.6522 C31.7698,273.3868,31.892,231.1783,32.9399,209.1348z" fill="#ffd200"/></g><g id="change2_1"><path d="M344.1528,276.8305l3.8076,36.1304c0,0,9.7576-2.0869,10.0185,2.7391 c0.3913,7.1739-15.7826,4.1739-15.7826,4.1739l-4.7318-42.2025l-0.0943-0.841H344.1528z M369.5876,276.3454 c-0.1304,0.0938,2.7326,29.8329,2.2794,43.1372c4.8946,0,16.5033-0.5217,15.1989-4.9565s-8.6906-3.1304-8.6906-3.1304 s0.8645-29.405-1.7442-35.0503C374.8982,274.5626,369.5876,276.3454,369.5876,276.3454z" fill="#ff7134"/></g><g id="change3_1"><path d="M396.2615,215.1348c-0.7121-7.545-1.3412-15.0814-2.3311-22.5917c-0.9484-7.1945-1.8171-14.4208-3.4765-21.4948 c-3.3117-14.1172-9.7764-27.6852-16.1849-40.6251c-6.5014-13.1277-12.1083-27.4753-20.7249-39.3281 c-4.2173-5.8013-8.6472-11.4443-12.8891-17.2275c-4.0143-5.473-7.9117-11.0322-12.0963-16.3784 c-8.6837-11.0943-21.1582-18.7952-32.5254-27.0597c-23.1223-16.8111-49.9568-30.4946-79.1668-30.4292 c-3.6558,0.0082-7.3034,0.2307-10.9368,0.6306c-11.5536,1.3273-23.058,3.3651-34.1144,7.0423 c-10.9404,3.6387-21.5946,8.2534-31.6565,13.8887c-9.9728,5.5855-18.925,12.7251-27.7085,19.9904 c-8.9387,7.3936-17.5275,15.2003-25.2216,23.8991c-7.543,8.528-14.7522,17.4809-20.8916,27.0813 c-6.2299,9.7421-10.6259,20.3892-14.8522,31.1112c-1.7023,4.3185-3.3358,8.6559-4.8693,13.0252 c-0.2169,0.0109-0.2751,1.6387-0.5064,1.7702c-13.5195,7.6855-26.0952,15.9612-36.9087,27.1251 c-3.096,3.1964-6.0476,6.5284-8.8427,9.9911c-1.2018,1.489,0.908,3.6245,2.1213,2.1213 c9.613-11.9092,21.1334-22.4067,33.704-31.1229c2.9388-2.0376,5.952-3.9634,9.0287-5.7844 c-1.786,5.3557-3.403,10.767-4.7695,16.2662c-2.9344,11.8084-6.7764,24.2044-8.4888,36.255 c-1.7339,12.2024-2.9873,24.3364-3.3227,36.6422c-0.333,12.2203,0.1843,24.9946,0.3913,37.2215 c0.0519,3.0658,0.1616,6.1296,0.3343,9.191c0.0473,0.8389,1.5957,0.725,2.4456,0.7649c5.3352,0.2504,10.6755,0.3979,16.0163,0.4349 c-1.477,3.9074-2.0047,8.1797-1.474,12.3234c0.1029,0.8034,0.6158,1.5,1.5,1.5c0.7306,0,1.6036-0.6908,1.5-1.5 c-0.534-4.1694,0.0253-8.3309,1.6252-12.217c0.0144-0.035,0.0168-0.0714,0.0272-0.1069c2.3425-0.0056,4.6844-0.0385,7.0264-0.0958 c-0.3346,4.223,0.0648,8.4573,1.3292,12.5303c0.5706,1.838,3.4675,1.0536,2.8929-0.7975c-1.1815-3.806-1.613-7.8326-1.2399-11.802 c0.0957-0.0033,0.1915-0.0032,0.2872-0.0067c2.8522-0.1014,5.7021-0.258,8.5499-0.4469c0.846,4.5355,1.3635,9.1177,1.5178,13.7301 c0.0644,1.9254,3.0647,1.9341,3,0c-0.1567-4.6838-0.6918-9.3477-1.527-13.958c1.0613-0.0828,2.1242-0.1461,3.1844-0.2427 c4.0478-0.3687,8.5494-0.4001,12.3225-2.0673c3.7089-1.6387,4.8926-4.6187,5.6165-8.3923 c0.9297-4.8467,1.7004-9.7227,2.4554-14.5991c1.4948-9.6536,3.2256-19.2587,4.8292-28.8937 c1.5845-9.5206,3.0488-19.1439,5.8534-28.3992c2.7523-9.0827,6.5385-17.8181,9.7364-26.7458 c0.9911-2.767,2.0448-5.5194,3.1493-8.2552c4.1626,14.8859,10.1733,28.1097,17.694,41.6188 c0.9393,1.6871,3.369,1.3549,2.4281-0.3353c-7.8975-14.186-13.9203-29.3326-18.0543-45.0299 c-0.0599-0.2274-0.1565-0.414-0.2773-0.5653c5.4995-12.812,12.2865-25.1412,20.4888-36.3597 c5.2-7.1123,11.2133-13.7396,17.597-19.8076c6.5696-6.2446,13.8445-11.6933,22.154-15.3983 c8.3386-3.718,17.3939-6.0084,26.3284-7.7685c9.598-1.8908,20.0621-3.3713,29.7702-1.8441 c17.2283,2.7101,32.659,11.5934,44.2893,24.5189c5.9794,6.6453,10.6318,14.4975,14.7165,22.4163 c4.2441,8.228,6.9219,17.4981,8.6308,26.6093c1.7377,9.2645,2.8477,18.5984,4.8345,27.8236 c2.065,9.5882,4.3391,19.151,5.473,28.9073c1.1436,9.8401,2.1609,19.7011,2.7715,29.5901 c0.6127,9.9232,0.5445,19.8107,0.1276,29.7403c-0.2057,4.8984-0.4507,9.795-0.6312,14.6946c-0.0291,0.788,0.7109,1.5306,1.5,1.5 c5.7938-0.2247,11.579-0.4966,17.3629-0.7565c-0.2496,0.2392-0.3987,0.592-0.3561,1.063 c1.2109,13.4095,2.4448,26.817,3.6557,40.2266c0.072,0.7972,0.6288,1.5145,1.5,1.5c2.446-0.0407,4.8913-0.1067,7.337-0.1596 c2.1492-0.0466,4.495,0.1417,6.5663-0.5444c3.5287-1.1688,5.5587-5.6951,2.0666-8.2247c-1.5181-1.0997-3.3867-1.2411-5.1952-1.079 c-0.5508,0.0494-1.0991,0.125-1.6509,0.1635c-0.2767,0.0193-1.449,0.2007-1.6996-0.024c-0.1683-0.1508-0.1348-1.1677-0.1517-1.3384 c-0.0654-0.66-0.1309-1.32-0.1965-1.9799c-0.4924-4.9498-0.9915-9.8989-1.4902-14.848c-0.5083-5.044-1.0142-10.0883-1.5145-15.1329 c6.472-0.2592,12.9472-0.4681,19.4363-0.5361c1.0961-0.0115,2.2263,0.004,3.3727,0.0198 c1.5617,14.0142,2.2991,28.117,1.8958,42.2173c-0.0308,1.0773,0.9785,1.5753,1.8987,1.4464 c2.6813-0.3755,5.3563-0.7928,8.0354-1.1835c1.9304-0.2814,3.9731-0.4287,5.7171-1.3899c1.6402-0.904,2.7275-2.669,2.2437-4.5718 c-0.5269-2.0722-2.5282-3.404-4.5182-3.8364c-1.1802-0.2565-2.4054-0.3133-3.6091-0.269c-0.0997,0.0037-0.553-0.0152-0.7477,0.0381 c0.002-0.5865-0.0506-1.5405-0.0526-1.6628c-0.0433-2.7188-0.0635-5.4379-0.0914-8.1569 c-0.0565-5.5158-0.1414-11.035-0.5078-16.5405c-0.1038-1.5598-0.2297-3.1181-0.3839-4.6738 c-0.055-0.5553-0.0627-1.2174-0.1301-1.8671c2.3623-0.3978,4.6257-1.1111,6.653-2.3944c2.3519-1.4888,5.4705-2.6487,7.1464-4.867 c2.0439-2.7055,1.6868-7.4329,2.3107-10.6815c1.3723-7.1461,1.5309-13.5964,1.9284-20.8549 C397.0676,230.9418,396.9749,222.6931,396.2615,215.1348z M345.6398,304.0529c0.2231,2.2272,0.4451,4.4546,0.6656,6.6821 c0.1852,1.8712,0.6782,3.4644,2.7673,3.8077c1.9924,0.3275,4.0347-0.5204,5.9969-0.0774c1.3951,0.3149,2.3773,1.5236,1.1299,2.7292 c-1.515,1.4641-4.4749,1.0422-6.3892,1.082c-2.1552,0.0449-4.3101,0.0975-6.4653,0.1405 c-1.1666-12.8995-2.3518-25.7973-3.5167-38.697c-0.0481-0.5328-0.3204-0.9126-0.6791-1.1494 c1.3061-0.0579,2.6122-0.1155,3.9184-0.1708C343.916,286.9517,344.7835,295.5018,345.6398,304.0529z M375.6017,277.8669 c0.0057,0.0298,0.0131,0.0649,0.0153,0.0851c0.063,0.5727,0.1205,1.146,0.1751,1.7195c0.1093,1.1467,0.2035,2.2947,0.2852,3.4437 c0.1575,2.2162,0.2679,4.4355,0.3474,6.6557c0.1593,4.4459,0.1946,8.8948,0.2378,13.3429c0.0208,2.142,0.0587,4.2838,0.0816,6.4257 c0.0173,1.6167,0.0715,3.4589,2.1081,3.6915c1.8992,0.2168,3.8535-0.4454,5.6725,0.4932c1.4175,0.7314,1.6262,1.9764,0.1385,2.6578 c-1.6548,0.7579-3.7062,0.8112-5.4761,1.0723c-1.7984,0.2653-3.5966,0.5319-5.3953,0.7949 c0.2982-13.5153-0.4295-27.0294-1.9249-40.4624c1.1566-0.0032,2.3175-0.0316,3.47-0.1048 C375.42,277.7529,375.5086,277.8141,375.6017,277.8669z M393.6955,244.2525c-0.2968,3.6542-0.6903,7.302-1.2682,10.9231 c-0.5349,3.3517-0.961,7.1353-2.211,10.3074c-1.0122,2.5688-3.9666,5.1843-6.2247,6.6874c-2.7599,1.837-5.8502,2.2867-9.0934,2.3922 c-7.4759,0.2429-14.9573,0.1715-22.4346,0.3425c-2.6287,0.0601-5.2559,0.1637-7.8825,0.2806 c-0.2788-0.0543-0.5644-0.042-0.8224,0.0368c-4.3264,0.1993-8.6511,0.4431-12.9754,0.6732 c-3.1323,0.1666-6.2652,0.3188-9.399,0.4496c0.381-9.6381,0.9771-19.2729,0.9451-28.9218 c-0.0338-10.1405-0.8516-20.2802-1.8504-30.3658c-0.9685-9.7795-2.0826-19.5046-4.0488-29.1406 c-1.9327-9.4716-4.2612-18.8565-5.7166-28.4202c-1.405-9.2319-2.6409-18.4278-5.9355-27.2213 c-3.2298-8.6204-7.5999-16.7634-12.506-24.5372c-9.074-14.3774-22.7314-26.1381-38.657-32.2659 c-8.4537-3.2528-17.5463-4.9419-26.6025-4.9623c-9.5904-0.0217-19.0739,1.7372-28.3445,4.065 c-8.67,2.1769-17.3029,5.009-25.0291,9.5875c-7.6094,4.5093-14.3057,10.4837-20.4157,16.8363 c-12.6633,13.1663-22.6595,28.2872-30.59,44.7233c-4.1225,8.544-7.3315,17.3847-10.6708,26.2484 c-3.3815,8.976-7.1166,17.8558-9.3572,27.209c-2.3027,9.6125-3.6786,19.4155-5.3769,29.1445 c-1.6993,9.7348-3.2053,19.4923-4.8154,29.2417c-0.3827,2.3175-0.7836,4.6321-1.2177,6.9407 c-0.3865,2.0554,0.6632,4.4632-0.9988,5.9327c-1.3893,1.2283-4.6493,1.8942-6.4393,2.1774c-2.5562,0.4044-5.1631,0.604-7.739,0.8389 c-5.2738,0.4811-10.5622,0.7784-15.8552,0.9452c-0.0301-0.0102-0.0482-0.0319-0.0797-0.0406 c-0.2849-0.0783-0.6242-0.0483-0.9357,0.064c-4.2129,0.1184-8.428,0.1666-12.6414,0.1228 c-4.4253-0.046-8.8486-0.1868-13.2697-0.3809c-0.5668-11.4761-0.206-22.9675,0.1334-34.4458 c0.356-12.041,0.501-24.1042,1.5567-36.1109c1.0657-12.1194,3.4825-24.0065,6.1301-35.8642 c2.5369-11.362,5.5331-22.5211,9.5326-33.4645c3.9006-10.6728,8.0258-21.4615,13.2888-31.5459 c5.2648-10.088,12.1325-19.2792,19.3785-28.017c7.2849-8.7847,15.0989-16.998,23.6644-24.5468 c8.5033-7.494,17.3475-14.837,26.7821-21.1341c18.8724-12.5964,41.0906-20.7686,63.4541-24.2366 c2.916-0.4522,5.8415-0.8328,8.7729-1.1695c14.3517-1.5794,28.7691-0.0056,42.4761,4.5175 c13.177,4.3482,25.4683,11.0327,37.0437,18.6156c11.5233,7.5487,22.8763,16.0745,32.231,26.2447 c9.072,9.8629,16.4035,21.2551,24.4796,31.9175c4.2059,5.5528,8.4213,11.1077,12.251,16.9304 c3.8931,5.919,7.4978,12.0574,10.9749,18.2283c6.9593,12.3506,13.1587,25.334,18.0878,38.6321 c2.4849,6.7037,4.3692,13.4975,5.5649,20.5491c1.1965,7.0566,1.9778,14.1799,3.0009,21.2626 c1.056,7.31,2.0225,14.6464,2.3454,22.0313C394.701,229.7832,394.2802,237.0513,393.6955,244.2525z M53.9742,222.521 c-1.0475-0.6373-2.5304-0.7499-3.5676-0.0223c-0.0719,0.0505-0.1378,0.1089-0.2056,0.165c-0.0716,0.0298-0.1468,0.0518-0.2155,0.087 c-1.3068,0.6689-1.6051,2.2405-1.7335,3.5573c-0.0707,0.7251,0.0186,1.5134,0.4104,2.144c0.4001,0.6439,1.0025,1.0645,1.7115,1.3054 c1.1407,0.3875,2.5287,0.1075,3.4938-0.5848c1.1252-0.8071,1.9002-2.0262,1.9349-3.438 C55.835,224.4175,55.0846,223.1966,53.9742,222.521z M73.5788,222.7378c-0.246-0.3887-0.5979-0.6877-1.0602-0.775 c-0.2338-0.0442-0.4861-0.0812-0.7271-0.0646c-0.1061,0.0073-0.2014,0.0356-0.3026,0.0511 c-0.1483-0.0193-0.2964-0.0173-0.4448,0.0079c-0.2875-0.0152-0.5776-0.0043-0.8596,0.0438c-0.5917,0.101-1.2299,0.448-1.6145,0.912 c-0.2004,0.2418-0.356,0.506-0.4747,0.7911c-0.2356,0.322-0.4106,0.644-0.551,1.0319c-0.5373,1.4835,0.2448,3.2582,1.6445,3.9504 c0.8695,0.4299,1.793,0.4741,2.6753,0.051c0.7698-0.3691,1.2638-1.1226,1.5324-1.9059c0.0668-0.1947,0.1085-0.3986,0.1402-0.6042 c0.0378-0.0646,0.0857-0.1219,0.1182-0.1901c0.3605-0.7561,0.4592-1.5221,0.3064-2.3456 C73.8996,223.3598,73.7583,223.0215,73.5788,222.7378z M69.1672,212.3808c0.8209-2.8718-2.1043-5.3262-4.8071-5.2293 c-2.9716,0.1065-4.9257,2.7082-6.4587,4.9349c-0.4462,0.6481-0.1419,1.693,0.5381,2.0522c0.7634,0.4033,1.5761,0.1536,2.0523-0.5381 c0.2814-0.4087,0.5668-0.8144,0.8646-1.2112c0.0405-0.0522,0.1032-0.1332,0.1234-0.1581c0.0817-0.1008,0.1646-0.2006,0.2492-0.299 c0.1677-0.195,0.3416-0.385,0.5233-0.567c0.1793-0.1796,0.3674-0.3488,0.5613-0.5125c0.0175-0.0148,0.0234-0.0204,0.0358-0.0311 c0.0167-0.0105,0.0306-0.019,0.0587-0.0377c0.1038-0.0691,0.2056-0.1393,0.3123-0.204c0.106-0.0643,0.2145-0.1251,0.3248-0.1816 c0.0553-0.0283,0.4124-0.1584,0.0956-0.0525c0.1093-0.0366,0.5994-0.2747,0.6891-0.2022c-0.0618,0.0077-0.1236,0.0153-0.1854,0.0229 c0.0717-0.0076,0.1436-0.0127,0.2157-0.0152c0.1089-0.0039,0.2173,0.0053,0.326,0.0051c0.0117,0,0.0142-0.0008,0.0234-0.001 c0.0054,0.0014,0.0061,0.002,0.0121,0.0035c0.1069,0.0269,0.215,0.0464,0.3212,0.0767c0.0862,0.0246,0.1699,0.0556,0.2545,0.0847 c0.0289,0.0122,0.0643,0.0282,0.1027,0.048c0.097,0.0501,0.192,0.1043,0.2844,0.1625c0.0786,0.0495,0.3345,0.259,0.0472,0.0159 c0.0568,0.048,0.2612,0.1954,0.3734,0.3168c0.0045,0.016,0.0194,0.0485,0.0527,0.1067c0.0399,0.0699,0.079,0.1507,0.1235,0.2207 c0.0034,0.0157,0.0054,0.0272,0.0109,0.0497c0.0049,0.0198,0.0079,0.0283,0.0119,0.0426c-0.0045,0.0603-0.0043,0.1232,0.0004,0.1835 c-0.0098,0.0388-0.0182,0.0781-0.0302,0.1164c-0.2156,0.754,0.2631,1.6664,1.0476,1.8452 C68.1212,213.6106,68.9364,213.1884,69.1672,212.3808z" fill="inherit"/></g><g id="change4_1"><path d="M83.2049,217.8984c0,1.4833-2.3035,2.6228-5.2014,2.6228s-5.2807-1.1395-5.2807-2.6228 s2.3828-2.6152,5.2807-2.6152S83.2049,216.4151,83.2049,217.8984z M46.7697,214.4214c-2.8979,0-5.2758,1.1133-5.2758,2.5966 s2.3779,2.7578,5.2758,2.7578s5.2232-1.2745,5.2232-2.7578S49.6676,214.4214,46.7697,214.4214z" fill="#ff7134"/></g></svg>