<?xml version="1.0" encoding="UTF-8" standalone="no"?><svg xmlns="http://www.w3.org/2000/svg" xmlns:xlink="http://www.w3.org/1999/xlink" fill="#000000" height="261.2" preserveAspectRatio="xMidYMid meet" version="1" viewBox="-0.4 -1.7 279.8 261.2" width="279.8" zoomAndPan="magnify"><g id="change1_1"><path d="M277.3615,173.5357c-0.2347,4.1914-0.4673,7.0572-2.0869,10.9565 c-2.6846,6.4632-6.9563,12.0382-13.9992,13.1106c-2.6017,0.3962-5.3226,0.6121-7.9675,0.9165 c-2.5581,0.2944-5.2518,0.4592-7.7414,1.1546c-0.5013,0.1401-0.9478,0.5548-1.0707,1.0707 c-3.0324,12.7317-10.0046,24.8545-20.4262,32.9345c-9.5967,7.4405-21.7165,11.8808-33.6868,13.4381 c-5.9078,0.7686-11.8385,1.3622-17.7558,2.0517c-7.4676,0.8702-14.8789,2.0401-22.3016,3.2243 c-7.1632,1.1428-14.3483,2.0352-21.5578,2.8279c-7.0304,0.773-14.067,1.9113-21.1504,1.9366 c-7.2329,0.0258-14.387-0.0215-21.6079,0.5116c-7.6604,0.5655-15.268,0.9077-22.8951-0.245 c-13.5652-2.0501-27.1775-6.9812-37.3595-16.429c-4.8325-4.484-8.2103-9.3723-11.8714-14.8872 c-3.1783-4.7877-6.2161-10.3317-8.3478-15.6595c-1.2997-3.2486-1.6827-6.1278-2.5365-9.5217 c-0.8583-3.4118-1.4213-6.6673-1.507-10.1739c-0.1817-7.439-0.324-15.7007,0.6522-23.0869 c0.5074-3.8393-0.0238-7.2961,0.4995-11.1323c0.4806-3.5232,0.5448-5.4799,0.989-9.0072c0.8722-6.927,4.52-13.9821,7.642-20.1649 c2.689-5.3252,9.6274-15.1423,13.1739-19.9565c-0.435,3.2009-0.8381,9.0584-0.5217,12.2609 c0.3199,3.2379,0.4165,8.0738,2.3478,10.8261c1.8753,2.6726,2.7384,3.7965,5.8696,4.6956c3.4096,0.9791,5.6599,1.5574,9.1485,1.1387 c3.6712-0.4407,7.2168-1.4,10.5985-2.8976c4.1486-1.8372,9.5424-5.1956,12.4704-8.5455c1.4745,1.4116,4.3374,3.7512,6,4.8863 c2.8959,1.977,4.7692,2.5202,8.1487,3.4615c6.6255,1.8454,12.0958,1.7711,18.3504-1.1183c3.6655-1.6933,6.909-4.3024,9.3555-7.5133 c2.1609,1.5052,4.6076,2.6477,7.0077,3.483c2.8317,0.9857,5.7493,1.4822,8.7188,1.8293c3.3797,0.3949,6.8127,0.6001,10.203,0.2112 c6.5954-0.7565,11.2265-3.1499,14.6507-8.9258c0.5386-0.9086,1.0228-3.4809,1.4348-4.4608 c1.7519,1.1575,4.5428,2.9592,6.3214,3.8286c6.2814,3.0707,13.3777,5.4495,20.4613,4.8951 c6.586-0.5154,11.2184-3.4991,14.5963-9.3159c0.7366-1.2685,0.7189-2.9922,1.1427-4.3727 c4.7191,2.7945,11.6134,4.6854,16.9892,5.2022c3.8096,0.3662,9.3467-3.851,12.489-6.1773 c2.645-1.9582,4.0798-15.2805,3.5217-19.7107c1.3738,2.1521,5.8015,5.7536,7.0955,7.9578 c3.7142,6.3264,6.4991,12.8517,8.0342,20.0405c1.4244,6.6705,2.0234,13.5493,1.5107,20.359 c-0.0694,0.9223,1.0477,1.8344,1.9406,1.4783c7.4675-2.9784,16.2262-3.4296,23.1257,1.2096 c6.1554,4.139,9.9333,11.686,11.6411,18.8829C278.0311,164.9351,277.5858,169.529,277.3615,173.5357z M277.3615,173.5357 c-0.2347,4.1914-0.4673,7.0572-2.0869,10.9565c-2.6846,6.4632-6.9563,12.0382-13.9992,13.1106 c-2.6017,0.3962-5.3226,0.6121-7.9675,0.9165c-2.5581,0.2944-5.2518,0.4592-7.7414,1.1546 c-0.5013,0.1401-0.9478,0.5548-1.0707,1.0707c-3.0324,12.7317-10.0046,24.8545-20.4262,32.9345 c-9.5967,7.4405-21.7165,11.8808-33.6868,13.4381c-5.9078,0.7686-11.8385,1.3622-17.7558,2.0517 c-7.4676,0.8702-14.8789,2.0401-22.3016,3.2243c-7.1632,1.1428-14.3483,2.0352-21.5578,2.8279 c-7.0304,0.773-14.067,1.9113-21.1504,1.9366c-7.2329,0.0258-14.387-0.0215-21.6079,0.5116 c-7.6604,0.5655-15.268,0.9077-22.8951-0.245c-13.5652-2.0501-27.1775-6.9812-37.3595-16.429 c-4.8325-4.484-8.2103-9.3723-11.8714-14.8872c-3.1783-4.7877-6.2161-10.3317-8.3478-15.6595 c-1.2997-3.2486-1.6827-6.1278-2.5365-9.5217c-0.8583-3.4118-1.4213-6.6673-1.507-10.1739 c-0.1817-7.439-0.324-15.7007,0.6522-23.0869c0.5074-3.8393-0.0238-7.2961,0.4995-11.1323c0.4806-3.5232,0.5448-5.4799,0.989-9.0072 c0.8722-6.927,4.52-13.9821,7.642-20.1649c2.689-5.3252,9.6274-15.1423,13.1739-19.9565c-0.435,3.2009-0.8381,9.0584-0.5217,12.2609 c0.3199,3.2379,0.4165,8.0738,2.3478,10.8261c1.8753,2.6726,2.7384,3.7965,5.8696,4.6956c3.4096,0.9791,5.6599,1.5574,9.1485,1.1387 c3.6712-0.4407,7.2168-1.4,10.5985-2.8976c4.1486-1.8372,9.5424-5.1956,12.4704-8.5455c1.4745,1.4116,4.3374,3.7512,6,4.8863 c2.8959,1.977,4.7692,2.5202,8.1487,3.4615c6.6255,1.8454,12.0958,1.7711,18.3504-1.1183c3.6655-1.6933,6.909-4.3024,9.3555-7.5133 c2.1609,1.5052,4.6076,2.6477,7.0077,3.483c2.8317,0.9857,5.7493,1.4822,8.7188,1.8293c3.3797,0.3949,6.8127,0.6001,10.203,0.2112 c6.5954-0.7565,11.2265-3.1499,14.6507-8.9258c0.5386-0.9086,1.0228-3.4809,1.4348-4.4608 c1.7519,1.1575,4.5428,2.9592,6.3214,3.8286c6.2814,3.0707,13.3777,5.4495,20.4613,4.8951 c6.586-0.5154,11.2184-3.4991,14.5963-9.3159c0.7366-1.2685,0.7189-2.9922,1.1427-4.3727 c4.7191,2.7945,11.6134,4.6854,16.9892,5.2022c3.8096,0.3662,9.3467-3.851,12.489-6.1773 c2.645-1.9582,4.0798-15.2805,3.5217-19.7107c1.3738,2.1521,5.8015,5.7536,7.0955,7.9578 c3.7142,6.3264,6.4991,12.8517,8.0342,20.0405c1.4244,6.6705,2.0234,13.5493,1.5107,20.359 c-0.0694,0.9223,1.0477,1.8344,1.9406,1.4783c7.4675-2.9784,16.2262-3.4296,23.1257,1.2096 c6.1554,4.139,9.9333,11.686,11.6411,18.8829C278.0311,164.9351,277.5858,169.529,277.3615,173.5357z" fill="#ffd200"/></g><g id="change2_1"><path d="M88.7528,177.0574c0.2609,8.3489,0.8092,14.4227-3.9304,16.7072 c-4.7396,2.2845-15.113,1.945-16.5255-12.9246s5.2318-20.0763,9.1081-20.4783C82.0074,159.8845,88.4919,168.7085,88.7528,177.0574z M152.7962,157.1009c-2.1622,0.3253-9.5178,5.7664-6.1785,22.5925s19.8531,13.6756,20.2549,2.0597 C167.2745,170.1372,167.5354,154.8835,152.7962,157.1009z M99.8397,47.0333L47.2093,21.5791c0,0-2.4864-3.3261-3.3954-10.7609 c-0.909-7.4348-12.5731-11.8399-19.3003-7.8376s-18,27.5984,10.1739,25.8376c2.1522,15.4565,8.0217,63.7826,8.0217,63.7826 s26.7225,3.4603,46.208-9.7826C100.1446,75.1878,99.8397,47.0333,99.8397,47.0333z" fill="#fff1e1"/></g><g id="change3_1"><path d="M200.6658,195.1878c2.7391,4.1739-0.2609,8.6087-2.2174,11.087 c-1.9565,2.4783-25.0435,14.3478-29.087,4.4348c-4.0435-9.913,6.7131-16.287,10.4348-17.2174 C184.4919,192.3183,197.9267,191.0139,200.6658,195.1878z M52.4919,219.3835c10.2717,4.5,18.7826-2.0544,19.8919-4.4989 c1.1093-2.4446,3.4886-5.3815-9.718-13.0119s-21.5999-1.7754-22.5978,1.7883C36.9375,214.8404,42.2202,214.8835,52.4919,219.3835z" fill="#fecddc"/></g><g id="change4_1"><path d="M88.9172,82.8183c10.4951-9.7986,10.3355-34.0435,10.3355-34.0435s33.8478-11.5435,69.8478,0 s53.413,35.413,54.6522,42.311c0.6522,33.898-22.7609,24.4064-33,20.6858c-6.913,22.6925-35.3478,9.7858-42.5217,4.965 c-12.0652,23.5488-34.0352,9.3208-42.0149,7.8631c-18.0802,16.9336-32.5937,7.5229-41.8546,0.2838 c-41.9348,26.0217-43.5652-1.7609-40.347-13.1119s18.6948-19.1708,18.6948-19.1708S65.2433,97.8333,88.9172,82.8183z M88.9172,82.8183c10.4951-9.7986,10.3355-34.0435,10.3355-34.0435s33.8478-11.5435,69.8478,0s53.413,35.413,54.6522,42.311 c0.6522,33.898-22.7609,24.4064-33,20.6858c-6.913,22.6925-35.3478,9.7858-42.5217,4.965 c-12.0652,23.5488-34.0352,9.3208-42.0149,7.8631c-18.0802,16.9336-32.5937,7.5229-41.8546,0.2838 c-41.9348,26.0217-43.5652-1.7609-40.347-13.1119s18.6948-19.1708,18.6948-19.1708S65.2433,97.8333,88.9172,82.8183z" fill="#ff6b00"/></g><g id="change5_1"><path d="M278.6189,162.149c-1.3397-7.8944-5.8763-16.9891-12.0836-22.0046c-7.1367-5.7665-16.7088-4.8657-25.1866-2.0995 c0.5131-11.8029-1.9913-23.9692-7.4144-34.4337c-2.91-5.6151-4.8116-10.8216-7.9642-16.2929 c-2.9733-5.1602-7.757-10.1213-12.1069-14.2584c-4.4748-4.2559-9.5407-7.8224-14.5594-11.3963 c-5.2029-3.7051-10.9777-6.3133-16.7642-8.9596c-6.1427-2.8091-12.4365-5.1829-18.9229-7.0694 c-6.3378-1.8433-12.676-3.7185-19.2635-4.4203c-7.5527-0.8047-15.1389,0.2303-22.6377,1.101 c-7.4411,0.864-14.8892,1.7219-22.1164,3.7703c-10.1115-5.1489-20.3069-10.1399-30.4465-15.2332 c-5.2758-2.6501-10.5687-5.2661-15.8376-7.9297c-2.1749-1.0995-5.0466-2.0538-6.3806-4.2426 c-1.1937-1.9584-1.1078-4.4554-1.6097-6.6296C43.4853,4.0813,34.6646-1.6525,26.6553,0.4306 c-7.7375,2.0123-12.9935,10.6932-11.4495,18.4769c1.6358,8.2464,11.1,13.5627,19.0847,11.6876 c1.4865,12.6486,2.759,25.3192,4.1566,37.9774c0.7192,6.5131,1.3923,13.0318,2.1368,19.5421 c0.1848,1.6155-8.9183,11.0854-13.5758,15.1998c-0.2365,0.0672-0.4677,0.2131-0.6715,0.4726 c-0.1268,0.1614-0.2426,0.3277-0.3638,0.4916c-4.0941,3.8655-7.3312,8.4157-10.2869,13.2123 c-3.6336,5.8967-6.6758,12.1261-9.3304,18.5186c-2.6971,6.4949-4.1993,14.4759-5.1244,21.3523 c-1.0247,7.6164-1.1748,14.0952-1.1698,21.819c0.0046,7.1552-0.4875,14.59,1.2433,21.5994 c1.5721,6.3666,4.0677,12.4744,7.0438,18.3057c2.7335,5.3556,5.8384,10.2494,9.8794,14.7247 c4.6403,5.1392,9.7211,10.1013,15.5333,13.9037c5.7062,3.7331,12.0862,6.3328,18.6082,8.2566 c7.1351,2.1047,14.6044,3.3898,22.0513,3.485c7.6082,0.0973,15.2752,0.1232,22.8756,0.0062 c6.9548-0.1071,13.7172-0.8741,20.64-1.7098c7.4519-0.8996,14.9262-1.6078,22.3702-2.5738 c7.3405-0.9525,15.5465-0.4715,22.8674-1.5557c6.9411-1.028,13.0049-3.5227,19.9754-4.3168 c6.2214-0.7088,12.4138-1.4542,18.4233-3.2943c5.6027-1.7155,11.1339-3.9778,16.1909-6.9545 c11.1019-6.535,19.3029-16.5379,24.2312-28.3895c1.1909-2.8638,2.153-5.8076,2.9122-8.8122c2.0531-0.4701,4.2125-0.6363,6.287-0.873 c2.6658-0.3043,5.3429-0.5468,7.9994-0.928c7.189-1.0317,13.2478-6.0802,16.4266-12.4938c1.9391-3.9124,2.8594-8.187,3.2802-12.5102 C279.3174,170.7615,279.3414,166.4064,278.6189,162.149z M41.7416,71.2117c-1.5755-14.1874-2.983-28.3922-4.6755-42.5669 c-0.1038-0.8696-0.8884-1.8278-1.8987-1.4464c-6.4818,2.4471-14.8877-1.3278-16.84-8.1423 C16.3778,12.2515,21.57,4.0831,28.6076,3.0835c3.5829-0.509,7.3074,0.9152,9.947,3.3155c1.3527,1.2302,2.4696,2.7125,3.2081,4.3904 c0.8138,1.8489,0.9233,3.8578,1.3109,5.8149c0.3997,2.0178,1.1809,3.9373,2.7106,5.3629c1.8242,1.7,4.2574,2.6576,6.4558,3.7677 c4.831,2.4395,9.6813,4.8405,14.519,7.2665c10.5242,5.2776,21.101,10.462,31.5905,15.8082 c-0.0641,5.7641-0.8774,11.4824-2.4246,17.0375c-1.0598,3.8052-2.3948,7.6251-4.3558,11.0694 c-4.4436,7.8046-13.0994,11.7901-21.6761,12.9683c-7.2,0.9891-14.7484,1.5667-22.0048,0.9407 c-1.1461-0.0989-2.2831-0.2293-3.3954-0.5743c-0.0757-0.0235-0.4254-0.1647-0.4626-0.1701 c-0.0664-0.0367-0.1331-0.0717-0.1985-0.1103c0.0168,0.0157,0.0057,0.0187-0.0186,0.0121c-0.0002-0.009,0.0013-0.012,0.0007-0.022 c-0.042-0.0245-0.0843-0.0492-0.1273-0.0707c-0.0003-0.0008-0.0007-0.0016-0.001-0.0024c0.0643,0.0313,0.106,0.0544,0.1284,0.0701 c-0.0126-0.2084-0.0882-0.6152-0.0958-0.6802C43.0157,83.2605,42.4102,77.2325,41.7416,71.2117z M44.727,94.3703 c0.3577-0.2272,0.5567-0.5314,0.6432-0.8547c3.4487,0.5734,7.0009,0.5552,10.4845,0.4642 c4.1004-0.1071,8.2018-0.3985,12.2761-0.8737c3.61-0.4211,7.1675-0.9589,10.5873-2.2435 c5.3787-2.0204,10.2953-5.3354,13.7847-9.9416c2.7415-3.6188,4.416-8.0643,5.7516-12.3629 c1.9915-6.4092,3.0322-13.1243,3.0964-19.835c6.0172-1.6166,12.1786-2.4614,18.3626-3.1766 c6.5064-0.7526,13.0484-1.6938,19.6129-1.6213c6.4982,0.0718,12.7896,1.5294,19.0101,3.3007 c6.0902,1.7343,12.12,3.582,17.9791,6.0015c5.8227,2.4045,11.7281,5.0222,17.1702,8.2073 c5.1156,2.994,10.0334,6.7212,14.5905,10.5024c1.1218,0.9308,11.0934,13.1086,12.8974,18.4476 c1.2852,3.8037,1.4689,8.1611,0.7365,12.1016c-1.0313,5.5483-4.8307,11.4922-11.0042,11.847 c-3.1628,0.1818-6.5231-0.3788-9.629-0.9477c-2.9949-0.5485-5.9671-1.4001-8.5236-3.1054c-0.041-0.0273-0.0792-0.0601-0.1199-0.088 c0.4888-3.5808,0.0233-7.295-1.3251-10.6841c-1.0749-2.7015-2.6443-5.1969-4.8436-7.1234 c-0.8909-0.7803-2.1043-0.4255-2.5071,0.6619c-2.1838,5.8958,0.2321,13.0291,4.4186,17.4431 c0.3068,0.3235,0.6241,0.6304,0.9508,0.9214c-0.8707,3.6366-2.9014,6.9545-6.1307,9.1444 c-4.7031,3.1894-10.6118,3.5828-16.0562,2.5056c-5.527-1.0936-11.03-3.3901-15.7819-6.4124 c-0.3996-0.2542-0.791-0.5294-1.1814-0.8054c1.0348-3.8278,2.2372-7.7061,1.124-11.5034c-0.3866-1.3187-2.2014-2.9093-3.4399-3.619 c-1.4402-0.8253-3.1802-0.4205-4.4758,0.479c-1.0432,0.7242-2.2302,1.8669-2.5294,3.1377 c-0.3497,1.4855-0.1449,3.2228,0.2615,4.6739c0.904,3.2277,2.9937,5.8139,5.552,7.9314c-1.3372,3.5503-3.6483,6.7756-6.8878,8.7709 c-4.6352,2.855-10.426,2.8417-15.6696,2.3459c-4.7867-0.4526-9.5267-1.4258-13.7309-3.8614 c-0.5338-0.3092-1.0587-0.6493-1.5696-1.013c0.4146-0.726,0.8004-1.4687,1.1303-2.2398c1.1829-2.7651,1.7204-5.6696,1.7851-8.6701 c0.0312-1.4476-0.1423-2.9144-1.1841-4.0147c-1.0381-1.0963-2.5766-1.7496-4.0598-1.9127c-3.1445-0.3458-4.9322,2.038-5.6481,4.828 c-0.6956,2.7112-0.4245,5.554,0.7144,8.1014c0.7753,1.7343,1.9109,3.2308,3.2638,4.5251c-0.8318,1.1043-1.7623,2.1375-2.7993,3.0609 c-8.2968,7.3895-20.8412,7.2371-30.0302,1.6443c-1.9967-1.2153-4.1089-2.6265-5.7565-4.3506 c0.6926-0.9355,1.3601-1.8921,1.9749-2.8874c1.4745-2.3874,3.2243-5.1761,3.2869-8.0751c0.0667-3.0851-2.7198-4.8478-5.6262-4.3378 c-2.9094,0.5105-4.7759,3.5877-5.3294,6.2776c-0.597,2.9016-0.1461,6.0353,1.4397,8.56c0.129,0.2054,0.2743,0.398,0.4142,0.5948 c-1.3297,1.5557-2.7925,2.9832-4.3776,4.2111c-4.6129,3.5734-10.5693,5.476-16.3508,5.8471 c-5.3751,0.3452-11.9283-0.3988-14.5552-5.9089c-1.1045-2.3168-1.1462-5.0989-1.3722-7.6102 c-0.238-2.6442-0.4269-5.367-0.0197-8.0046c0.3648-2.3628,1.2466-4.588,2.6536-6.5153c2.5322-2.3389,5.2985-4.4374,8.1165-6.395 C39.0475,97.9921,41.8844,96.1754,44.727,94.3703z M186.0364,96.5485c2.4394,3.1103,3.6475,7.0898,3.5702,11.0382 C187.0795,104.5499,185.623,100.4158,186.0364,96.5485z M145.5503,111.6533c-0.6908-0.943-1.2857-1.9875-1.6404-3.1046 c-0.3091-0.9737-0.7482-2.641-0.3095-3.6302c0.291-0.6562,1.7573-1.9291,2.5461-1.607c0.9275,0.3787,1.1251,2.3554,1.2703,3.157 c0.431,2.3806,0.4837,4.7797,0.0089,7.1605c-0.0061,0.0305-0.0161,0.0605-0.0223,0.0911 C146.7336,113.0756,146.097,112.3995,145.5503,111.6533z M106.2886,121.1974c-1.7488-1.8209-2.9784-4.0668-3.0437-6.7095 c-0.0413-1.6661,0.3538-5.4225,2.7045-5.1758c0.956,0.1003,2.232,0.5999,2.5136,1.6022c0.321,1.1428,0.0516,2.7557-0.099,3.916 C108.0722,117.0793,107.3449,119.2249,106.2886,121.1974z M63.0973,116.8765c0.1398-1.9535,1.2996-5.295,3.7552-5.0964 c2.3857,0.1929,1.2446,2.9339,0.5925,4.3219c-0.9046,1.9255-2.0046,3.8141-3.2607,5.5996 C63.4012,120.2876,62.9671,118.6958,63.0973,116.8765z M276.0826,172.6365c-0.2297,4.1011-0.8552,8.2518-2.4399,12.0672 c-2.6268,6.324-8.0964,11.371-14.9876,12.4203c-2.5457,0.3876-5.208,0.5989-7.7959,0.8967 c-2.5031,0.2881-5.1387,0.4493-7.5747,1.1298c-0.4905,0.1371-0.9274,0.5428-1.0477,1.0477 c-2.9671,12.4575-9.7892,24.3193-19.9863,32.2253c-9.39,7.2803-21.2489,11.625-32.9614,13.1487 c-5.7806,0.752-11.5836,1.3329-17.3734,2.0076c-7.3068,0.8515-14.5585,1.9962-21.8214,3.1549 c-7.0089,1.1182-14.0393,1.9914-21.0936,2.767c-6.879,0.7563-13.7641,1.8702-20.695,1.8949 c-7.0771,0.0252-14.0771-0.0211-21.1426,0.5006c-7.4954,0.5533-14.9392,0.8882-22.4021-0.2397 c-13.2731-2.006-26.5923-6.8308-36.5551-16.0752c-4.7284-4.3875-9.4302-9.037-13.0124-14.4332 c-3.1099-4.6846-5.665-9.9633-7.7508-15.1764c-1.2717-3.1786-2.3544-6.4464-3.1898-9.7672 c-0.8398-3.3383-1.0787-6.7708-1.1625-10.2018c-0.1778-7.2788-0.1802-14.6043,0.775-21.8315 c0.4965-3.7567,1.2151-7.4791,1.7272-11.2327c0.4702-3.4473,0.7169-6.9193,1.1516-10.3706 c0.8535-6.7778,3.6449-12.8541,6.6996-18.9038c2.6311-5.2106,5.6215-10.3266,9.0916-15.0372 c-0.4256,3.132-0.1982,6.2827,0.1113,9.4162c0.313,3.1682,0.533,6.491,2.4227,9.1841c1.835,2.6151,4.7094,4.6183,7.7731,5.4982 c3.3362,0.958,7.1533,0.8506,10.5668,0.441c3.5922-0.4312,7.0614-1.3698,10.3703-2.8352c4.0593-1.7977,7.4808-4.5317,10.3458-7.8094 c1.4427,1.3812,4.2803,3.9023,5.907,5.013c2.8335,1.9344,4.8277,2.0779,8.1344,2.999c6.4828,1.8057,13.4941,1.337,19.614-1.4901 c3.5866-1.6569,6.7602-4.2097,9.1541-7.3515c2.1143,1.4728,4.5084,2.5906,6.8568,3.408c2.7708,0.9645,5.6255,1.4503,8.5311,1.7899 c3.3069,0.3864,6.666,0.5872,9.9833,0.2067c6.4534-0.7402,11.9183-3.8791,15.2687-9.5306c0.527-0.889,0.9894-1.8204,1.3925-2.7792 c1.7142,1.1326,3.5229,2.1069,5.2632,2.9576c6.1461,3.0046,13.0897,5.3322,20.0207,4.7897 c6.4442-0.5043,12.5005-3.6335,15.8058-9.3251c0.7208-1.2411,1.2791-2.5527,1.6938-3.9036 c4.6174,2.7344,9.2639,4.4193,14.524,4.9249c3.7276,0.3583,8.4008-1.1529,11.4755-3.4292c2.5881-1.916,4.4504-4.549,5.6668-7.5118 c1.616-3.9362,2.0388-8.6228,1.4927-12.9576c1.3442,2.1058,2.7076,4.1978,3.9738,6.3545c3.6342,6.1902,6.3592,12.575,7.8612,19.6089 c1.3937,6.5269,1.9799,13.2576,1.4781,19.9206c-0.0679,0.9025,1.0251,1.7949,1.8988,1.4465 c7.3067-2.9143,15.8768-3.3558,22.6277,1.1836c6.0228,4.0499,10.8974,11.038,12.5684,18.0799 C276.228,164.7634,276.3022,168.7161,276.0826,172.6365z M43.814,89.9577c0.0001,0.0015-0.0001,0.0017-0.0001,0.0031 c0.0059,0.0035,0.012,0.0065,0.0179,0.0099C43.8281,89.9673,43.8209,89.9625,43.814,89.9577z M248.9289,163.7699 c-8.4051,2.9572-13.7136,11.8668-12.3694,20.6569c0.1226,0.8015,1.1296,1.2443,1.8452,1.0477 c0.8564-0.2354,1.1706-1.0413,1.0476-1.8452c-1.0842-7.0903,3.5443-14.5988,10.2741-16.9666 C251.5356,166.0261,250.7568,163.1267,248.9289,163.7699z M88.7806,169.6673c-0.0078-0.025,0.0336-0.0513,0.025-0.0755 c-0.0206-0.1083-0.0767-0.2156-0.1132-0.3218c-0.9957-2.8979-2.6252-5.9033-4.9195-7.9633 c-2.3987-2.1539-5.5557-2.7385-8.6056-1.6486c-7.1247,2.5461-8.4268,10.8134-8.3879,17.3939 c0.0403,6.8176,1.5975,14.7629,8.2725,18.2298c2.6258,1.3638,5.6934,2.0988,8.5714,1.2179c2.9668-0.9081,5.3094-3.1509,6.3788-6.028 c1.2939-3.4813,0.6445-7.2601,0.3303-10.8757C90.0339,176.1636,89.8045,172.973,88.7806,169.6673z M87.6408,185.3772 c-0.1334,2.4116-0.6161,4.9728-2.4139,6.7202c-1.7178,1.6695-4.0759,1.9503-6.3603,1.4326 c-6.0338-1.3675-8.1521-7.2455-8.6673-12.7859c-0.283-3.0433-0.2038-6.1957,0.2198-9.2251 c0.3907-2.7945,1.0916-5.8122,3.3041-7.6829c2.1588-1.8251,5.2596-2.349,7.5835-0.4785c2.0773,1.6721,3.336,4.3077,4.2614,6.8046 c0.0112,0.056,0.3326,0.0016,0.3507,0.0602c0.7238,2.3365,1.0978,4.6982,1.3205,7.1374 C87.482,180.0184,87.7886,182.7044,87.6408,185.3772z M168.0937,175.381c-0.3887-3.2636-0.9031-6.316-1.9186-9.4233 c0.0499-0.2644,0.0383-0.5585-0.0714-0.8574c-2.0092-5.4759-7.2312-11.4772-13.6646-9.1164 c-7.059,2.5904-7.9766,10.8412-7.7863,17.3553c0.2018,6.9066,1.7903,14.9525,8.593,18.269c2.6613,1.2974,5.8467,1.8766,8.6879,0.873 c2.9352-1.0369,4.7919-3.6959,5.7437-6.6082C168.7971,182.447,168.5121,178.895,168.0937,175.381z M165.4953,181.226 c-0.1111,2.3813-0.6026,4.8783-2.2913,6.6712c-1.6408,1.742-3.9539,2.3317-6.2489,1.8552 c-6.0701-1.2603-8.6279-7.3412-9.2925-12.8937c-0.3589-2.9993-0.2637-6.1532,0.1033-9.1545 c0.3428-2.8033,1.3347-5.6306,3.5422-7.5192c2.1243-1.8175,4.982-2.5181,7.2958-0.7974c1.984,1.4755,3.4937,3.8138,4.4749,6.1077 c-0.0336,0.2014-0.2078,0.4943-0.1246,0.7438C164.5588,171.0519,165.7342,176.1068,165.4953,181.226z M78.8367,165.3363 c-4.6901-2.8578-8.2412,12.9284-5.4892,19.5648c2.7521,6.6365,10.0328,6.6445,11.1195,2.043 C85.5538,182.3425,84.2765,168.6508,78.8367,165.3363z M154.4386,161.3833c-5.4781,0.3935-5.9886,15.8557-1.8612,21.7362 c4.1274,5.8804,10.5334,1.2736,10.595-3.4542C163.2341,174.9376,161.2208,160.896,154.4386,161.3833z M60.8424,198.9621 c-6.557-2.1787-14.814-3.3519-20.2621,1.901c-2.1314,2.0551-3.7299,4.9432-3.7614,7.9562 c-0.0325,3.1129,1.8541,5.8052,4.2635,7.6979c2.8344,2.2266,6.2761,3.2289,9.7206,4.0408c3.199,0.754,6.2755,1.0602,9.5426,1.1718 c0.2313,0.1376,0.499,0.1655,0.8174,0.1649c5.8329-0.0095,13.1407-2.6254,13.129-9.4783 C74.2792,204.8972,67.0268,201.0171,60.8424,198.9621z M69.0764,217.002c-2.0663,1.3577-4.7567,1.9218-7.248,2.0569 c-0.1776-0.1006-0.3975-0.0717-0.6604-0.079c-5.0714-0.1431-10.2827-0.8185-15.0096-2.7983 c-2.1989-0.921-4.5171-2.2916-5.6223-4.4927c-1.0737-2.1387-0.7303-4.6812,0.5043-6.6736c3.2654-5.27,9.9118-5.3304,15.3556-4.0506 c2.9405,0.6913,5.8561,1.7864,8.5495,3.1603c2.5158,1.2833,4.8411,3.0858,5.8583,5.8071 C71.7827,212.5509,71.4861,215.4185,69.0764,217.002z M183.5901,190.883c-6.7366,1.5366-14.4047,4.7029-16.34,12.0193 c-0.7571,2.8623-0.3773,5.9893,1.158,8.5822c1.5861,2.6787,4.2933,4.3719,7.3348,4.7413c3.578,0.4344,7.0985-0.5968,10.4648-1.6884 c3.1263-1.0138,5.9634-2.2915,8.8151-3.8899c0.269-0.0023,0.5315-0.1107,0.8035-0.2762c4.9827-3.0323,9.9386-9.3204,6.3757-15.1743 C198.2927,188.7739,189.9438,189.4339,183.5901,190.883z M199.7702,201.8324c-1.063,2.2323-2.9408,4.108-5.001,5.5152 c-0.2041,0.006-0.3585,0.1688-0.5871,0.2987c-4.4108,2.507-9.2054,4.5234-14.2739,5.2811 c-2.3577,0.3525-4.9229,0.3947-7.0092-0.9145c-2.0269-1.2721-2.9627-3.4603-2.94-5.8041c0.06-6.1993,5.4839-9.8146,10.8024-11.5427 c2.8729-0.9334,5.9692-1.4214,8.9847-1.643c2.8166-0.207,5.941-0.0955,8.2217,1.7042 C200.1627,196.4591,201.0098,199.229,199.7702,201.8324z M137.1301,205.0998c-0.6537,7.8258-6.6539,16.5718-14.7941,17.9553 c-4.1526,0.7058-8.4184-1.176-11.5928-3.7433c-2.9269-2.3672-5.3442-5.6374-5.5818-9.5035c-0.1179-1.918-3.1187-1.9314-3,0 c0.4494,7.3129,6.7441,13.4381,13.4868,15.569c7.962,2.5162,15.3744-1.77,20.0079-8.1727 c2.5725-3.5547,4.1093-7.7375,4.4741-12.1048C140.2908,203.1759,137.2899,203.1865,137.1301,205.0998z M118.7678,210.382 c3.3753,0.6849,6.276-1.7915,7.3687-4.832c0.7223-2.0098,0.5178-4.2559,0.1017-6.3066c-0.2025-0.9981-0.4327-2.0239-0.7617-2.9884 c-0.2379-0.6974-0.6212-1.3234-0.8332-2.0215c-0.0063-0.2347-0.066-0.4647-0.2097-0.6619 c-0.0151-0.0208-0.0314-0.0406-0.0466-0.0613c-0.0619-0.1097-0.134-0.2051-0.2166-0.2852 c-0.8616-1.1101-1.8849-2.0531-3.3174-2.3545c-1.7239-0.3628-3.4258,0.2343-4.65,1.485c-1.2899,1.3179-1.8272,3.1416-2.2419,4.8892 c-0.4454,1.877-0.8169,3.8495-0.6586,5.7863C113.5599,206.1809,115.3954,209.6976,118.7678,210.382z M117.3101,196.351 c0.3425-1.0525,1.0416-2.4626,2.3028-2.6044c0.8967-0.1008,1.5857,0.5076,2.1032,1.1736c0.2643,1.035,0.8335,1.9621,1.114,3.0015 c0.3682,1.3644,0.7276,2.7527,0.776,4.1719c0.0692,2.0273-0.6625,4.4674-2.7621,5.2527c-1.9598,0.733-3.7023-1.1238-4.2466-2.8494 C115.7846,201.9204,116.4974,198.8479,117.3101,196.351z" fill="inherit"/></g></svg>