<?xml version="1.0" encoding="UTF-8" standalone="no"?><svg xmlns="http://www.w3.org/2000/svg" xmlns:xlink="http://www.w3.org/1999/xlink" fill="#000000" height="250.5" preserveAspectRatio="xMidYMid meet" version="1" viewBox="0.0 0.0 254.7 250.5" width="254.7" zoomAndPan="magnify"><g id="change1_1"><path d="M201.6127,133.9336c-0.8809,4.0541-2.2283,7.9831-3.4329,11.9473 c-1.1262,3.7061-1.9215,7.4962-3.3944,11.0912c-2.8739,7.0139-7.6253,12.5261-13.1339,17.6082 c-6.0149,5.5492-12.3432,11.0138-19.8947,14.3598c-7.27,3.2213-15.213,4.8812-23.0909,5.7172 c-7.7226,0.8194-15.5802,1.2218-23.3308,0.5744c-7.5044-0.627-15.2298-1.6708-22.4101-3.9928 c-5.9095-1.911-11.3203-4.9502-16.5869-8.1983c-5.2062-3.2108-10.4023-6.6412-14.9883-10.7073 c-5.3297-4.7255-8.5016-11.0574-10.3635-17.8574c-1.0429-3.8089-1.7588-7.7091-1.922-11.6588 c-0.1824-4.4149,0.1518-8.8297,0.4566-13.2314c0.5885-8.4983,0.117-17.0594,0.9462-25.5363 c1.6447-16.8153,12.8997-30.8598,26.3521-40.3302c3.4969-2.4618,7.1903-4.6333,10.9833-6.6049 c3.6862-1.916,7.4582-3.7983,11.364-5.2262c7.5254-2.7512,15.6162-4.0602,23.5363-5.0976 c4.1635-0.5453,8.3536-0.8004,12.5506-0.5938c0.4305,0.0212,0.7606-0.1144,1.0019-0.3316c7.782,0.8851,15.0868,3.9204,22.2917,6.844 c7.4338,3.0164,14.5885,6.8055,20.5404,12.2481c12.1979,11.1542,20.3588,26.3021,22.6636,42.6994 c0.6178,4.3955,0.8523,8.8478,0.8692,13.2839C202.6367,125.3034,202.5421,129.6561,201.6127,133.9336z M201.6127,133.9336 c-0.8809,4.0541-2.2283,7.9831-3.4329,11.9473c-1.1262,3.7061-1.9215,7.4962-3.3944,11.0912 c-2.8739,7.0139-7.6253,12.5261-13.1339,17.6082c-6.0149,5.5492-12.3432,11.0138-19.8947,14.3598 c-7.27,3.2213-15.213,4.8812-23.0909,5.7172c-7.7226,0.8194-15.5802,1.2218-23.3308,0.5744 c-7.5044-0.627-15.2298-1.6708-22.4101-3.9928c-5.9095-1.911-11.3203-4.9502-16.5869-8.1983 c-5.2062-3.2108-10.4023-6.6412-14.9883-10.7073c-5.3297-4.7255-8.5016-11.0574-10.3635-17.8574 c-1.0429-3.8089-1.7588-7.7091-1.922-11.6588c-0.1824-4.4149,0.1518-8.8297,0.4566-13.2314 c0.5885-8.4983,0.117-17.0594,0.9462-25.5363c1.6447-16.8153,12.8997-30.8598,26.3521-40.3302 c3.4969-2.4618,7.1903-4.6333,10.9833-6.6049c3.6862-1.916,7.4582-3.7983,11.364-5.2262 c7.5254-2.7512,15.6162-4.0602,23.5363-5.0976c4.1635-0.5453,8.3536-0.8004,12.5506-0.5938 c0.4305,0.0212,0.7606-0.1144,1.0019-0.3316c7.782,0.8851,15.0868,3.9204,22.2917,6.844 c7.4338,3.0164,14.5885,6.8055,20.5404,12.2481c12.1979,11.1542,20.3588,26.3021,22.6636,42.6994 c0.6178,4.3955,0.8523,8.8478,0.8692,13.2839C202.6367,125.3034,202.5421,129.6561,201.6127,133.9336z" fill="#ffd200"/></g><g id="change2_1"><path d="M204.3111,119.9855c-0.1014-8.7942-1.2007-17.5869-4.095-25.9213c-2.7321-7.8674-6.7455-15.2297-11.9295-21.7474 c-5.0905-6.4001-11.1914-11.9729-18.3083-16.0345c-3.59-2.0488-7.3613-3.7605-11.1885-5.3135 c-3.7468-1.5203-7.4938-3.0677-11.3372-4.3307c-4.0021-1.3152-8.0841-2.6219-12.3007-2.6223 c-11.1498-0.001-17.2779,1.5404-25.1347,3.1046c-4.0756,0.8114-8.1161,1.8544-12.0008,3.3422 c-3.9367,1.5078-7.7608,3.3956-11.4914,5.3519c-14.9023,7.815-28.4829,19.7625-34.8403,35.6835 c-3.2381,8.1091-4.6011,17.1852-4.6717,25.7897c-0.0361,4.4031-0.2117,8.7816-0.5167,13.1742 c-0.3111,4.4781,0.6435,8.6588,0.9292,13.147c0.4914,7.7176,2.6531,15.829,6.6611,22.4812 c3.2925,5.4645,8.1736,9.355,13.2986,13.0071c5.2645,3.7514,10.7873,7.2289,16.5394,10.1857 c6.5701,3.3772,13.6334,5.2903,20.9194,6.3613c7.6083,1.1183,15.1469,1.8287,22.8448,1.5311 c7.8995-0.3054,15.8732-1.0495,23.5659-2.9357c4.1851-1.0262,8.3003-2.4052,12.2078-4.2289c3.7415-1.7462,7.186-4.0513,10.4468-6.57 c3.3349-2.5759,6.475-5.3862,9.5633-8.2498c2.8433-2.6364,5.5059-5.3776,7.7911-8.5208c2.1794-2.9977,3.9359-6.2614,5.3188-9.697 c1.4832-3.6848,3.1053-6.7568,4.2703-10.5447c1.2651-4.1133,1.842-9.0219,2.6401-13.2598 C204.3099,128.8304,204.3619,124.3876,204.3111,119.9855z M200.3281,133.7095c-0.866,3.9854-2.1906,7.8478-3.3748,11.7448 c-1.1071,3.6433-1.8889,7.3692-3.3369,10.9032c-2.8252,6.8951-7.4961,12.3138-12.9113,17.3098 c-5.913,5.4551-12.134,10.8271-19.5576,14.1165c-7.1468,3.1667-14.9551,4.7985-22.6996,5.6203 c-7.5917,0.8055-15.3162,1.2011-22.9354,0.5646c-7.3772-0.6163-14.9717-1.6425-22.0303-3.9251 c-5.8093-1.8786-11.1285-4.8663-16.3058-8.0593c-5.1179-3.1564-10.226-6.5286-14.7343-10.5258 c-5.2394-4.6454-8.3575-10.8701-10.1879-17.5547c-1.0252-3.7444-1.729-7.5784-1.8894-11.4612 c-0.1793-4.34,0.1492-8.6801,0.4489-13.0071c0.5786-8.3543,0.1151-16.7703,0.9301-25.1035 C53.3608,87.8016,64.425,73.995,77.6495,64.6852c3.4377-2.4201,7.0684-4.5548,10.7971-6.4929 c3.6238-1.8835,7.3318-3.7339,11.1714-5.1376c7.3978-2.7046,15.3516-3.9914,23.1375-5.0112 c4.093-0.5361,8.212-0.7868,12.3379-0.5837c0.4232,0.0208,0.7477-0.1124,0.9849-0.326c7.6501,0.8701,14.8311,3.854,21.9139,6.728 c7.3079,2.9653,14.3412,6.6902,20.1923,12.0405c11.9912,10.9651,20.0138,25.8564,22.2795,41.9758 c0.6074,4.321,0.8378,8.6978,0.8545,13.0588C201.3348,125.2255,201.2418,129.5045,200.3281,133.7095z M121.7521,20.8196 c-0.3074-6.4388,0.4691-12.8973,1.0826-19.3196c0.0771-0.8076-0.7446-1.5-1.5-1.5c-0.8754,0-1.4227,0.6901-1.5,1.5 c-0.6135,6.4224-0.5891,12.8768-0.2817,19.3156C119.6448,22.7375,121.8444,22.7528,121.7521,20.8196z M18.7107,122.6738 c-5.7471,0.2245-11.4904-0.1157-17.2107-0.6628c-0.8076-0.0772-1.5,0.7448-1.5,1.5c0,0.8755,0.6902,1.4225,1.5,1.5 c5.7203,0.5472,12.5222,0.4009,18.2693,0.1764C21.6935,125.1122,20.6445,122.5983,18.7107,122.6738z M44.5219,50.2286 c-3.3007-2.541-6.8066-4.7359-10.3564-6.9089c-0.691-0.423-1.6494-0.1508-2.0523,0.5381c-0.4174,0.7136-0.1547,1.6282,0.5381,2.0523 c3.5498,2.173,7.637,4.162,10.9377,6.703c0.6425,0.4946,1.0986,0.3044,1.471-0.3322C45.5127,51.507,45.166,50.7244,44.5219,50.2286z M203.4007,194.5586c-0.5132-0.6276-1.5887-0.5326-2.1213,0c-0.6205,0.6205,0.6632,2.937,1.1777,3.5661 c3.1297,3.8268,5.0284,6.2521,8.1581,10.0789c0.5132,0.6276,1.5887,0.5326,2.1213,0c0.6206-0.6206,0.5145-1.4922,0-2.1213 C209.6068,202.2554,206.5304,198.3854,203.4007,194.5586z M252.0307,113.1899c-5.8983,1.1177-13.0262,2.7238-19.0327,2.9626 c-1.924,0.0765-0.739,2.4013,1.1948,2.3244c6.2693-0.2493,12.4789-1.2275,18.6354-2.3941 C254.7228,115.7237,253.9205,112.8318,252.0307,113.1899z M63.1168,210.2696c-4.8017,4.9374-8.4518,10.8461-10.777,17.3247 c-0.2737,0.7626,0.3088,1.6422,1.0477,1.8452c0.832,0.2286,1.5705-0.2823,1.8452-1.0477 c2.147-5.9822,5.8607-13.0698,10.2903-17.6245C66.8697,209.3825,64.4658,208.8825,63.1168,210.2696z M127.3314,228.479 c0.0826-1.9304-2.9176-1.9265-3,0c-0.2679,6.2628-0.3256,12.5371,0.1718,18.7903c0.152,1.9117,2.3741,3.2507,2.2207,1.3227 C126.2264,242.3388,127.0634,234.7418,127.3314,228.479z M201.1917,53.549c3.1874-2.8938,6.3383-5.8276,9.5258-8.7214 c0.5826-0.5289,0.5773-1.5914,0-2.1213c-0.6226-0.5715-1.4999-0.5641-2.1213,0c-3.1874,2.8938-4.8087,5.2522-7.9961,8.146 c-0.5826,0.5289-2.1069,2.1667-1.5296,2.6967C199.6929,54.1205,200.5702,54.1131,201.1917,53.549z" fill="inherit"/></g></svg>