<?xml version="1.0" encoding="UTF-8" standalone="no"?><svg xmlns="http://www.w3.org/2000/svg" xmlns:xlink="http://www.w3.org/1999/xlink" fill="#000000" height="369.4" preserveAspectRatio="xMidYMid meet" version="1" viewBox="-6.1 -6.7 344.0 369.4" width="344" zoomAndPan="magnify"><g id="change1_1"><path d="M95.2397,218.5941c0,0-23.0613,11.099-33.1737-14.552c-7.8926,4.4396-27.5009,16.0319-47.8491-2.4664 S0.0964,156.1313,16.19,144.1073s36.0718-12.5789,36.0718-12.5789s-24.9728-21.8281-7.5843-46.0609s46.9859-26.2677,62.8944-15.3536 c-3.055-10.1715-3.8092-51.2405,33.7972-64.0044s59.1162,8.2882,66.6509,23.123c7.5348,14.8347,7.6289,31.0773,7.6289,31.0773 s15.677-17.5734,43.9795-1.2949c28.3025,16.2786,29.0424,47.7258,11.284,61.7845c6.4744,0,33.667-5.3645,50.3156,15.3536 s5.3645,56.2556-24.7878,56.2556c4.0725,3.7623,12.9489,30.3168-16.2786,41.9707c-29.2274,11.654-47.6293-8.9439-56.605-20.9032 c0,0-0.7517-26.3074,13.2204-45.9883c-14.5153-0.0726-57.4486-1.7375-69.1866-0.8126c-11.7379,0.9249-62.9784,4.0696-62.9784,4.0696 S94.5614,191.7098,95.2397,218.5941z M95.2397,218.5941c0,0-23.0613,11.099-33.1737-14.552 c-7.8926,4.4396-27.5009,16.0319-47.8491-2.4664S0.0964,156.1313,16.19,144.1073s36.0718-12.5789,36.0718-12.5789 s-24.9728-21.8281-7.5843-46.0609s46.9859-26.2677,62.8944-15.3536c-3.055-10.1715-3.8092-51.2405,33.7972-64.0044 s59.1162,8.2882,66.6509,23.123c7.5348,14.8347,7.6289,31.0773,7.6289,31.0773s15.677-17.5734,43.9795-1.2949 c28.3025,16.2786,29.0424,47.7258,11.284,61.7845c6.4744,0,33.667-5.3645,50.3156,15.3536s5.3645,56.2556-24.7878,56.2556 c4.0725,3.7623,12.9489,30.3168-16.2786,41.9707c-29.2274,11.654-47.6293-8.9439-56.605-20.9032c0,0-0.7517-26.3074,13.2204-45.9883 c-14.5153-0.0726-57.4486-1.7375-69.1866-0.8126c-11.7379,0.9249-62.9784,4.0696-62.9784,4.0696S94.5614,191.7098,95.2397,218.5941z" fill="#fff1e1"/></g><g id="change2_1"><path d="M236.7771,167.4879c-1.3815,1.4072-20.8048,35.4442-11.1856,59.1221s22.938,28.8575,8.5092,49.0207 c-7.9525,6.2851-32.5124,25.8863-21.6431,42.3613c9.4342,14.7987,14.2437,22.0131,9.6191,33.852 c-2.2103,3.8203-34.7752,10.8995-47.17,5.4498c4.4388-4.3399,11.2832-8.9644,4.6237-18.5836 c-6.6594-9.6191-12.7639-16.6485-12.7639-16.6485l17.3885-42.1763c0,0,20.9032-10.914,17.9434-22.753 c-2.9597-11.839-23.4929-41.4363-16.6485-58.8248c6.8444-17.3885,21.4086-31.468,21.4086-31.468L236.7771,167.4879z M236.7771,167.4879c-1.3815,1.4072-20.8048,35.4442-11.1856,59.1221s22.938,28.8575,8.5092,49.0207 c-7.9525,6.2851-32.5124,25.8863-21.6431,42.3613c9.4342,14.7987,14.2437,22.0131,9.6191,33.852 c-2.2103,3.8203-34.7752,10.8995-47.17,5.4498c4.4388-4.3399,11.2832-8.9644,4.6237-18.5836 c-6.6594-9.6191-12.7639-16.6485-12.7639-16.6485l17.3885-42.1763c0,0,20.9032-10.914,17.9434-22.753 c-2.9597-11.839-23.4929-41.4363-16.6485-58.8248c6.8444-17.3885,21.4086-31.468,21.4086-31.468L236.7771,167.4879z M171.6996,143.0741c-4.6862-1.1099-2.8541-19.048,0-19.2383C179.099,123.3425,176.3859,144.1839,171.6996,143.0741z" fill="#31ad54"/></g><g id="change3_1"><path d="M188.4715,195.4095c-3.453,22.4447,11.2223,39.826,11.2223,39.826s9.2492,11.8461,8.8792,21.3419 c-0.37,9.4958-9.1614,12.9344-21.8281,25.0345c-12.6667,12.1-10.6717,30.5819-12.7022,37.86s7.9039,11.8152,10.729,19.4849 c2.8251,7.6698-5.8546,16.0432-9.8649,18.337s-26.6385-3.5383-36.2576-4.2782c-9.6192-0.7399-3.453-21.4581-10.3591-36.2568 c-6.9061-14.7987,8.6326-33.2971,20.7182-49.329s-7.8926-27.1309-15.8981-52.782s16.8754-48.2766,16.8754-48.2766l56.873-1.0045 C206.8586,165.3667,190.0864,184.9122,188.4715,195.4095z M188.4715,195.4095c-3.453,22.4447,11.2223,39.826,11.2223,39.826 s9.2492,11.8461,8.8792,21.3419c-0.37,9.4958-9.1614,12.9344-21.8281,25.0345c-12.6667,12.1-10.6717,30.5819-12.7022,37.86 s7.9039,11.8152,10.729,19.4849c2.8251,7.6698-5.8546,16.0432-9.8649,18.337s-26.6385-3.5383-36.2576-4.2782 c-9.6192-0.7399-3.453-21.4581-10.3591-36.2568c-6.9061-14.7987,8.6326-33.2971,20.7182-49.329s-7.8926-27.1309-15.8981-52.782 s16.8754-48.2766,16.8754-48.2766l56.873-1.0045C206.8586,165.3667,190.0864,184.9122,188.4715,195.4095z" fill="#ffd200"/></g><g id="change4_1"><path d="M151.9742,167.7556c0.2698-0.0177-12.4617,15.5683-15.7914,30.2437 c-4.2617,18.783,11.7156,29.5357,17.8105,53.0287s-6.256,23.8198-16.2689,39.4015c-11.5306,17.9434-4.008,28.0558,4.0696,40.3264 c8.2402,12.5176,0.9249,19.2383-1.8498,22.568c-17.3268-2.2815-45.136,2.2198-51.0555,2.9513 c9.8041-14.6053,4.1261-26.2472-0.7492-30.6731c-4.8753-4.4258-7.4381-8.6642-7.993-18.5806 c-1.3565-16.1552,22.7394-24.0531,27.2406-34.3505c8.8811-20.3171-10.6674-43.3129-10.6674-43.3129 c-10.8524-31.6589,6.8355-59.3812,6.8355-59.3812S151.7044,167.7733,151.9742,167.7556z M151.9742,167.7556 c0.2698-0.0177-12.4617,15.5683-15.7914,30.2437c-4.2617,18.783,11.7156,29.5357,17.8105,53.0287s-6.256,23.8198-16.2689,39.4015 c-11.5306,17.9434-4.008,28.0558,4.0696,40.3264c8.2402,12.5176,0.9249,19.2383-1.8498,22.568 c-17.3268-2.2815-45.136,2.2198-51.0555,2.9513c9.8041-14.6053,4.1261-26.2472-0.7492-30.6731 c-4.8753-4.4258-7.4381-8.6642-7.993-18.5806c-1.3565-16.1552,22.7394-24.0531,27.2406-34.3505 c8.8811-20.3171-10.6674-43.3129-10.6674-43.3129c-10.8524-31.6589,6.8355-59.3812,6.8355-59.3812 S151.7044,167.7733,151.9742,167.7556z" fill="#ff7134"/></g><g id="change5_1"><path d="M327.2932,138.5537c-5.0613-8.1497-14.067-13.795-22.9565-17.1522c-9.1946-3.4725-20.0511-3.1768-29.7558-2.0962 c4.4221-4.122,7.5318-9.5835,8.9803-15.4874c2.0087-8.1873,1.8844-18.4156-1.7897-25.9164 c-3.7521-7.6599-9.4848-13.3304-16.4348-18.2609c-7.2867-5.1693-17.6586-8.1855-26.5263-8.7651 c-7.9346-0.5186-16.1219,1.9199-22.1266,7.0278c0.5756-12.167-3.0081-24.1376-9.8813-34.2556 c-6.9019-10.1604-16.9967-19.1398-29.4419-21.2128c-6.4109-1.0679-12.1427-2.8736-18.5892-2.3377 c-6.2882,0.5228-12.8692,0.1802-18.913,2.071c-6.0385,1.8892-12.5506,5.9683-17.2174,10.2551 c-4.5362,4.1669-9.1539,9.6765-12,15.1304c-3.3475,6.4148-4.1229,15.1559-5.2897,22.2865 c-0.9288,5.6758-1.1722,11.4857-0.2938,17.1545c-0.045-0.021-0.0926-0.0445-0.1371-0.0652c-3.6861-1.71-7.6677-2.7647-11.675-3.3829 c-9.5409-1.472-19.3662-0.6029-28.2322,3.3258c-9.2111,4.0816-18.6937,10.3119-24.0242,18.8553 c-4.6502,7.4529-4.8595,17.0324-2.5113,25.5174c1.9859,7.1756,6.0643,13.7742,11.0779,19.3151 c-12.9163,1.8414-28.7335,5.4931-38.6971,14.2545c-10.7727,9.473-12.777,24.4174-9.29,38.352 c3.246,12.9715,11.7569,24.8799,24.5509,28.822c7.0059,2.1586,16.5069,1.1885,23.595-0.6005 c3.6118-0.9116,7.3727-2.3397,10.4498-4.4773c0.3707-0.2575,0.7022-0.5526,1.0276-0.8572c0.2054,0.8364,0.5004,1.6445,0.8054,2.4556 c5.2091,13.8491,18.1755,16.0415,29.1612,13.6125c0.9291-0.2054,1.8307-0.4831,2.7192-0.8029 c0.0552,0.9245,0.1353,1.846,0.2533,2.7624c0.479,3.7194,1.8529,6.9588,3.9615,10.0437c2.0007,2.9271,4.231,5.6612,5.9278,8.7892 c1.5856,2.923,2.8057,6.0289,3.6181,9.2542c1.5716,6.2396,1.5759,13.1598-1.242,19.0598c-2.769,5.7976-7.9015,9.2135-13.056,12.7076 c-5.0917,3.4515-10.7823,6.8808-13.249,12.7038c-2.455,5.7955-2.8868,12.6893-1.0249,18.7187 c0.9473,3.0676,3.4336,5.9101,5.5489,8.2973c2.0249,2.2853,5.3115,4.4373,6.6468,7.2315c1.3724,2.8721,1.694,6.3894,1.6038,9.5302 c-0.0958,3.3342-0.8003,6.6888-2.1212,9.7566c-0.6487,1.5068-2.4071,2.935-3.3399,4.2831c-0.2237,0.3233-0.2789,0.6406-0.2284,0.928 c-0.793,0.8014-0.0201,2.628,1.4595,2.3925c6.2444-0.9939,12.4598-2.1935,18.7348-2.9861 c6.3282-0.7994,12.5953-0.934,18.9633-0.7001c3.5829,0.1317,7.1733,0.2949,10.7635,0.5025c-0.8701,1.258,0.9736,2.95,2.212,1.7648 c0.5139-0.4919,0.9994-1.0078,1.4641-1.5389c8.0681,0.5498,16.1198,1.393,24.061,2.8018 c6.1909,1.0983,12.4063,2.2594,18.7043,2.4897c6.5021,0.2377,12.9924-0.4358,19.4394-1.2067 c3.2311-0.3863,6.4592-0.8003,9.6955-1.1411c1.308-0.1378,2.647-0.2003,3.9402-0.4519c1.3155-0.2559,2.2128-0.8526,3.2525-1.6468 c0.7604-0.5809,1.6633-0.9442,2.4098-1.5514c1.0037-0.8166,1.2585-1.775,1.5113-3.009c0.5421-2.6463,0.7718-5.3624,0.7044-8.062 c-0.1373-5.4989-1.4131-11.0069-3.864-15.9395c-2.2258-4.4796-6.0587-7.855-8.459-12.2163 c-5.3687-9.7546,3.1676-19.7109,10.0672-25.9111c3.8448-3.4551,7.9479-6.5552,11.369-10.4633 c3.2417-3.7032,5.9505-7.9647,7.2116-12.7632c1.2352-4.7,1.0048-9.6352-0.5753-14.2218c-1.5229-4.4208-4.0103-8.4069-6.5003-12.3335 c-2.4943-3.9331-5.1013-7.8989-6.7209-12.2925c-0.9141-2.4799-1.4202-5.0651-1.8855-7.6604 c-0.1391-0.7762-0.2616-1.5524-0.3626-2.3293c4.4258,5.9165,9.9417,11.0961,16.3399,14.7938 c8.369,4.8367,18.4717,6.8976,28.0833,6.2256c8.8195-0.6167,17.7061-3.4559,24.218-9.6291 c4.9264-4.6703,8.3427-11.0157,9.2852-17.7558c0.8379-5.9919-0.321-12.1671-3.801-17.0575 c6.9778-0.2324,13.6475-2.6575,19.0112-7.296c6.1625-5.3293,10.5027-13.3206,12.1316-21.2675 C331.8261,156.2123,331.9716,146.087,327.2932,138.5537z M115.3273,351.2126c-6.1469,0.3307-12.2457,1.2863-18.3103,2.3033 c-2.107,0.3533-4.2132,0.7112-6.3206,1.0619c3.1712-5.2316,4.5399-11.6136,3.9405-17.6796 c-0.3114-3.1513-1.0238-6.354-2.7799-9.0338c-1.7462-2.6646-4.1186-4.8229-6.1393-7.2655 c-3.9998-4.8352-4.8238-11.656-3.6578-17.6778c0.5886-3.0401,1.6868-5.9782,3.4889-8.5125c1.74-2.447,4.1243-4.4151,6.5416-6.1603 c4.9944-3.6059,10.5921-6.6327,14.3654-11.6418c3.8846-5.1568,5.395-11.785,5.0138-18.1592 c-0.3945-6.5968-2.585-13.0757-6.0032-18.7132c-1.8692-3.0829-4.2781-5.7985-6.1183-8.8992 c-1.9675-3.3153-2.561-6.8959-2.6724-10.7032c-0.4363-14.9154,0.4049-30.0728,6.785-43.8201 c0.7758-1.6715,1.6276-3.3043,2.5434-4.9031c0.0376-0.0657,0.0612-0.1304,0.0876-0.1953c0.2262,0.2318,0.5566,0.3708,0.9969,0.3326 c14.1591-1.2314,28.3751-1.6741,42.5723-2.3283c-3.3104,5.8303-7.1113,11.3708-10.3386,17.2509 c-3.4879,6.355-5.1428,13.2748-4.3335,20.5284c0.8378,7.5087,4.1486,14.1387,7.46,20.8208 c3.3649,6.7901,6.9099,13.5596,9.3309,20.7612c2.0328,6.0471,3.0504,12.7533,1.3638,19.0094 c-0.8364,3.1024-2.3567,5.8917-4.4714,8.3054c-2.3596,2.6932-4.6567,5.367-7.1699,7.919 c-8.2691,8.3971-11.7246,21.1949-9.2267,32.6603c0.6074,2.7879,1.6007,5.5045,2.9461,8.0216 c1.5489,2.8979,3.9288,5.098,5.7135,7.8184c3.5345,5.3874,2.9585,12.998-0.4452,18.2655c-0.3119,0.4827-0.6536,0.9406-1.0074,1.3882 c-1.762-0.1129-3.5235-0.2213-5.2833-0.3264C127.9342,351.2658,121.6017,350.875,115.3273,351.2126z M153.5964,353.089 c-3.601-0.3656-7.2163-0.6507-10.8336-0.9018c2.5062-3.8634,3.7771-8.4156,3.2515-13.1448 c-0.3697-3.3264-1.3535-6.533-3.3867-9.2232c-1.947-2.5762-3.7458-5.0154-5.4784-7.7812 c-7.7492-12.3703-3.1387-23.8361,3.6938-33.1164c1.9235-2.6127,4.4248-4.6988,6.5366-7.1491 c2.2405-2.5996,4.7272-5.158,6.3909-8.1824c3.1086-5.651,3.538-12.251,2.5475-18.5194c-1.1251-7.1202-4.1964-13.8464-7.2873-20.2992 c-1.6598-3.4651-3.4052-6.8882-5.0955-10.3383c-1.6681-3.4048-3.4039-6.8255-4.5651-10.4438c-2.2-6.8551-3.387-14.2689-0.91-21.0865 c1.2969-3.5696,4.3145-7.8174,6.2773-11.0518c1.9858-3.2723,4.06-5.5451,6.0119-8.8382c0.773-1.3041,1.5164-2.6249,2.2402-3.9566 c1.2376-0.0605,2.4754-0.1186,3.7126-0.1841c8.5506-0.4532,17.0965-0.4789,25.6554-0.6096 c7.3075-0.1115,14.6219-0.2491,21.9308-0.1118c-9.8257,10.7587-19.8542,24.0974-18.0491,39.4505 c1.7405,14.8037,13.411,26.3135,19.4936,39.402c0.8318,1.79,1.5686,3.5712,1.7634,5.5556c0.202,2.0595,0.0326,4.1516-0.2363,6.197 c-0.4209,3.2014-2.66,5.7982-4.9169,8.1071c-4.7425,4.8515-11.0531,7.7604-15.5499,12.9187 c-4.8048,5.5116-7.8711,12.299-9.8525,19.286c-1.0201,3.5974-2.5495,7.2448-3.2681,10.9049 c-0.7369,3.7533-1.4417,7.3305-1.5809,11.1963c-0.1246,3.4601,1.4198,6.222,3.8621,8.5535 c2.1685,2.0701,5.1067,3.8523,6.4247,6.6445c1.2366,2.6195,1.7005,5.9305,0.7996,8.7131c-0.8576,2.6489-2.9003,4.7641-4.8795,6.6323 c-1.3094,1.2359-2.6799,2.4056-4.0489,3.5743c-0.3506,0.2993-0.4837,0.6501-0.4662,0.9886 c-0.5015-0.0742-1.003-0.1456-1.5048-0.2272C166.0554,355.0365,159.8754,353.7266,153.5964,353.089z M226.3212,232.2614 c4.0986,8.0061,10.9279,15.2004,12.2745,24.3768c1.5105,10.293-5.1944,18.8704-12.4475,25.2776 c-7.4014,6.5382-16.7353,13.4188-18.2663,23.9388c-0.3526,2.4231-0.2802,4.9669,0.466,7.315 c0.7393,2.3264,2.0349,4.4073,3.4813,6.3543c1.4888,2.0041,3.132,3.8931,4.5459,5.9527c1.4367,2.0929,2.528,4.3816,3.3477,6.7816 c1.7642,5.1656,2.3989,10.7943,1.6542,16.2128c-0.1196,0.8705-0.1754,2.5906-0.716,3.3074 c-0.4974,0.6598-1.6718,0.9973-2.3287,1.4951c-0.9435,0.7151-1.5903,1.1756-2.8002,1.3585 c-1.5535,0.2348-3.1419,0.3202-4.7036,0.4964c-6.4661,0.7294-12.9141,1.674-19.4156,2.0412 c-4.8618,0.2746-9.6631,0.0835-14.4609-0.4709c4.3592-3.711,9.2143-7.9015,9.5157-14.0056c0.1475-2.9854-0.6493-6.5581-2.3969-9.013 c-1.856-2.6071-4.5873-4.3375-6.7778-6.6247c-1.0832-1.131-1.938-2.3861-2.2441-3.947c-0.3549-1.8094,0.0141-3.7038,0.4518-5.4643 c0.4551-1.8307,0.1092-3.6217,0.5724-5.4503c0.4565-1.802,0.6851-3.6507,1.035-5.4749c1.3897-7.2437,4.5593-14.4587,8.5542-20.7157 c1.9627-3.0742,4.368-5.8414,7.1923-8.1544c2.5203-2.064,5.274-3.8245,7.8507-5.8156c2.4918-1.9256,4.8931-4.0815,6.4913-6.8335 c1.7986-3.0969,2.2124-6.8501,2.2694-10.3738c0.0315-1.9485-0.1548-3.9652-0.7764-5.8216c-0.5849-1.7467-1.4307-3.439-2.2488-5.086 c-1.6584-3.3388-3.5553-6.5522-5.4781-9.7437c-3.783-6.2788-7.8501-12.5594-10.2203-19.5442 c-2.412-7.1079-2.4046-14.3932,0.1342-21.4727c2.6557-7.4058,7.4728-13.9159,12.5762-19.8143 c1.2887-1.4894,2.611-2.9489,3.95-4.3932c0.2128-0.2295,0.3243-0.4789,0.3664-0.7276c0.0444,0.0014,0.0889,0.0013,0.1333,0.0028 c8.7184,0.2901,17.4144,1.0623,26.1332,1.328c-5.826,9.1307-9.1431,19.6326-10.9506,30.2663 c-0.9828,5.7818-1.9028,11.6826-1.1036,17.5346C222.6951,222.5794,223.9103,227.5519,226.3212,232.2614z M327.7509,161.2785 c-0.7501,7.5634-4.4554,15.3487-9.6858,20.8442c-5.8439,6.14-13.8087,8.9729-22.2154,8.4926 c-1.2608-0.072-1.826,1.5823-1.0028,2.4211c8.654,8.8165,5.7529,23.3126-1.9302,31.7217 c-5.4381,5.952-13.051,9.0073-20.9393,10.0595c-8.9996,1.2004-18.7445-0.1799-26.9133-4.2127 c-8.0159-3.9573-14.7615-10.3777-19.7179-17.7691c-0.2343-0.3494-0.5471-0.5362-0.8754-0.6067 c0.0072-0.7523,0.0429-1.5063,0.1147-2.263c1.0773-11.3563,3.4489-22.8769,8.5762-33.1427 c1.2747-2.5524,2.7209-5.0116,4.3271-7.3693c0.5837-0.8567,0.0481-1.6827-0.7117-1.9661c-0.2092-0.404-0.6051-0.709-1.1932-0.7227 c-8.0796-0.1865-16.1369-0.8731-24.2085-1.2387c-8.5743-0.3884-17.1556-0.2817-25.7347-0.1508 c-8.5691,0.1307-17.1447,0.0941-25.7066,0.4976c-2.2714,0.107-4.542,0.2214-6.8124,0.3374 c-0.5395-0.4043-1.3151-0.4752-1.8152,0.0928c-5.5264,0.2837-11.0521,0.5692-16.5839,0.7779 c-9.2211,0.3479-18.44,0.8284-27.6339,1.628c-0.7015,0.061-1.1292,0.5279-1.2874,1.0657c-0.5943-0.61-1.6987-0.754-2.2462,0.2019 c-7.4173,12.9481-9.9875,28.0676-9.8113,42.8429c0.0218,1.8331,0.0009,3.6805,0.0295,5.5254 c-9.7474,3.9568-23.0333,0.1086-28.3317-9.2121c-0.5957-1.0479-1.0631-2.1455-1.389-3.3065 c-0.2993-1.0664-0.1809-2.7972-1.251-3.4208c-1.162-0.6771-2.246,0.3274-3.0345,1.0888c-1.1229,1.0841-2.3704,1.8274-3.7631,2.5406 c-6.4975,3.3273-14.0555,4.3119-21.2618,3.5081c-12.6034-1.4059-23.5697-10.1281-28.5927-21.6507 c-5.3957-12.3778-3.4666-28.2013,5.5393-38.2975c9.0997-10.2013,23.0505-13.8361,36.1634-15.9387 c1.3674-0.2192,2.7389-0.4084,4.1125-0.5828c0.1268,0.1249,0.2514,0.2532,0.3791,0.3768c1.3123,1.27,3.3204-0.7334,2.0057-2.0057 c-0.0737-0.0713-0.1436-0.1478-0.217-0.2195c-0.0541-0.576-0.4145-1.0735-1.0885-1.1011 c-4.4466-4.5814-8.2496-9.9808-10.5843-15.9158c-2.9181-7.4177-3.4098-15.2068-0.3718-22.6841 c3.5143-8.6496,11.4848-16.0797,19.7008-20.6705c7.8293-4.3746,17.5156-5.6308,26.4267-5.0355 c4.5388,0.3032,9.0785,1.2098,13.3598,2.7685c5.2108,1.8971,6.4894,5.1714,7.1639,4.5032c0.9384,0.1268,1.9725-0.5711,1.5583-1.6972 c-0.3739-1.0167-1.1155-1.8338-1.9948-2.5183c-1.1754-5.4169-1.2132-11.029-0.479-16.5283 c0.8291-6.2104,2.4743-12.476,5.0085-18.214c4.6912-10.622,12.04-20.7415,22.9964-25.1925 c5.5233-2.2438,12.1453-3.746,18.0519-4.3734c6.0852-0.6464,12.2074-0.2827,18.3257,0.115 c6.1737,0.4014,11.9384,2.0485,17.1517,5.4218c4.8755,3.1547,9.1224,7.255,12.6984,11.817 c8.8496,11.2897,13.1809,25.3971,11.5009,39.6932c-0.1413,1.2019,1.662,1.8995,2.421,1.0028 c5.0402-5.9543,14.0202-9.2135,21.6376-9.1507c8.1898,0.0674,14.7325,3.2588,21.8133,7.4039 c6.9086,4.0443,12.8082,10.3043,16.8746,17.167c3.9053,6.5908,6.1822,14.2895,5.114,21.9786 c-1.1329,8.1552-5.6175,15.8573-12.6839,20.2272c-1.4226,0.8798-0.455,2.8688,1.0928,2.5921 c18.0102-3.2195,40.7313-0.4772,52.3883,15.1071C327.1094,144.4851,328.5611,153.1091,327.7509,161.2785z M271.8815,174.4171 c0.6671,2.431,0.3875,5.0127-0.9349,7.181c-0.2353,0.3858-0.5729,1.0283-0.9647,1.2799c-0.3754,0.2412-0.3083,0.1901-0.6577-0.2693 c-0.7929-1.0425-1.3396-2.3802-1.8872-3.5603c-2.4589-5.299-3.7556-11.102-3.8614-16.9366c-0.0331-1.823-2.8696-1.8289-2.8364,0 c0.134,7.3883,2.0237,15.0611,5.829,21.4435c0.7282,1.2213,1.7759,2.4124,3.3242,2.3533c1.5774-0.0601,2.6399-1.5216,3.411-2.7336 c1.7892-2.8124,2.1878-6.324,1.3131-9.5118C274.1342,171.905,271.397,172.6514,271.8815,174.4171z M138.4387,123.5498 c-0.1322-0.4809-0.5168-0.8285-0.9771-0.9684c-0.1851-0.0939-0.3887-0.145-0.6036-0.1212c-0.1424,0.0158-0.2848,0.0331-0.4273,0.049 c-2.1367-0.0062-4.2471,0.2742-6.2875,0.838c-0.9801,0.1628-1.9577,0.3396-2.9285,0.5522c-2.5845,0.566-5.4153,1.5149-5.7911,4.5163 c-0.0825,0.659,0.5086,1.1552,1.0412,1.3676c4.7383,1.8894,9.4635-0.4478,13.3866-3.2051c0.6633-0.1788,1.3229-0.373,1.9732-0.6006 c1.1671-0.4085,1.2332-1.5838,0.6305-2.2593C138.4468,123.6613,138.4549,123.6085,138.4387,123.5498z M221.4284,127.6168 c-0.3761-0.5371-0.8054-1.0425-1.2423-1.5018c-0.054-0.425-0.3168-0.814-0.6898-1.0972c-1.6916-1.2842-3.3603-2.5984-5.0538-3.8803 c-1.4977-1.1338-3.7358-2.1016-5.213-0.3516c-1.284,1.5213-0.8622,3.6676,0.3316,5.0858c0.5762,0.6845,1.343,1.1982,2.0526,1.733 c0.8369,0.6307,1.679,1.2547,2.5303,1.8658c1.8925,1.3584,3.8324,2.6497,5.8501,3.8154c0.5188,0.2997,1.3023,0.2453,1.7186-0.2218 c0.2784-0.3124,0.4792-0.6343,0.6258-0.9611c1.1321-0.0007,1.8271-1.327,1.0046-2.3906 C222.7619,128.961,222.1202,128.2612,221.4284,127.6168z M175.125,123.069c-1.2783-1.1368-3.0744-1.5375-4.6085-0.6882 c-0.6033,0.334-0.774,0.8912-0.6677,1.4078c-0.4713,0.0686-0.8879,0.3767-1.0152,1.0007c-0.7457,3.6527-0.8909,7.3849-0.789,11.1031 c0.0757,2.7627,0.4837,5.8592,2.8037,7.6873c1.2886,1.0155,3.0428,1.0104,4.037-0.4165c0.8926-1.281,1.2159-3.1599,1.538-4.6601 c0.7511-3.4988,0.9063-7.0956,0.5037-10.6485C176.7312,126.1288,176.5026,124.2942,175.125,123.069z M172.7315,141.1821 c-0.0083,0.0201-0.0501,0.1309-0.0846,0.2256c-0.0038-0.0017-0.0048-0.0027-0.0088-0.0045 c-0.1376-0.1157-0.2682-0.2388-0.3917-0.3696c-0.3729-0.4044-0.644-0.8972-0.8283-1.4137 c-0.4266-1.1954-0.5035-2.4703-0.5373-3.7276c-0.0931-3.4617-0.0069-6.9468,0.6877-10.349c0.0418-0.205,0.0387-0.3947,0.0069-0.5704 c0.1225-0.0308,0.2466-0.0733,0.3726-0.1431c1.0972-0.6074,1.8288,1.1336,1.9831,1.8935c0.3095,1.5239,0.3725,3.1407,0.3843,4.6915 C174.3401,134.6349,173.9677,138.1769,172.7315,141.1821z M209.2665,96.6272c0.7082-0.2179,1.2312-1.0006,0.9905-1.7446 c-0.2308-0.7134-0.9852-1.2241-1.7445-0.9905c-3.3411,1.0279-6.3383,3.0249-8.6394,5.6496c-0.4888,0.5575-0.5897,1.4643,0,2.0057 c0.5355,0.4916,1.4834,0.5957,2.0056,0c0.5138-0.5861,1.0596-1.1427,1.6415-1.6614c0.2781-0.2478,0.5647-0.4862,0.8576-0.7164 c0.0394-0.0299,0.0953-0.0725,0.1128-0.0856c0.0868-0.0644,0.1741-0.1281,0.262-0.1909c0.1582-0.1131,0.3184-0.2234,0.4803-0.3311 c0.647-0.4305,1.3226-0.8181,2.0221-1.1567c0.1749-0.0847,0.3516-0.165,0.5287-0.2447c0.022-0.0099,0.0396-0.0176,0.0554-0.0245 c0.0876-0.0358,0.1754-0.0713,0.2636-0.1057C208.4855,96.8809,208.8739,96.7479,209.2665,96.6272z M207.8634,97.1254 C207.8837,97.1167,207.888,97.1151,207.8634,97.1254L207.8634,97.1254z M136.2905,94.6716 c-1.7553-0.5139-2.505,2.2225-0.7541,2.7351c4.0319,1.1805,7.7996,3.2038,11.0939,5.8056c0.6005,0.4742,1.4195,0.5861,2.0056,0 c0.4927-0.4927,0.6044-1.5284,0-2.0057C144.944,98.2908,140.8193,95.9976,136.2905,94.6716z" fill="inherit"/></g></svg>