<?xml version="1.0" encoding="UTF-8" standalone="no"?><svg xmlns="http://www.w3.org/2000/svg" xmlns:xlink="http://www.w3.org/1999/xlink" fill="#000000" height="275.8" preserveAspectRatio="xMidYMid meet" version="1" viewBox="-0.4 -0.5 253.8 275.8" width="253.8" zoomAndPan="magnify"><g id="change1_1"><path d="M226.1483,154.5283c-3.1304,2.1522-16.8261,15.2609-21.913,19.3696 c-5.087,4.1087-6.0652,5.6739-5.8696,9.7826c0.1956,4.1087,8.2174,28.7609,10.7609,40.1087 c2.5435,11.3478,3.9131,34.4348,3.9131,34.4348l-50.087-32.8696c0,0-25.1334-18.6568-29.7391-18.587 c-5.9212,0.0898-20.7781,14.6985-22.5,16.8261c-7.7298,9.5512-35.6087,35.8044-37.7609,37.7609 c-2.1522,1.9565-16.6304,12.1304-16.6304,12.1304s-1.5595-22.7286,0.1957-27.7826c1.7551-5.054,3.2118-26.0741,9-38.7391 s1.384-12.6312,0.9783-15.4565c-0.4058-2.8253-16.0435-9-27.3913-14.8696S3.9513,160.2996,2.7787,156.1152 c14.8696-7.3478,60.7826-10.913,74.8941-18.8984s42.5624-81.9494,42.5624-81.9494s36.9734,72.5158,50.0217,75.8478 c20.1848,4.1413,37.9271,4.2912,48.9457,5.8044c18.9641,2.6044,23.5284,3.6607,23.5284,3.6607 C242.5486,141.514,229.2787,152.3761,226.1483,154.5283z M226.1483,154.5283c-3.1304,2.1522-16.8261,15.2609-21.913,19.3696 c-5.087,4.1087-6.0652,5.6739-5.8696,9.7826c0.1956,4.1087,8.2174,28.7609,10.7609,40.1087 c2.5435,11.3478,3.9131,34.4348,3.9131,34.4348l-50.087-32.8696c0,0-25.1334-18.6568-29.7391-18.587 c-5.9212,0.0898-20.7781,14.6985-22.5,16.8261c-7.7298,9.5512-35.6087,35.8044-37.7609,37.7609 c-2.1522,1.9565-16.6304,12.1304-16.6304,12.1304s-1.5595-22.7286,0.1957-27.7826c1.7551-5.054,3.2118-26.0741,9-38.7391 s1.384-12.6312,0.9783-15.4565c-0.4058-2.8253-16.0435-9-27.3913-14.8696S3.9513,160.2996,2.7787,156.1152 c14.8696-7.3478,60.7826-10.913,74.8941-18.8984s42.5624-81.9494,42.5624-81.9494s36.9734,72.5158,50.0217,75.8478 c20.1848,4.1413,37.9271,4.2912,48.9457,5.8044c18.9641,2.6044,23.5284,3.6607,23.5284,3.6607 C242.5486,141.514,229.2787,152.3761,226.1483,154.5283z" fill="#ffd200"/></g><g id="change2_1"><path d="M227.1266,48.2892c15.6522-0.0978,23.9674,4.6957,23.9674,4.6957l-14.087,11.3478v23.7717l-20.0972-9.4891 l-17.5659,13.8913l-1.663-0.9783l4.5-24.6522l-18.2935-9.7826c0,0,10.3696-3.3261,11.0543-3.0192s11.9348-2.5569,11.9348-2.5569 l2.6413-3.7174l6.8478-17.7065C218.1266,31.4631,224.3874,43.2022,227.1266,48.2892z M227.1266,48.2892 c15.6522-0.0978,23.9674,4.6957,23.9674,4.6957l-14.087,11.3478v23.7717l-20.0972-9.4891l-17.5659,13.8913l-1.663-0.9783 l4.5-24.6522l-18.2935-9.7826c0,0,10.3696-3.3261,11.0543-3.0192s11.9348-2.5569,11.9348-2.5569l2.6413-3.7174l6.8478-17.7065 C218.1266,31.4631,224.3874,43.2022,227.1266,48.2892z" fill="#31ad54"/></g><g id="change3_1"><path d="M244.3572,138.8316c-10.7482-2.4758-20.0682-4.2977-31.0255-4.7312c-11.0995-0.4392-23.6719-0.5815-34.5472-2.7084 c-2.4891-0.4868-5.0211-0.853-7.4887-1.4379c-2.4373-0.5776-4.403-1.8038-6.218-3.5103c-3.5696-3.356-5.6471-7.9675-8.1608-12.0995 c-5.6489-9.2854-11.7805-18.2683-17.3902-27.5779c-6.2944-10.446-11.7645-21.3546-17.771-31.9633 c-0.4424-0.7814-1.2377-0.8676-1.8683-0.5722c-0.6902-0.1204-1.4788,0.1524-1.7921,0.9824 c-4.0398,10.7021-7.9018,21.4839-12.4747,31.9749c-4.467,10.248-10.0172,19.9147-15.446,29.6702 c-2.4662,4.4316-4.598,9.1804-7.4682,13.3687c-2.852,4.1616-7.143,6.7419-11.8828,8.2712 c-5.2613,1.6976-10.8494,2.5388-16.2663,3.5938c-5.6088,1.0923-11.2254,2.1454-16.824,3.2894 c-6.2298,1.2729-12.3695,2.7995-18.4835,4.5444c-6.0235,1.7191-12.0341,3.4852-18.158,4.819 c-1.0947,0.2384-1.4599,1.7591-0.6619,2.5071c7.0355,6.5944,14.229,10.2495,23.0308,13.969 c10.0253,4.2365,18.6936,9.1236,28.2622,14.336c2.0716,1.1285,6.7562,2.2838,8.8221,3.4225 c1.7834,0.983,3.6384,1.9785,5.0853,3.4373c3.5352,3.5647,0.3364,7.9856-1.1412,11.7568 c-1.9593,5.0005-3.4261,10.2578-4.7595,15.4547c-1.3713,5.3447-2.4925,10.7527-3.3718,16.1999 c-2.0087,12.4431-2.1976,24.9612-1.5378,37.5258c0.0568,1.0812,1.2487,1.9403,2.2571,1.2952 c21.8047-13.9501,39.0959-33.2264,57.7437-50.8422c4.6225-4.3666,8.5317-9.5239,13.5896-13.3814 c1.9616-1.4962,4.2828-3.4825,6.8134-1.8976c2.6307,1.6475,5.0511,3.7036,7.6232,5.4524 c5.2733,3.5855,10.7015,6.9365,15.9799,10.5143c5.4697,3.7075,10.8395,7.5604,16.3172,11.2578 c12.2911,8.2964,24.7429,16.3425,37.3881,24.0888c0.9747,0.597,2.2601-0.1752,2.2571-1.2952 c-0.0502-18.5576-3.3531-37.2254-8.4858-55.0275c-1.2521-4.3428-2.6627-8.6412-4.2719-12.8652 c-0.8096-2.125-1.9523-4.2513-2.4776-6.4662c-0.416-1.754-0.4879-4.079,0.9299-5.3919c1.3734-1.2718,3.0531-2.2697,4.4888-3.487 c1.7009-1.4423,3.3617-2.931,5.0051-4.4384c3.3463-3.0692,6.6204-6.2176,10.0247-9.2233 c8.0441-7.102,16.704-13.5253,25.0167-20.3076C245.893,140.6256,245.3898,139.0694,244.3572,138.8316z M209.8912,166.8672 c-3.2226,2.9963-6.4369,6.1043-10.0373,8.6453c-1.4308,1.0099-2.6863,2.1336-3.1755,3.8781 c-0.5789,2.0646-0.4427,4.4188,0.2239,6.4432c0.7244,2.1997,1.7554,4.3206,2.567,6.4927c0.8184,2.1904,1.5845,4.4003,2.3036,6.6252 c2.8926,8.9496,5.0496,18.137,6.79,27.3755c1.8355,9.7434,2.9794,19.5875,3.1829,29.4968 c-10.608-6.5414-21.0834-13.2853-31.4435-20.2143c-5.6768-3.7966-11.3112-7.6542-16.8951-11.5861 c-5.3412-3.7609-10.8882-7.2119-16.334-10.8164c-2.7205-1.8007-5.4155-3.6418-8.0381-5.5828 c-1.0646-0.788-2.0883-1.7026-3.3252-2.2114c-1.2088-0.4972-2.5419-0.5156-3.8206-0.3215 c-2.8036,0.4255-5.1439,2.8315-7.2902,4.5243c-2.5167,1.9849-4.973,4.0461-7.3766,6.1664 c-10.0323,8.8491-19.1274,18.7213-28.5929,28.1602c-5.2673,5.2526-10.5178,10.5406-16.1351,15.423 c-4.6883,4.0749-9.631,7.8303-14.7982,11.2711c-0.463-10.5739-0.36-21.1892,1.1932-31.6773 c1.6158-10.9107,4.2006-21.6885,7.8179-32.1105c1.4453-4.164,4.8925-8.8555,3.1318-13.4149 c-1.4921-3.8638-5.5763-5.8146-8.9727-7.7007c-9.6451-5.3558-19.4538-10.1945-29.6278-14.473 c-9.3292-3.9233-18.7596-7.7621-26.5684-14.2703c10.1505-2.4174,20.0499-5.7944,30.2651-7.9664 c5.8287-1.2394,11.6837-2.3502,17.5345-3.4794c5.6376-1.088,11.3592-2.0369,16.9142-3.4998 c4.7936-1.2625,9.6254-3.3494,13.1655-6.9177c3.5258-3.554,5.5838-8.2958,7.9451-12.6337 c5.4308-9.977,11.3193-19.7237,16.0549-30.0635c5.1226-11.1847,9.3132-22.7636,13.6339-34.2743 c5.0204,8.9799,9.7238,18.1355,14.9124,27.0217c5.6185,9.6226,11.9025,18.8345,17.77,28.3034 c1.3792,2.2258,2.7359,4.4657,4.0523,6.7292c1.2711,2.1858,2.5002,4.3515,4.1196,6.3061c1.4504,1.7508,3.1752,3.3229,5.0914,4.5528 c2.069,1.3281,4.4351,1.8383,6.8215,2.2597c10.9435,1.9326,22.2329,3.4045,33.3377,4.2943 c11.58,0.9279,22.8078,1.3768,34.2586,3.4872c-6.8017,5.4805-13.7262,10.8199-20.3983,16.4551 C216.621,160.5437,213.2715,163.7242,209.8912,166.8672z M119.1355,157.9699c-0.0004-3.913-0.0194-7.826-0.0198-11.7391 c-0.0002-1.9304-3.0002-1.9335-3,0c0.0004,3.9131,0.0194,7.8261,0.0198,11.7391 C116.1357,159.9003,119.1357,159.9035,119.1355,157.9699z M134.0993,157.1221c0.8126-0.0364,1.5001-0.6591,1.5-1.5 c-0.0005-3.1304-0.0238-6.2608-0.0242-9.3913c-0.0001-0.7846-0.6899-1.5363-1.5-1.5c-0.8126,0.0364-1.5001,0.6591-1.5,1.5 c0.0004,3.1305,0.0237,6.2609,0.0242,9.3913C132.5994,156.4067,133.2892,157.1584,134.0993,157.1221z M153.922,149.7942 c-3.9813,11.5922-13.7097,20.9742-25.3045,24.8527c-3.2981,1.1032-6.7132,1.7588-10.1874,1.917c-1.9226,0.0875-1.9333,3.088,0,3 c13.3711-0.6088,25.8546-7.9985,33.3875-18.9766c2.1174-3.0859,3.7822-6.4576,4.9973-9.9956 C157.4433,148.7619,154.5465,147.976,153.922,149.7942z M251.9821,51.3173c-4.0839-1.5419-8.2318-2.9447-12.5234-3.7847 c-3.8243-0.7485-7.7021-1.0256-11.5909-1.01c-2.2122-6.5618-5.8809-12.4841-10.4742-17.6516 c-0.7903-0.889-2.1754-0.3457-2.5071,0.6619c-1.3566,4.1208-2.8599,8.1907-4.2596,12.2968 c-0.5759,1.6896-1.0572,3.4241-1.6979,5.0903c-0.5502,1.4306-1.3506,2.894-2.8376,3.5124 c-1.6019,0.6662-3.4603,0.5176-5.1552,0.6364c-1.9173,0.1342-3.8335,0.4094-5.7142,0.8041 c-3.9136,0.8212-7.6658,2.2489-11.2478,4.0105c-0.9975,0.4906-3.9824,1.7698-3.0231,2.2715 c5.6739,2.967,14.3254,6.3389,19.9943,9.3153c-0.9655,4.6971-1.8901,9.4023-2.8237,14.1058 c-0.5063,2.5509-1.017,5.101-1.5422,7.6481c-0.1941,0.9412-0.6549,1.9683-0.4913,2.934c0.1588,0.9373,0.8707,1.7305,1.7829,2.0002 c1.7415,0.5149,3.4532-0.6029,4.7174-1.6816c1.8605-1.5876,3.7297-3.1627,5.6163-4.7194c1.947-1.6066,3.8975-3.2097,5.81-4.8574 c0.7874-0.6784,1.6211-1.6738,2.6035-2.0614c1.1451-0.4518,2.3649,0.3469,3.3325,0.8804c5.0676,2.7938,10.1301,5.597,15.1982,8.39 c0.7783,0.4289,2.3454,1.0005,2.9324-1.2041c2.0821-7.8204,1.4371-15.7335,0.792-23.8156 c4.7574-3.3591,8.6064-7.8047,13.4667-11.0302C253.4695,53.3097,253.1964,51.7758,251.9821,51.3173z M236.5669,63.0635 c-0.4161,0.2761-0.7913,0.7606-0.7429,1.2952c0.6697,7.4047,0.1382,14.8019-1.0441,22.1197 c-3.5901-1.9805-7.1787-3.9639-10.7683-5.9453c-1.9403-1.071-3.9827-2.5783-6.2474-2.7896 c-2.1434-0.1999-3.6392,1.0905-5.155,2.4153c-3.5643,3.1149-7.2837,6.0464-10.8861,9.1164 c-0.6875,0.5859-1.3524,1.2963-2.1591,1.7217c-0.0152,0.008-0.1411,0.0565-0.2869,0.1124c0.0411-0.2202,0.0623-0.4565,0.097-0.6108 c0.5347-2.3765,0.975-4.7787,1.4505-7.1677c1.0791-5.4222,2.1344-10.8493,3.2569-16.2629c0.1306-0.6296-0.0795-1.3751-0.6893-1.694 c-5.1071-2.6706-10.1801-5.4056-15.2758-8.0976c2.9604-1.2502,6.0359-2.2043,9.212-2.7635 c2.0063-0.3533,4.0099-0.4353,6.0369-0.5681c1.8343-0.1202,3.7004-0.415,5.2304-1.5054c2.9564-2.1068,3.676-6.1293,4.7691-9.3561 c1.1512-3.3986,2.3763-6.7716,3.5402-10.1658c3.5471,4.38,6.3914,9.3104,8.1663,14.6756c-0.245,0.8727,0.21,1.9573,1.3795,1.9306 c4.2275-0.0967,8.4422,0.1335,12.5925,0.978c3.2031,0.6518,6.3248,1.6153,9.402,2.7064 C244.3893,56.3812,240.8767,60.2033,236.5669,63.0635z M147.0293,17.8578c3.9713-0.6786,7.408-0.4913,11.422-0.7518 c0.093,5.4387,0.9018,10.2361,1.2846,15.6642c0.135,1.915,3.136,1.9299,3,0c-0.3865-5.4807,0.0128-10.1727-0.078-15.6642 c3.2116-0.1324,5.7846-0.9467,9.0001-0.8558c1.9312,0.0546,1.9296-2.9455,0-3c-3.2298-0.0913-5.8737-0.7002-9.0965-0.5641 c-0.0234-3.9559-0.5484-7.2842-0.3948-11.2394c0.075-1.9307-2.9251-1.9274-3,0c-0.1556,4.0086-0.9369,7.5355-0.9109,11.5449 c-4.2677,0.2785-7.7986,1.2513-12.0238,1.9733C144.3326,15.2895,145.1378,18.181,147.0293,17.8578z" fill="inherit"/></g></svg>