<?xml version="1.0" encoding="UTF-8" standalone="no"?><svg xmlns="http://www.w3.org/2000/svg" xmlns:xlink="http://www.w3.org/1999/xlink" fill="#000000" height="230.7" preserveAspectRatio="xMidYMid meet" version="1" viewBox="-0.4 -0.4 221.2 230.7" width="221.2" zoomAndPan="magnify"><g id="change1_1"><path d="M218.2052,56.6802c-0.4231-2.8241-1.4497-5.5231-2.3012-8.2378c-1.963-6.2582-3.9308-12.5314-6.552-18.5523 c-2.0965-4.8158-4.7543-9.2588-8.5081-12.9739c-3.7597-3.721-8.3007-6.566-13.149-8.6427 c-5.9575-2.5519-12.2877-4.4438-18.7177-5.3073c-5.6372-0.757-11.4325-0.6544-16.9258,0.9346 c-5.7209,1.655-11.1435,4.3995-16.0198,7.7995c-9.7959,6.8302-17.334,16.1796-22.1967,27.0672 c-1.8156,4.0651-3.2827,8.2697-4.4578,12.5602c-3.9341-3.6026-6.9804-7.9983-10.3389-12.1458 c-3.6517-4.5096-7.8947-8.4475-12.6931-11.716c-9.465-6.4471-20.8529-10.2366-32.2712-10.9484 c-11.3301-0.7062-22.9912,1.9765-31.8207,9.3793c-8.2536,6.9201-12.8967,17.0538-15.569,27.2845 c-1.3887,5.3167-2.2856,10.7459-2.991,16.191C2.8629,75.7822,2.267,82.2615,2.6148,88.7292 c0.3529,6.5627,1.8641,12.6754,4.2823,18.765c2.2879,5.7614,4.4781,11.6367,7.8098,16.8974 c3.204,5.0591,7.4503,9.4501,11.5678,13.7638c4.4426,4.6541,8.9565,9.253,13.0052,14.2619 c8.539,10.5642,16.0712,21.9242,25.2788,31.9458c4.3166,4.6982,8.908,9.1297,13.4841,13.5719 c4.6288,4.4933,9.1138,9.1159,13.5944,13.756c3.9486,4.0891,7.9051,8.235,12.3183,11.8322 c1.7524,1.4284,3.5776,2.7904,5.5499,3.9024c1.2231,0.6897,2.0378,0.2818,3.2902-0.1628c1.2222-0.4339,2.4371-0.8885,3.6439-1.3638 c10.9706-4.3208,21.4885-10.2765,30.2475-18.2299c8.8695-8.0537,15.1711-18.3942,22.9149-27.4417 c7.8228-9.1398,16.9003-17.2141,24.3835-26.6424c3.2663-4.1153,5.7287-8.757,7.9835-13.4879 c2.8297-5.9369,5.2452-12.0729,7.3675-18.2956c2.1227-6.2239,3.5488-12.5453,4.5048-19.0486 c0.9412-6.403,1.6268-12.84,2.556-19.2451c0.9147-6.3045,1.9334-12.6419,2.1666-19.0177 C218.6593,61.8796,218.5925,59.2663,218.2052,56.6802z M218.2052,56.6802c-0.4231-2.8241-1.4497-5.5231-2.3012-8.2378 c-1.963-6.2582-3.9308-12.5314-6.552-18.5523c-2.0965-4.8158-4.7543-9.2588-8.5081-12.9739 c-3.7597-3.721-8.3007-6.566-13.149-8.6427c-5.9575-2.5519-12.2877-4.4438-18.7177-5.3073 c-5.6372-0.757-11.4325-0.6544-16.9258,0.9346c-5.7209,1.655-11.1435,4.3995-16.0198,7.7995 c-9.7959,6.8302-17.334,16.1796-22.1967,27.0672c-1.8156,4.0651-3.2827,8.2697-4.4578,12.5602 c-3.9341-3.6026-6.9804-7.9983-10.3389-12.1458c-3.6517-4.5096-7.8947-8.4475-12.6931-11.716 c-9.465-6.4471-20.8529-10.2366-32.2712-10.9484c-11.3301-0.7062-22.9912,1.9765-31.8207,9.3793 c-8.2536,6.9201-12.8967,17.0538-15.569,27.2845c-1.3887,5.3167-2.2856,10.7459-2.991,16.191 C2.8629,75.7822,2.267,82.2615,2.6148,88.7292c0.3529,6.5627,1.8641,12.6754,4.2823,18.765 c2.2879,5.7614,4.4781,11.6367,7.8098,16.8974c3.204,5.0591,7.4503,9.4501,11.5678,13.7638 c4.4426,4.6541,8.9565,9.253,13.0052,14.2619c8.539,10.5642,16.0712,21.9242,25.2788,31.9458 c4.3166,4.6982,8.908,9.1297,13.4841,13.5719c4.6288,4.4933,9.1138,9.1159,13.5944,13.756 c3.9486,4.0891,7.9051,8.235,12.3183,11.8322c1.7524,1.4284,3.5776,2.7904,5.5499,3.9024c1.2231,0.6897,2.0378,0.2818,3.2902-0.1628 c1.2222-0.4339,2.4371-0.8885,3.6439-1.3638c10.9706-4.3208,21.4885-10.2765,30.2475-18.2299 c8.8695-8.0537,15.1711-18.3942,22.9149-27.4417c7.8228-9.1398,16.9003-17.2141,24.3835-26.6424 c3.2663-4.1153,5.7287-8.757,7.9835-13.4879c2.8297-5.9369,5.2452-12.0729,7.3675-18.2956 c2.1227-6.2239,3.5488-12.5453,4.5048-19.0486c0.9412-6.403,1.6268-12.84,2.556-19.2451 c0.9147-6.3045,1.9334-12.6419,2.1666-19.0177C218.6593,61.8796,218.5925,59.2663,218.2052,56.6802z" fill="#ff7134"/></g><g id="change2_1"><path d="M214.3121,92.7578c0.1567,4.3652-0.0307,21.9417-11.1268,46.0743 c-12.8569,27.962-31.6453,39.2881-31.6458,39.2885c-0.2812,1.0369-1.569,1.7667-2.4316,0.7275 c-5.6113-6.7606-7.4515-16.6327-6.8145-25.2086c0.5782-7.7847,0.9564-15.6959,2.7712-23.316 c1.7957-7.5399,5.2985-14.4371,9.8613-20.6734c2.8275-3.8645,5.8932-7.5712,9.2847-10.9554 c2.8484-2.8424,5.9474-5.683,9.5067-7.6163c6.5681-3.5676,13.9222-2.5678,20.9677-1.2337 C216.4322,90.1755,215.8826,92.6461,214.3121,92.7578z M75.5081,143.4021c-1.9153-9.5692-7.0599-18.2392-13.6895-25.3039 c-3.4083-3.632-7.2642-7.1468-11.4448-9.8698c-4.5538-2.9661-9.5178-3.877-14.888-3.7366 c-5.2169,0.1365-10.6998,0.2142-15.8132,1.355c-0.0906,0.0202-0.1793,0.0488-0.2697,0.07 c-0.7987,0.1586-1.5553,0.3731-2.2725,0.6615c-3.4899,1.2012-6.6269,3.2643-8.4465,6.6144 c-0.684,1.2593,0.5654,2.4161,1.6326,2.2361c0.0449,3.2133,1.5062,9.4143,10.1857,16.8875 c12.7826,11.006,40.9701,48.4626,40.9701,48.4626c0.2982,0.7769,1.2036,1.386,2.175,0.9064 C77.4709,174.8589,78.1528,156.6147,75.5081,143.4021z" fill="#ff7134"/></g><g id="change3_1"><path d="M220.2785,55.554c-0.4312-2.8785-1.4776-5.6295-2.3455-8.3965c-2.0008-6.3787-4.0065-12.7728-6.6782-18.9097 c-2.1369-4.9086-3.5903-10.1094-7.4164-13.8961c-3.8321-3.7927-8.754-7.6659-13.6956-9.7826 c-6.0723-2.601-12.3592-3.3489-18.9131-4.229c-5.7458-0.7716-12.78-0.2019-18.379,1.4178 c-5.8311,1.6868-11.3581,4.4843-16.3283,7.9498c-9.9846,6.9618-17.6678,16.4912-22.6243,27.5885 c-1.8505,4.1434-3.3459,8.429-4.5436,12.8021c-4.0098-3.6719-7.1148-8.1523-10.538-12.3797 c-3.722-4.5964-8.0468-8.6102-12.9376-11.9417c-9.6473-6.5713-21.2545-10.4338-32.8928-11.1592 c-11.5483-0.7198-23.434,2.0145-32.4336,9.56C12.1398,31.231,5.9753,41.1632,3.2515,51.5909 C1.8361,57.01,1.1517,62.28,0.4328,67.8301c-0.8463,6.5334-0.2514,13.798,0.1031,20.3902c0.3597,6.6891,1.9,12.9196,4.3648,19.1264 c2.332,5.8723,4.5643,11.8608,7.9602,17.2228c3.2657,5.1565,7.3023,12.429,11.4992,16.8257 c4.5282,4.7438,9.7647,10.1555,13.8913,15.2609c8.7034,10.7677,16.0365,18.8253,25.4215,29.0399 c4.3997,4.7886,9.0796,9.3055,13.7438,13.8333c4.718,4.5798,9.2893,9.2914,13.8563,14.0209 c4.0247,4.1678,8.0574,8.3936,12.5555,12.0601c1.7861,1.4559,3.6465,2.8441,5.6567,3.9775 c1.2466,0.7029,2.0771,0.2872,3.3536-0.1659c1.2458-0.4423,2.4841-0.9056,3.7141-1.39 c11.1819-4.4041,21.9023-10.4744,30.8301-18.581c9.0403-8.2088,15.4633-18.7485,23.3563-27.9703 c7.9734-9.3159,17.2258-17.5457,24.8531-27.1556c3.3292-4.1946,5.839-8.9257,8.1373-13.7477 c2.8842-6.0512,5.3462-12.3054,7.5094-18.648c2.1636-6.3438,3.6172-12.7869,4.5916-19.4155 c0.9593-6.5263,1.6581-13.0873,2.6053-19.6158c0.9323-6.426,1.9706-12.8854,2.2083-19.384 C220.7414,60.8535,220.6733,58.19,220.2785,55.554z M216.6067,74.5632c-0.8833,6.7317-1.9078,13.4408-2.7437,20.1794 c-0.8222,6.6281-1.7236,13.2712-3.4457,19.736c-1.7841,6.697-3.9936,13.3893-6.7371,19.7476 c-2.334,5.4093-4.873,10.961-8.2325,15.8238c-2.8589,4.1382-6.4122,7.8128-9.8498,11.4661 c-4.5753,4.8624-9.528,9.5564-14.0136,14.5026c-8.2968,9.1486-14.8556,19.7694-23.5095,28.5976 c-8.538,8.7098-19.4192,15.2231-30.6472,19.8491c-2.152,0.8867-4.2173,3.2009-6.5342,2.9814 c-4.2955-0.407-6.9951-5.5929-10.0971-8.5646c-4.2156-4.0386-8.2081-8.3052-12.2674-12.4988 c-8.4998-8.7813-17.702-16.8918-25.7109-26.1423c-8.3455-9.6392-15.4009-20.2916-23.5141-30.1135 c-3.8449-4.6546-8.0636-8.9767-12.2322-13.3376c-3.924-4.1049-8.2245-7.9525-11.3714-12.7036 c-3.2418-4.8945-3.8652-10.8516-6.0141-16.2855c-1.1412-2.8858-2.3251-5.7389-3.1288-8.7429 c-0.8065-3.0145-1.3183-6.0972-1.5727-9.2062C4.484,83.7329,3.5535,77.7569,4.2471,71.6696 c0.5947-5.2195,1.3734-10.4272,2.5231-15.5554c2.1705-9.6802,5.7617-19.4556,12.6879-26.782 c7.4694-7.901,17.9463-11.5774,28.671-11.814c10.7806-0.2379,21.7276,2.5806,31.1731,7.7526 c4.6993,2.5731,9.0452,5.7479,12.857,9.5168c4.046,4.0005,7.2037,8.7241,10.8619,13.0563c1.8473,2.1876,3.8538,4.2181,6.1045,5.9924 c0.1385,0.1092,0.2831,0.1818,0.429,0.2382c0.7336,0.3488,1.7092,0.1754,2.0286-0.7608c0.1143-0.1998,0.1804-0.417,0.1789-0.6387 c2.8442-11.2565,7.7452-22.2084,15.5693-30.8967c7.803-8.6649,19.1946-16.962,30.9073-18.8296 c5.9864-0.9545,12.181-0.254,18.0351,1.1558c6.1474,1.4804,11.8017,4.3956,17.2378,7.6719 c4.4459,2.6794,8.36,6.2322,11.2483,10.5613c3.3736,5.0565,5.4592,10.9553,7.3986,16.6757c1.108,3.2682,2.1354,6.5629,3.168,9.8554 c0.8344,2.6602,1.8143,5.2897,2.1339,8.0746C218.1304,62.779,217.3662,68.7749,216.6067,74.5632z M116.1398,108.2491 c0.1093,0.8035,1.1389,1.2418,1.8452,1.0477c0.8666-0.2382,1.1573-1.0392,1.0477-1.8452c-0.6391-4.6987-1.0279-9.4276-1.667-14.1266 c-0.1093-0.8035-1.1389-1.2418-1.8452-1.0477c-0.8667,0.2382-1.1573,1.0392-1.0477,1.8452 C115.1119,98.8211,115.5007,103.55,116.1398,108.2491z M82.1779,92.016c-0.0297,0.0156-0.0504,0.0421-0.0793,0.0586 c-0.2216,0.0753-0.4379,0.1641-0.638,0.2814c-1.1769,0.6905-1.8041,2.0234-2.0298,3.3237c-0.2261,1.3029-0.3958,2.9225,0.738,3.8828 c1.2587,1.066,3.0096,0.58,4.2996-0.1759c1.0986-0.6437,2.0027-1.655,2.3613-2.892c0.3811-1.3149-0.0041-2.722-0.9066-3.7292 C85.0004,91.7354,83.4191,91.3675,82.1779,92.016z M83.6823,96.1827c-0.007,0.0093-0.0121,0.0192-0.0197,0.0276 c-0.0032,0.0035-0.007,0.0063-0.0102,0.0099c0.0959-0.1668,0.1071-0.1641,0.0755-0.1059 C83.712,96.1369,83.6981,96.1602,83.6823,96.1827z M143.7351,85.237c-0.0804,0.0108-0.1577,0.0341-0.2369,0.05 c-0.2443-0.038-0.4943-0.0468-0.7425-0.0134c-0.8841,0.1188-1.6194,0.728-1.9947,1.5291c-0.5916,1.2627-0.5831,2.8173-0.2693,4.1578 c0.2996,1.2794,1.1213,2.5912,2.355,3.1466c1.2781,0.5753,2.6788,0.5141,3.9197-0.14c1.2236-0.645,1.9937-1.8668,2.175-3.2165 c0.1916-1.4261-0.3093-2.8188-1.2214-3.9088C146.768,85.7042,145.212,85.0386,143.7351,85.237z M140.5036,116.8467 c-3.4833-2.0541-8.0752-1.4913-11.0641,1.181c-0.5867,0.5246-0.5742,1.5942,0,2.1213c0.6263,0.575,1.4955,0.5595,2.1213,0 c0.0666-0.0596,0.1348-0.1172,0.2015-0.1767c0.0325-0.029,0.0374-0.0343,0.0493-0.0457c0.0062-0.0041,0.0017,0.0001,0.015-0.0096 c0.1442-0.1052,0.291-0.2063,0.442-0.3015c0.303-0.191,0.6215-0.3555,0.9478-0.5029c0.062-0.0203,0.3235-0.123,0.3876-0.1444 c0.0587-0.0196,0.1187-0.0347,0.1779-0.053c-0.1794,0.2991-0.247,0.6763-0.1173,1.1163c1.1606,3.9376,0.4836,8.3731-1.8945,11.744 c-2.2433,3.1796-6.1834,5.0374-10.0079,5.3057c-2.4603,0.1726-4.8701-0.2811-7.2504-0.8583 c-2.115-0.5129-4.2407-0.9809-6.3544-1.4962c-3.9413-0.9609-7.7515-3.6156-7.5186-8.1413c0.008-0.1559-0.0104-0.2946-0.0397-0.4252 c0.7247-0.1783,1.4582-0.3078,2.1946-0.3402c0.8096-0.0356,1.5-0.6639,1.5-1.5c0-0.7849-0.6868-1.5358-1.5-1.5 c-4.9084,0.2162-9.5114,2.8661-12.155,7.0093c-0.4359,0.6831-0.1417,1.6547,0.5381,2.0523 c0.7241,0.4235,1.6154,0.1467,2.0523-0.5381c1.0772-1.6882,2.6322-3.0688,4.4031-4.0345c0.1063,3.4807,2.2463,6.728,5.1742,8.5551 c1.6837,1.0506,3.6511,1.5668,5.5699,1.9874c2.0955,0.4594,4.1664,1.0074,6.258,1.4813c4.1069,0.9305,8.3082,1.1622,12.3024-0.3741 c3.4688-1.3343,6.4577-3.7053,8.2393-7.0027c2.0861-3.8611,2.6234-8.5079,1.3815-12.7217 c-0.0782-0.2654-0.2086-0.4706-0.3666-0.6319c0.1774,0.0078,0.3531,0.0281,0.5301,0.04c0.0011,0.0002,0.0005,0,0.0017,0.0002 c0.1102,0.0186,0.2199,0.0379,0.3293,0.0603c0.371,0.0759,0.7366,0.1786,1.092,0.3094c0.0612,0.0225,0.122,0.0467,0.1827,0.071 c0.0172,0.0085,0.0406,0.0201,0.0741,0.037c0.1996,0.101,0.396,0.2034,0.5889,0.3171c0.6764,0.3989,1.6749,0.1761,2.0522-0.5381 C141.4229,118.1777,141.2258,117.2726,140.5036,116.8467z" fill="inherit"/></g></svg>