<?xml version="1.0" encoding="UTF-8" standalone="no"?><svg xmlns="http://www.w3.org/2000/svg" xmlns:xlink="http://www.w3.org/1999/xlink" fill="#000000" height="251.5" preserveAspectRatio="xMidYMid meet" version="1" viewBox="-0.5 -0.2 263.7 251.5" width="263.7" zoomAndPan="magnify"><g id="change1_1"><path d="M259.825,81.1737c-2.1077,2.1231-4.4129,4.0526-6.7084,5.9669 c-6.0346,5.0323-12.0735,10.0473-18.0723,15.1228c-6.1731,5.2229-12.6955,9.8247-19.4188,14.3037 c-6.4709,4.3109-12.6621,8.9937-18.746,13.8333c-2.1275,1.6924-4.2483,3.4001-6.2831,5.2038 c-0.9593,0.8503-2.5353,1.9646-2.9151,3.2704c-0.193,0.6637,0.0565,1.4439,0.1669,2.1115c0.1685,1.0199,0.3419,2.0389,0.5126,3.0584 c0.4826,2.883,0.9486,5.7689,1.3828,8.6596c2.4464,16.2883,3.9875,32.7264,5.4736,49.1248 c0.8112,8.9516,1.4178,17.9004,1.584,26.8896c0.0695,3.758,0.0962,7.5333-0.1887,11.2838c-0.0966,1.2718-0.2239,2.5458-0.4996,3.793 c-0.0753,0.3406-0.1644,0.682-0.2691,1.0173c-0.9776-0.5866-2.0539-1.44-2.8849-2.1217c-2.0772-1.7039-4.0421-3.5453-5.9651-5.4199 c-4.7783-4.6579-9.3046-9.5478-13.4804-14.7531c-4.3696-5.4468-8.6244-10.9662-13.3562-16.1097 c-4.746-5.1588-9.7305-10.1222-13.9876-15.7069c-4.3892-5.758-8.1609-11.9628-12.641-17.6525 c-0.5826-0.74-2.0021-0.511-2.3934,0.3084c-2.8642,5.9971-5.5532,12.0763-8.9763,17.7863 c-3.9337,6.5619-8.9771,12.2542-14.1058,17.8942c-5.3402,5.8726-10.5108,11.8868-16.0688,17.5581 c-5.1039,5.208-10.2443,10.4288-15.6539,15.3209c-2.1371,1.9327-4.3195,3.8428-6.6616,5.5257 c-1.2834,0.9221-2.6769,1.9104-4.0925,2.3181c-0.0554,0.0159-0.1225,0.006-0.188-0.0035c-0.0816-0.1264-0.1813-0.1511-0.201-0.1808 c-0.1924-0.2895-0.3427-0.6107-0.4407-0.8534c-0.7705-1.9097-1.0006-4.0764-1.1597-6.1093 c-0.5216-6.6679-0.1321-13.7119,1.3033-20.2439c1.6166-7.3565,4.0957-14.4538,5.3993-21.8896 c1.536-8.7612,3.3841-17.4547,5.0196-26.195c1.3768-7.358,1.6499-15.0123,3.6307-22.2449c0.2012-0.7346-1.7206-3.0232-2.536-3.1618 c-10.0546-1.7095-18.7774-1.7078-28.7039-4.0812c-5.3146-1.2707-10.5293-2.9109-15.7875-4.3895 c-5.0777-1.4279-10.2347-2.5311-15.3631-3.7577c-4.119-0.9852-8.2751-1.9507-12.2881-3.3182 c-0.9885-0.3369-1.9809-0.6985-2.8933-1.2132c0.5604-0.3672,1.296-0.7699,1.9078-1.087c1.4801-0.7673,2.9977-1.4628,4.5158-2.1511 c4.4809-2.0316,9.0018-3.9735,13.4778-6.0163c9.4854-4.3291,18.1749-10.2486,27.8544-14.1633 c4.8855-1.9758,9.9056-3.5855,14.8478-5.4086c4.874-1.7979,9.5825-3.9709,14.2241-6.299c3.6532-1.8324,7.2762-3.7569,10.7459-5.9204 c1.724-1.075,3.782-2.204,4.9426-3.9312c1.5207-2.2632,4.1262-6.4865,5.1467-8.9932c1.8732-4.602,2.7021-7.6944,4.5055-12.3239 c1.8383-4.7192,3.2543-9.4159,5.2692-14.0604c2.1461-4.9471,4.0533-9.9654,5.7601-15.0805 c1.7202-5.1552,3.3738-10.3253,5.3775-15.38c2.0134-5.0792,4.0208-10.1632,6.1573-15.1921c0.5429-1.2782,1.1021-2.5494,1.6715-3.816 c3.4747,4.0277,6.7139,8.256,9.6846,12.6691c3.269,4.8559,5.8784,9.9198,8.1526,15.3083c2.3132,5.481,4.8934,10.8509,7.1204,16.3659 c2.2397,5.5464,4.1733,11.2321,6.6738,16.67c2.4851,5.4041,5.5935,10.5128,8.0013,15.9519c0.0337,0.3727,0.1962,0.753,0.4631,1.0491 c0.0117,0.0278,0.0249,0.055,0.0366,0.0828c0.5728,1.3652,15.9365-0.0851,22.4157-0.4137 c7.1608-0.3631,14.3033-1.0577,21.4675-1.4067c6.9769-0.3399,13.9156-0.8544,20.8804-1.3734 c6.3871-0.4761,12.7827-0.3909,19.1644,0.1525c2.4822,0.2114,4.964,0.4886,7.413,0.9522c0.8483,0.1606,1.6961,0.3394,2.5267,0.577 c0.0103,0.003,0.0203,0.0068,0.0306,0.0098c-0.0292,0.0455-0.0547,0.0925-0.0858,0.1374 C261.1752,79.809,260.4931,80.5006,259.825,81.1737z M259.825,81.1737c-2.1077,2.1231-4.4129,4.0526-6.7084,5.9669 c-6.0346,5.0323-12.0735,10.0473-18.0723,15.1228c-6.1731,5.2229-12.6955,9.8247-19.4188,14.3037 c-6.4709,4.3109-12.6621,8.9937-18.746,13.8333c-2.1275,1.6924-4.2483,3.4001-6.2831,5.2038 c-0.9593,0.8503-2.5353,1.9646-2.9151,3.2704c-0.193,0.6637,0.0565,1.4439,0.1669,2.1115c0.1685,1.0199,0.3419,2.0389,0.5126,3.0584 c0.4826,2.883,0.9486,5.7689,1.3828,8.6596c2.4464,16.2883,3.9875,32.7264,5.4736,49.1248 c0.8112,8.9516,1.4178,17.9004,1.584,26.8896c0.0695,3.758,0.0962,7.5333-0.1887,11.2838c-0.0966,1.2718-0.2239,2.5458-0.4996,3.793 c-0.0753,0.3406-0.1644,0.682-0.2691,1.0173c-0.9776-0.5866-2.0539-1.44-2.8849-2.1217c-2.0772-1.7039-4.0421-3.5453-5.9651-5.4199 c-4.7783-4.6579-9.3046-9.5478-13.4804-14.7531c-4.3696-5.4468-8.6244-10.9662-13.3562-16.1097 c-4.746-5.1588-9.7305-10.1222-13.9876-15.7069c-4.3892-5.758-8.1609-11.9628-12.641-17.6525 c-0.5826-0.74-2.0021-0.511-2.3934,0.3084c-2.8642,5.9971-5.5532,12.0763-8.9763,17.7863 c-3.9337,6.5619-8.9771,12.2542-14.1058,17.8942c-5.3402,5.8726-10.5108,11.8868-16.0688,17.5581 c-5.1039,5.208-10.2443,10.4288-15.6539,15.3209c-2.1371,1.9327-4.3195,3.8428-6.6616,5.5257 c-1.2834,0.9221-2.6769,1.9104-4.0925,2.3181c-0.0554,0.0159-0.1225,0.006-0.188-0.0035c-0.0816-0.1264-0.1813-0.1511-0.201-0.1808 c-0.1924-0.2895-0.3427-0.6107-0.4407-0.8534c-0.7705-1.9097-1.0006-4.0764-1.1597-6.1093 c-0.5216-6.6679-0.1321-13.7119,1.3033-20.2439c1.6166-7.3565,4.0957-14.4538,5.3993-21.8896 c1.536-8.7612,3.3841-17.4547,5.0196-26.195c1.3768-7.358,1.6499-15.0123,3.6307-22.2449c0.2012-0.7346-1.7206-3.0232-2.536-3.1618 c-10.0546-1.7095-18.7774-1.7078-28.7039-4.0812c-5.3146-1.2707-10.5293-2.9109-15.7875-4.3895 c-5.0777-1.4279-10.2347-2.5311-15.3631-3.7577c-4.119-0.9852-8.2751-1.9507-12.2881-3.3182 c-0.9885-0.3369-1.9809-0.6985-2.8933-1.2132c0.5604-0.3672,1.296-0.7699,1.9078-1.087c1.4801-0.7673,2.9977-1.4628,4.5158-2.1511 c4.4809-2.0316,9.0018-3.9735,13.4778-6.0163c9.4854-4.3291,18.1749-10.2486,27.8544-14.1633 c4.8855-1.9758,9.9056-3.5855,14.8478-5.4086c4.874-1.7979,9.5825-3.9709,14.2241-6.299c3.6532-1.8324,7.2762-3.7569,10.7459-5.9204 c1.724-1.075,3.782-2.204,4.9426-3.9312c1.5207-2.2632,4.1262-6.4865,5.1467-8.9932c1.8732-4.602,2.7021-7.6944,4.5055-12.3239 c1.8383-4.7192,3.2543-9.4159,5.2692-14.0604c2.1461-4.9471,4.0533-9.9654,5.7601-15.0805 c1.7202-5.1552,3.3738-10.3253,5.3775-15.38c2.0134-5.0792,4.0208-10.1632,6.1573-15.1921c0.5429-1.2782,1.1021-2.5494,1.6715-3.816 c3.4747,4.0277,6.7139,8.256,9.6846,12.6691c3.269,4.8559,5.8784,9.9198,8.1526,15.3083c2.3132,5.481,4.8934,10.8509,7.1204,16.3659 c2.2397,5.5464,4.1733,11.2321,6.6738,16.67c2.4851,5.4041,5.5935,10.5128,8.0013,15.9519c0.0337,0.3727,0.1962,0.753,0.4631,1.0491 c0.0117,0.0278,0.0249,0.055,0.0366,0.0828c0.5728,1.3652,15.9365-0.0851,22.4157-0.4137 c7.1608-0.3631,14.3033-1.0577,21.4675-1.4067c6.9769-0.3399,13.9156-0.8544,20.8804-1.3734 c6.3871-0.4761,12.7827-0.3909,19.1644,0.1525c2.4822,0.2114,4.964,0.4886,7.413,0.9522c0.8483,0.1606,1.6961,0.3394,2.5267,0.577 c0.0103,0.003,0.0203,0.0068,0.0306,0.0098c-0.0292,0.0455-0.0547,0.0925-0.0858,0.1374 C261.1752,79.809,260.4931,80.5006,259.825,81.1737z" fill="#ffd200"/></g><g id="change2_1"><path d="M126.6069,147.7692l10.5652-0.913c0,0,2.2826,10.8913-6.3261,10.8913 C122.2374,157.7475,126.6069,147.7692,126.6069,147.7692z M126.6069,147.7692l10.5652-0.913c0,0,2.2826,10.8913-6.3261,10.8913 C122.2374,157.7475,126.6069,147.7692,126.6069,147.7692z" fill="#ffd200"/></g><g id="change3_1"><path d="M262.4621,77.4754c-2.7496-1.5373-6.5254-1.7195-9.5702-2.0681c-6.1602-0.7053-12.4428-0.9776-18.6359-0.6492 c-6.9301,0.3674-13.8245,1.1316-20.7615,1.4236c-7.1955,0.303-14.377,0.806-21.5573,1.3552 c-7.4938,0.5731-15.0475-0.5343-22.8086-0.3982c-2.0281-4.4738-4.1732-7.4009-6.3501-11.8046 c-2.6979-5.4577-4.6955-11.2119-6.9354-16.8643c-2.1941-5.5367-4.7925-10.8906-7.0948-16.3812 c-2.2915-5.4647-4.7314-10.7269-7.9925-15.6905c-3.6839-5.6075-7.7831-10.9631-12.2548-15.9653 c-0.6046-0.6763-1.9563-0.5488-2.3559,0.3036c-2.0313,4.3331-3.8415,8.7704-5.6347,13.206 c-2.0651,5.1082-4.158,10.2112-5.9384,15.4272c-1.7773,5.2071-3.3824,10.4748-5.354,15.614 c-1.9269,5.023-4.2013,9.8993-6.3519,14.8278c-3.5314,8.0932-6.1373,16.6152-9.9744,24.5724 c-0.2334,0.4841-0.4723,0.968-0.745,1.4315c-0.0948,0.161-0.191,0.3215-0.2967,0.4755c-0.022,0.032-0.0298,0.0466-0.033,0.055 c-0.0205,0.019-0.048,0.0452-0.0885,0.0851c-0.6464,0.6376-1.2212,1.0208-2.02,1.5593c-3.0793,2.076-6.3669,3.8587-9.6569,5.5734 c-4.5911,2.3927-9.2695,4.6929-14.1055,6.5497c-4.8779,1.8727-9.8646,3.4473-14.7363,5.3372 c-9.762,3.787-18.4026,9.6354-27.8656,14.0192c-4.6217,2.1411-9.2972,4.1617-13.9451,6.2444 c-2.6843,1.2028-5.6382,2.3151-8.0234,4.0741c-1.8329,1.3517-1.8581,3.249,0.0676,4.5554c2.4114,1.6359,5.6539,2.3315,8.4184,3.0887 c4.7291,1.2954,9.5154,2.3818,14.2907,3.4908c5.2183,1.2119,10.347,2.6777,15.4924,4.1638 c10.4028,3.0046,21.0054,4.7643,31.678,6.5017c1.7191,0.2799,3.4374,0.5647,5.1552,0.8521 c-1.4261,6.0089-1.7933,12.2791-2.8323,18.3528c-1.387,8.1085-3.2197,16.146-4.6713,24.2462 c-0.6959,3.8831-1.3501,7.7558-2.3404,11.5781c-0.9776,3.7733-2.1361,7.4979-3.08,11.2801 c-1.738,6.9636-2.3534,14.3494-1.9875,21.5165c0.1194,2.3384,0.3383,4.7315,0.9567,6.9971c0.3905,1.4307,0.994,3.1827,2.3195,4.0221 c1.2511,0.7922,2.7224,0.3129,3.9565-0.2535c1.9488-0.8944,3.688-2.2578,5.3644-3.5735 c5.5074-4.3227,10.4294-9.3489,15.3885-14.2733c5.6587-5.619,11.0631-11.4127,16.3661-17.3659 c5.8535-6.5712,12.1295-12.8721,17.0206-20.2268c3.8868-5.8446,6.8145-12.1985,9.8033-18.5237 c3.4753,4.6455,6.5579,9.5829,10.0367,14.2269c4.1078,5.4836,9.0665,12.4525,13.7303,17.4561 c4.814,5.1649,8.955,8.6073,13.3484,14.1277c4.205,5.2838,8.709,10.2639,13.5192,15.0049c2.1637,2.1326,4.3768,4.2322,6.7391,6.1455 c1.5267,1.2365,3.1301,2.5369,5.0044,3.2021c0.4507,0.16,1.1553-0.001,1.4594-0.3857c1.1251-1.4236,1.4682-3.2328,1.7133-4.9919 c0.4003-2.8737,0.4907-5.7826,0.5166-8.6807c0.0703-7.8532-0.2859-15.7305-0.8963-23.5583 c-1.2921-16.5723-2.953-33.1519-5.1158-49.6341c-0.7913-6.0304-1.7419-12.0349-2.7487-18.0325 c-0.0743-0.4429-0.1488-0.8859-0.2216-1.3291c-0.0146-0.089-0.0306-0.1788-0.0439-0.2693c0.1867-0.2074,0.3802-0.4089,0.579-0.6045 c1.6351-1.6085,3.436-3.0598,5.2116-4.5078c5.7973-4.7275,11.735-9.342,17.9346-13.5311 c6.626-4.4774,13.2651-8.8418,19.4461-13.9346c6.0931-5.0204,12.0488-10.201,18.1525-15.2106 c2.5218-2.0697,5.0472-4.1472,7.4361-6.3707c1.451-1.3506,3.0565-2.8116,4.0385-4.5608c0.3524-0.6279,0.5961-1.2832,0.6237-2.0077 C263.2246,78.256,262.9075,77.7245,262.4621,77.4754z M2.7838,131.5973c-0.0021,0.0114,0.0037,0.0302,0.006,0.0457 C2.6962,131.5832,2.7836,131.5982,2.7838,131.5973z M2.7228,132.5402c0.0067-0.0054,0.0247-0.0212,0.0342-0.0292 c-0.0018,0.0097-0.0072,0.0191-0.0085,0.0289C2.7503,132.5263,2.7375,132.531,2.7228,132.5402z M66.4872,247.9352 c-0.0041-0.0123-0.0099-0.018-0.0144-0.0291c0.0283,0.0142,0.0468,0.0281,0.0458,0.0388 C66.5338,247.7824,66.5696,248.182,66.4872,247.9352z M257.8116,81.878c-2.0746,2.0897-4.3436,3.989-6.6031,5.8732 c-5.9398,4.9533-11.884,9.8896-17.7886,14.8854c-6.0762,5.1409-12.4962,9.6704-19.1139,14.0792 c-6.3693,4.2432-12.4633,8.8525-18.4517,13.6161c-2.0941,1.6658-4.1816,3.3467-6.1844,5.1221 c-0.9442,0.837-2.4955,1.9338-2.8693,3.2191c-0.1899,0.6533,0.0557,1.4213,0.1642,2.0784c0.1658,1.0038,0.3365,2.0069,0.5045,3.0104 c0.475,2.8378,0.9337,5.6783,1.3611,8.5236c2.408,16.0325,3.9249,32.2126,5.3876,48.3536 c0.7985,8.8111,1.3956,17.6193,1.5591,26.4674c0.0684,3.699,0.0947,7.415-0.1857,11.1066 c-0.0951,1.2518-0.2204,2.5058-0.4918,3.7334c-0.0741,0.3352-0.1618,0.6713-0.2649,1.0013 c-0.9622-0.5774-2.0217-1.4174-2.8397-2.0884c-2.0446-1.6772-3.9786-3.4897-5.8715-5.3348 c-4.7033-4.5847-9.1585-9.3979-13.2688-14.5215c-4.301-5.3613-8.489-10.794-13.1465-15.8568 c-4.6715-5.0778-9.5777-9.9633-13.768-15.4603c-4.3203-5.6676-8.0328-11.775-12.4425-17.3754 c-0.5735-0.7284-1.9706-0.5029-2.3558,0.3035c-2.8193,5.9029-5.466,11.8867-8.8354,17.507 c-3.8719,6.4589-8.8362,12.0618-13.8843,17.6132c-5.2563,5.7804-10.3458,11.7001-15.8165,17.2825 c-5.0238,5.1262-10.0835,10.2651-15.4081,15.0803c-2.1036,1.9023-4.2516,3.7825-6.557,5.4389 c-1.2632,0.9077-2.6348,1.8804-4.0283,2.2817c-0.0545,0.0157-0.1205,0.0059-0.185-0.0034 c-0.0803-0.1245-0.1784-0.1487-0.1978-0.1779c-0.1894-0.2849-0.3373-0.6011-0.4338-0.84c-0.7584-1.8797-0.9849-4.0124-1.1415-6.0134 c-0.5134-6.5632-0.13-13.4966,1.2828-19.926c1.5912-7.241,4.0314-14.2269,5.3145-21.546c1.5118-8.6237,3.331-17.1807,4.9408-25.7838 c1.3552-7.2425,1.624-14.7766,3.5737-21.8957c0.198-0.7231-1.6936-2.9757-2.4962-3.1122 c-9.8968-1.6827-18.4826-1.681-28.2532-4.0172c-5.2312-1.2508-10.364-2.8652-15.5396-4.3206 c-4.998-1.4055-10.074-2.4913-15.1219-3.6987c-4.0543-0.9697-8.1452-1.9201-12.0952-3.2661 c-0.973-0.3316-1.9498-0.6876-2.8478-1.1942c0.5516-0.3614,1.2756-0.7578,1.8779-1.0699c1.4569-0.7552,2.9507-1.4398,4.4449-2.1173 c4.4105-1.9997,8.8605-3.9111,13.2662-5.9218c9.3365-4.2612,17.8895-10.0877,27.4171-13.941 c4.8088-1.9448,9.7501-3.5292,14.6147-5.3237c4.7975-1.7697,9.432-3.9086,14.0008-6.2001c3.5959-1.8036,7.162-3.6979,10.5772-5.8275 c1.6969-1.0581,3.7226-2.1694,4.865-3.8695c1.4968-2.2277,4.0615-6.3846,5.0658-8.852c1.8438-4.5297,2.6597-7.5736,4.4348-12.1304 c1.8094-4.6451,3.2032-9.2681,5.1865-13.8397c2.1124-4.8694,3.9896-9.809,5.6697-14.8438 c1.6932-5.0743,3.3209-10.1631,5.293-15.1385c1.9818-4.9995,3.9577-10.0036,6.0607-14.9536 c0.5344-1.2581,1.0848-2.5094,1.6453-3.756c3.4202,3.9644,6.6085,8.1264,9.5326,12.4702c3.2177,4.7797,5.7861,9.764,8.0247,15.0679 c2.2769,5.395,4.8165,10.6805,7.0086,16.1089c2.2046,5.4594,4.1078,11.0558,6.569,16.4083 c2.446,5.3192,5.5057,10.3477,7.8757,15.7014c0.0331,0.3669,0.1931,0.7412,0.4558,1.0327c0.0115,0.0274,0.0245,0.0541,0.036,0.0815 c0.5638,1.3438,15.6863-0.0837,22.0638-0.4072c7.0484-0.3574,14.0787-1.0411,21.1304-1.3846 c6.8673-0.3346,13.6971-0.8409,20.5526-1.3519c6.2869-0.4686,12.582-0.3848,18.8635,0.1501 c2.4432,0.2081,4.886,0.4809,7.2966,0.9373c0.835,0.1581,1.6695,0.3341,2.487,0.5679c0.0101,0.0029,0.02,0.0067,0.0302,0.0096 c-0.0287,0.0448-0.0538,0.0911-0.0844,0.1353C259.1406,80.5347,258.4692,81.2155,257.8116,81.878z M166.1493,122.0326 c-0.7646-0.4472-0.6443-0.0894-1.1293,0.5627c-1.6541,2.2236-5.6884,3.2028-8.3399,2.4844 c-2.7383-0.7419-5.4236-2.7815-5.8775-5.5496c-0.1312-0.8-0.441-1.5628-1.1626-1.3646c-0.8497,0.2335-1.1792,1.0428-1.0477,1.8452 c0.4791,2.9214,2.421,5.5297,4.9872,7.0022c-0.2103,3.9862-3.0397,8.3329-5.5161,11.2346c-2.6141,3.063-5.6427,5.3397-9.4565,6.7826 c-7.0455,2.6656-15.4864,0.7299-20.9225-4.5652c-2.632-2.5637-4.1343-5.7655-5.0943-9.289c1.5391-1.8167,2.3599-4.159,1.9573-6.7552 c-0.1243-0.8012-1.1285-1.2446-1.8452-1.0477c-0.8551,0.235-0.6981,0.7673-0.5735,1.5709c0.2416,1.5577,0.0591,2.9794-2.1522,5.2167 c-0.8607,0.7103-2.3514,1.9639-3.3587,2.2663c-2.1884,0.6571-6.2965,0.2998-7.7058-2.0627 c-0.9882-1.6566-2.7106-0.7587-1.7181,0.905c2.2101,3.7049,6.8476,4.322,10.4802,3.1435c0.8574-0.2781,1.6709-0.6573,2.423-1.1174 c2.295,6.833,7.7689,12.4846,14.7264,14.6032c-0.4713,2.0322-0.8115,4.0991-0.4351,6.1811 c0.3495,1.9334,1.8047,3.4477,3.5555,4.3526c3.659,1.8913,8.0366-0.7323,9.8391-4.3078c1.044-2.0709,1.5797-4.3958,1.4384-6.7163 c3.9583-1.4706,7.3232-4.0029,10.1467-7.1545c3.0847-3.4431,6.9126-7.3613,7.578-12.071c3.8881,0.7797,7.3858-0.9313,9.7413-4.0978 C167.1713,123.4345,166.7939,122.4097,166.1493,122.0326z M126.8352,154.0953c-0.431-1.6916,0.1304-4.1413,0.9051-5.5322 c0.8388,0.1314,1.6835,0.225,2.5331,0.2606c-0.6143,2.2139-1.1854,7.2867-1.0455,7.514 C128.4795,156.3376,127.1074,155.1638,126.8352,154.0953z M133.0635,156.0518c-0.3479,0.3043-0.8804,0.4891-1.3239,0.3451 c-0.1366-0.4429,0-1.1603,0.8389-4.4368c0.2751-1.0745,0.5173-2.1561,0.841-3.2167c0.948-0.09,1.8878-0.2479,2.8157-0.4528 C136.9113,151.3562,135.1858,154.195,133.0635,156.0518z M120.225,121.6626c0.7085,0.7515,2.3433,0.4732,2.5071-0.6619 c0.0741-0.5134,0.1263-1.0251,0.1579-1.5356c0.0402-0.0519,0.0803-0.1039,0.1204-0.1558c0.1357-0.234,0.2039-0.4863,0.2048-0.7571 c-0.0179-0.1329-0.0357-0.2659-0.0536-0.3988c-0.0414-0.1475-0.1079-0.2803-0.1879-0.4053 c0.0322-0.9714,0.0028-1.9442-0.1124-2.9109c-0.1823-1.5297-0.3507-3.6764-2.1229-4.2111 c-1.0515-0.3173-2.0497,0.3204-2.4532,1.2767c-0.2465,0.584-0.4022,1.1965-0.491,1.8235c-0.1929,1.3608-0.1412,2.7288,0.2327,4.0585 C118.435,119.2365,119.1916,120.5664,120.225,121.6626z M147.1514,117.8669c0.6199-0.0833,1.0369-0.5004,1.2471-1.0745 c0.6593-1.8006,0.8518-3.7686,0.6175-5.6779c0.0059-0.0448,0.027-0.082,0.0297-0.1282c0.0437-0.7618-0.1679-1.4979-0.5248-2.1592 c-0.008-0.0249-0.0132-0.0508-0.0214-0.0756c-0.1039-0.316-0.3121-0.5939-0.5743-0.7952c-0.04-0.046-0.0709-0.0994-0.1125-0.1439 c-0.6152-0.6561-1.9514-0.5663-2.3559,0.3036c-1.3438,2.8899-1.2886,6.2063,0.2002,9.0348 C145.9348,117.6789,146.5862,117.9428,147.1514,117.8669z M133.1761,125.8739c0.087,0.0869,0.1736,0.1741,0.2606,0.2611 c0.1359,0.1463,0.2968,0.2496,0.4827,0.3101c0.1788,0.0939,0.3714,0.137,0.5779,0.1292c0.2065,0.0078,0.3992-0.0353,0.5779-0.1292 c0.186-0.0605,0.3469-0.1638,0.4828-0.3101c0.0782-0.1012,0.1564-0.2024,0.2345-0.3036c0.1357-0.2339,0.204-0.4863,0.2048-0.7571 c-0.0179-0.1329-0.0357-0.2658-0.0536-0.3987c-0.0713-0.2541-0.1998-0.4747-0.3857-0.6619c-0.087-0.087-0.1737-0.1741-0.2606-0.2611 c-0.1359-0.1463-0.2968-0.2496-0.4827-0.3102c-0.1788-0.0939-0.3715-0.137-0.5779-0.1292 c-0.2065-0.0078-0.3992,0.0353-0.5779,0.1292c-0.186,0.0605-0.3469,0.1639-0.4827,0.3102 c-0.0782,0.1012-0.1564,0.2024-0.2346,0.3036c-0.1357,0.2339-0.2039,0.4863-0.2048,0.7571 c0.0179,0.1329,0.0357,0.2658,0.0536,0.3987C132.8616,125.4661,132.9902,125.6867,133.1761,125.8739z" fill="inherit"/></g></svg>