<?xml version="1.0" encoding="UTF-8" standalone="no"?><svg xmlns="http://www.w3.org/2000/svg" xmlns:xlink="http://www.w3.org/1999/xlink" fill="#000000" height="189.2" preserveAspectRatio="xMidYMid meet" version="1" viewBox="-0.2 -2.6 180.5 189.2" width="180.5" zoomAndPan="magnify"><g id="change1_1"><path d="M111.2038,167.6377l-46.9565-6.2609l-43.8261,18.3913c0,0-12.1304-0.587-17.8043-1.7609 c-2.7391-23.4783,3.4552-62.0868,10.1739-84.9419S51.5299-2.5797,97.8994,2.3116s66.7174,57.3261,66.7174,57.3261 s12.0949,40.9436,13.8913,72.9783c1.7964,32.0347-2.1522,48.5922-2.1522,48.5922l-18.3261,0.9836L111.2038,167.6377z M111.2038,167.6377l-46.9565-6.2609l-43.8261,18.3913c0,0-12.1304-0.587-17.8043-1.7609 c-2.7391-23.4783,3.4552-62.0868,10.1739-84.9419S51.5299-2.5797,97.8994,2.3116s66.7174,57.3261,66.7174,57.3261 s12.0949,40.9436,13.8913,72.9783c1.7964,32.0347-2.1522,48.5922-2.1522,48.5922l-18.3261,0.9836L111.2038,167.6377z" fill="#ff7134"/></g><g id="change2_1"><path d="M41.9314,180.2896c0,0-16.8145,0.0655-21.5102-0.5215c-3.3261-10.1739,5.4783-56.913,5.4783-56.913 s1.9565-10.7826,3.913-16.4565C46.2473,55.9203,69.1386,29.116,93.0081,26.9638s51.8478,21.913,60.6522,63 c8.8044,41.087,4.3696,92.228,4.3696,92.228L41.9314,180.2896z M41.9314,180.2896c0,0-16.8145,0.0655-21.5102-0.5215 c-3.3261-10.1739,5.4783-56.913,5.4783-56.913s1.9565-10.7826,3.913-16.4565C46.2473,55.9203,69.1386,29.116,93.0081,26.9638 s51.8478,21.913,60.6522,63c8.8044,41.087,4.3696,92.228,4.3696,92.228L41.9314,180.2896z" fill="#ffd200"/></g><g id="change3_1"><path d="M62.7391,182.1837l-22.1658-0.9756c0,0-1.1739-23.1574,9-62.4835s26.6087-66.7174,48.7174-67.5 s40.1087,40.3044,39.7174,78.6522c-0.3913,38.3478-1.3602,52.4299-1.3602,52.4299l-21.1398,0.9832L62.7391,182.1837z M62.7391,182.1837l-22.1658-0.9756c0,0-1.1739-23.1574,9-62.4835s26.6087-66.7174,48.7174-67.5s40.1087,40.3044,39.7174,78.6522 c-0.3913,38.3478-1.3602,52.4299-1.3602,52.4299l-21.1398,0.9832L62.7391,182.1837z" fill="#31ad54"/></g><g id="change4_1"><path d="M64.4429,142.0073c3.4854-15.4604,15.8478-64.9565,33.6522-63.7826s20.7391,60.2609,20.1522,72.9783 c-0.587,12.7174-2.7391,32.087-2.7391,32.087s-25.8261-0.9783-30.1304-1.0981c-4.3044-0.1199-24.0652,0-24.0652,0 S60.9575,157.4676,64.4429,142.0073z M64.4429,142.0073c3.4854-15.4604,15.8478-64.9565,33.6522-63.7826 s20.7391,60.2609,20.1522,72.9783c-0.587,12.7174-2.7391,32.087-2.7391,32.087s-25.8261-0.9783-30.1304-1.0981 c-4.3044-0.1199-24.0652,0-24.0652,0S60.9575,157.4676,64.4429,142.0073z" fill="#346bc8"/></g><g id="change5_1"><path d="M180.0652,138.102c0.0255-3.7969,0.0148-7.5944-0.1026-11.3903c-0.574-18.5523-4.0842-28.7456-4.6875-32.3488 c-1.2101-7.2268-2.7135-14.5186-4.8148-21.5424c-1.0087-3.3718-2.1637-6.7056-3.2251-10.062 c-1.0285-3.2523-2.1293-6.4922-3.6024-9.5745c-1.554-3.2515-3.4495-6.3696-5.343-9.4321c-1.9019-3.076-3.8719-6.1217-6.0504-9.0106 c-4.1961-5.5646-8.7976-10.8743-14.2174-15.2779c-5.3295-4.3301-10.8177-8.2995-17.0132-11.3064 c-6.0671-2.9446-12.4425-6.5977-19.2899-7.1176c-3.627-0.2754-8.6508-1.4644-12.2197-0.8802 c-3.4717,0.5683-7.6013,1.8304-11.0346,2.6087C71.6523,4.3124,67.817,8.5065,62.2988,12.724 c-5.5838,4.2676-10.7294,8.9592-15.4521,14.1649c-4.7776,5.2664-8.9197,11.0294-12.832,16.9575 c-1.9597,2.9694-3.8417,5.9909-5.6041,9.0818c-1.7328,3.0392-3.2764,6.178-5.0566,9.1906 c-1.7412,2.9466-3.5704,5.8506-5.0509,8.9416c-1.5152,3.1635-2.6466,6.5112-3.718,9.8459 c-1.1014,3.4283-2.1436,6.8818-3.1486,10.3396c-1.0013,3.4449-1.5647,6.9915-2.1559,10.5238 c-1.2096,7.2269-3.4248,14.1885-4.8629,21.3613c-1.4651,7.3071-2.5469,14.8807-3.109,22.3128 c-0.2858,3.7793-0.2398,7.5721-0.304,11.3588c-0.0632,3.7251-0.3267,7.4429-0.4197,11.1676 c-0.0767,3.0698-0.1013,6.1404-0.1263,9.211c-0.649,0.564-0.6094,1.781,0.1209,2.373c0.4067,0.8685,1.6364,1.0211,2.3455,0.4592 c5.1841,0.4363,10.3505,1.0679,15.5428,1.4094c0.0644,0.0042,0.1285,0.0122,0.1929,0.0166 c0.2625,1.3948,2.3297,1.4745,2.8503,0.2449c4.6902,0.4413,9.3594,1.1044,14.0637,1.3873 c5.7997,0.3489,11.6158,0.185,17.4207,0.3701c5.7302,0.1827,11.4493-0.1025,17.179-0.033 c5.7205,0.0694,11.4405,0.2849,17.1609,0.3824c5.7537,0.0981,11.4216,0.9344,17.1602,1.2156 c5.7857,0.2834,11.6307,0.2545,17.4238,0.2816c4.4647,0.0209,8.8961-0.3079,13.3386-0.5951 c-0.0876,1.9214,2.9034,1.914,2.9996-0.0078c0.0029-0.0568,0.0063-0.1135,0.0092-0.1703c0.355-0.0198,0.709-0.0452,1.0643-0.063 c6.3724-0.3205,12.7614-0.0669,19.1382-0.211c6.2254-0.1407,12.3328-1.3878,18.5434-1.6825c0.8277-0.0393,1.4758-0.6559,1.5-1.5 c0.0953-3.3226,0.5759-6.6075,1.0034-9.899c0.4701-3.6192,0.7533-7.2162,0.7688-10.8671 C180.3159,152.8948,180.0155,145.5017,180.0652,138.102z M91.7494,180.9159c-5.7042-0.3264-11.4492-0.2543-17.1613-0.4009 c-3.9412-0.1011-7.8752-0.0384-11.8113,0.0031c-0.1963-7.3057,0.4061-14.6758,1.0846-21.9399 c0.7255-7.766,1.9361-15.5204,3.4088-23.1792c1.4023-7.2924,3.8542-14.1439,6.4136-21.0916 c2.5739-6.9869,4.6768-14.1819,8.3972-20.6777c1.6576-2.8942,3.5513-5.6753,5.8464-8.1043 c1.7982-1.9031,3.9337-3.7858,6.4562-4.6431c6.1395-2.0867,10.8789,3.4602,13.3521,8.3796 c3.0099,5.9869,4.5551,12.8722,5.9382,19.39c1.5701,7.3989,1.9908,14.9083,2.6558,22.4222c0.3892,4.3981,0.731,8.7953,0.658,13.2144 c-0.0704,4.2577-0.2206,8.5142-0.4254,12.7674c-0.2053,4.2645-0.4622,8.5154-0.9549,12.7577 c-0.4464,3.843-1.0033,7.675-1.2766,11.5361c-0.0243,0.343,0.0541,0.6216,0.1948,0.8421c-1.8722-0.0415-3.7441-0.0823-5.6151-0.1022 C103.1497,182.028,97.4908,181.2444,91.7494,180.9159z M116.9745,182.2439c0.196-0.2276,0.33-0.5246,0.3562-0.8943 c0.252-3.5596,0.7463-7.0943,1.1702-10.6359c0.4672-3.9032,0.7599-7.8077,0.9647-11.7327 c0.4258-8.1638,0.8007-16.3438,0.1541-24.504c-0.623-7.8626-1.0768-15.79-2.4585-23.5646 c-1.2591-7.0851-2.3308-15.6248-5.1748-22.253c-2.3753-5.5359-5.9805-11.5167-12.4565-12.3261 c-6.1354-0.7668-12.4569,5.2141-15.9459,9.6714c-4.6604,5.9539-7.5842,12.8394-10.0923,19.9133 c-2.6055,7.3485-5.6733,14.6305-7.6606,22.1777c-1.1364,4.3154-1.8898,8.7213-2.604,13.1224 c-0.7262,4.4754-1.4526,8.9472-1.9629,13.4536c-0.9656,8.5269-1.7278,17.2664-1.4861,25.8644 c-0.8712,0.004-1.7421,0.0119-2.6139,0.007c-5.072-0.0283-10.1577-0.1301-15.2328-0.2535 c0.2383-4.8763,0.7471-9.7328,1.2288-14.5901c0.5037-5.0791,1.0375-10.1393,1.7731-15.1915 c0.7444-5.1135,1.5234-10.2082,2.6428-15.2552c1.0795-4.8675,2.3416-9.6938,3.2486-14.5983 c0.8878-4.7999,1.6035-9.6552,3.0929-14.3176c1.4714-4.6061,3.5869-8.9618,5.6614-13.3177 c4.0992-8.6071,7.6116-17.5977,13.6929-25.063c5.4853-6.7335,12.4583-13.9133,21.5249-15.0305 c8.6879-1.0705,16.2377,3.8232,21.6639,10.176c6.1733,7.2277,10.23,16.2276,13.3564,25.1282 c3.2988,9.3917,5.1166,19.0603,6.023,28.9572c0.466,5.0886,0.7971,10.1844,0.8074,15.2958 c0.0102,5.0898-0.1423,10.1779-0.114,15.2681c0.0286,5.1365,0.1376,10.2755-0.015,15.4111 c-0.1477,4.9719-0.5197,9.9354-0.8565,14.897c-0.0828,1.2195-0.1489,2.4401-0.2235,3.6601 c-3.1141,0.2165-6.2269,0.4554-9.3489,0.5397C123.0528,182.3411,120.0136,182.3045,116.9745,182.2439z M143.5,181.3255 c-1.6931,0.0233-3.3831,0.1016-5.0717,0.2009c0.512-9.057,1.2161-18.0732,1.1573-27.1627 c-0.0685-10.592,0.4296-21.2423-0.3146-31.8141c-0.7302-10.3721-2.0375-20.6767-5.091-30.6457 c-2.8661-9.3571-6.7373-18.8703-12.4443-26.8759c-5.0985-7.1521-12.007-13.6395-21.0285-14.9687 c-9.2168-1.358-17.3326,3.1169-23.7201,9.4097c-3.4352,3.3843-6.6362,7.0367-9.3209,11.05 c-2.7647,4.133-4.9583,8.6151-7.0408,13.1202c-4.1699,9.0206-9.755,18.2488-11.8346,28.042 c-1.058,4.9823-2.1736,8.8291-3.3261,13.7935c-1.169,5.0353-1.982,10.9421-2.837,16.0435 c-1.7809,10.6269-2.2779,21.3022-3.2319,32.0309c-0.1971,2.2167-0.3513,4.4365-0.4605,6.659 c-5.7941-0.2081-11.5126-1.0162-17.2803-1.5356c0.0099-5.3686-0.2013-10.728,0.1827-16.0945 c0.4412-6.1653,0.8167-12.4349,1.8795-18.5297c1.0414-5.9717,2.7942-11.783,3.5641-17.8068 c0.7751-6.064,1.2238-11.9993,3.1628-17.8435c0.9381-2.8275,2.0395-5.5964,3.0772-8.3879c1.063-2.8595,1.9794-5.7678,3.1125-8.6016 c2.2083-5.5222,4.7346-10.9324,7.1208-16.3799c2.3634-5.3954,5.0334-10.5518,8.386-15.4048 c3.2679-4.7305,6.9062-9.2238,10.5461-13.6713c3.5307-4.314,7.3302-8.4671,12.1024-11.4297 c4.5812-2.844,9.7159-4.611,14.9997-5.6033c6.0219-1.1309,12.0671-0.3049,17.8262,1.6505 c5.2188,1.772,10.4092,4.0394,14.7366,7.5153c4.3781,3.5165,7.8987,7.9952,11.1163,12.5599c3.358,4.7637,6.5844,9.65,9.3811,14.7673 c5.7473,10.5164,8.9999,22.3568,10.9277,34.1339c2.0097,12.2778,3.0536,24.627,3.2627,37.0644 c0.104,6.1888,0.1727,12.3734,0.3177,18.5618c0.1384,5.9049-0.1509,11.7823-0.4901,17.6758 c-0.1579,2.7424-0.312,5.485-0.4063,8.2305c-0.0026,0.0759,0.0073,0.1435,0.0139,0.2134 C152.1509,181.3555,147.8222,181.2659,143.5,181.3255z M176.4581,171.6005c-0.3516,2.6784-0.7108,5.3552-0.8698,8.0512 c-4.9932,0.3602-9.9303,1.2969-14.9354,1.5223c-0.4029,0.0181-0.8063,0.0202-1.2093,0.0342 c0.0048-0.0438,0.0157-0.0835,0.0173-0.1295c0.2061-5.9958,0.6876-11.9783,0.8884-17.9745c0.2068-6.1755-0.2-12.3459-0.2462-18.5205 c-0.0958-12.8094-0.5225-25.5488-2.2922-38.2529c-1.704-12.2324-4.1728-24.3981-9.099-35.788 c-2.4238-5.6041-5.5786-10.8709-8.9371-15.9579c-3.2283-4.8899-6.5693-9.7877-10.5447-14.1088 c-3.8973-4.2361-8.4678-7.5782-13.6964-9.9871c-5.321-2.4515-11.0032-4.4007-16.8611-4.9525 C87.4624,24.4804,75.3661,29.008,67.174,36.615c-4.1668,3.8693-7.6055,8.4459-11.1382,12.8787 c-3.7634,4.7221-7.4322,9.5605-10.406,14.8289c-2.9865,5.2908-5.1935,10.9771-7.6575,16.5182 c-1.2516,2.8146-2.5234,5.6205-3.7007,8.4674c-1.1982,2.8974-2.1694,5.8627-3.239,8.8069 c-2.0874,5.7463-4.4951,11.3705-5.4714,17.4449c-0.4946,3.0771-0.754,6.1842-1.1106,9.2786 c-0.3679,3.1923-0.9767,6.3265-1.6912,9.458c-0.6792,2.9769-1.4114,5.9444-1.9351,8.954c-0.5472,3.1451-0.8499,6.3363-1.1622,9.5117 c-0.6224,6.3302-1.1449,12.6663-1.0854,19.0311c0.0206,2.2036,0.0522,4.4068,0.0583,6.6102 c-5.0535-0.4429-10.1044-0.9402-15.1602-1.3518c0.0986-6.5913,0.3893-13.1692,0.5208-19.7587 c0.0755-3.7849,0.0195-7.5749,0.2776-11.354c0.248-3.6313,0.7551-7.2562,1.2595-10.8594c0.5211-3.7228,1.0385-7.4645,1.7776-11.1512 c0.6917-3.4496,1.6158-6.8461,2.4943-10.2512c0.8898-3.4485,1.6588-6.9033,2.252-10.4156 c0.5838-3.4565,1.1075-6.9335,2.0214-10.3228c0.895-3.3195,1.9464-6.6127,2.9744-9.8934c1.0633-3.3935,2.1443-6.8395,3.65-10.0674 c1.3862-2.9717,3.1107-5.7667,4.787-8.5796c1.7853-2.9959,3.3456-6.1043,5.0519-9.1437 c6.7238-11.9773,14.8276-23.3836,24.8447-32.8316c4.8954-4.6172,10.3207-9.0766,16.2531-12.2953 c6.0662-3.2914,12.8653-4.1187,19.5724-5.2212c3.6177-0.5947,7.3024-1.1994,10.9782-0.8267 c3.3367,0.3383,6.5198,1.6114,9.5403,3.0045c6.0953,2.8113,12.2529,5.5923,17.7255,9.5259 c5.5385,3.981,10.6561,8.3409,15.1406,13.4854c4.6729,5.3607,8.6998,11.1137,12.3467,17.2148 c1.7432,2.9163,3.5042,5.8752,4.8323,9.0087c1.3519,3.1893,2.3425,6.521,3.3766,9.8223c1.0211,3.2598,2.1721,6.4752,3.0703,9.7726 c0.9258,3.3989,1.6823,6.8411,2.4156,10.2857c1.5099,7.0922,2.5181,14.2029,3.4629,21.3867 c0.4699,3.5723,1.2585,7.0873,1.9042,10.6294c0.6332,3.4733,0.931,6.9196,1.0183,10.4471 c0.1798,7.2658-0.0518,14.5345,0.1101,21.8016C177.2915,157.5629,177.3842,164.5456,176.4581,171.6005z" fill="inherit"/></g></svg>