<?xml version="1.0" encoding="UTF-8" standalone="no"?><svg xmlns="http://www.w3.org/2000/svg" xmlns:xlink="http://www.w3.org/1999/xlink" fill="#000000" height="306" preserveAspectRatio="xMidYMid meet" version="1" viewBox="-0.7 -0.6 231.6 306.0" width="231.6" zoomAndPan="magnify"><g id="change1_1"><path d="M164.3337,54.3658c4.3812-15.2069-4.2683-34.4801-11.682-43.0244 c40.2963,3.0191,47.5625,50.72,47.5625,50.72S183.174,59.8758,164.3337,54.3658z M164.3337,54.3658 c4.3812-15.2069-4.2683-34.4801-11.682-43.0244c40.2963,3.0191,47.5625,50.72,47.5625,50.72S183.174,59.8758,164.3337,54.3658z M80.7902,54.3658c0,0-21.1956,3.1304-39,21.5217s-28.5124,48.959-26.5513,72.1765s9.6464,49.6902,31.2469,66.3453 s30.9191,23.2121,56.5435,26.0303s49.1235,2.1872,63.9783-8.6173c14.8548-10.8045,29.2908-14.1717,46.6345-43.6728 s14.9313-61.6402,9.5177-77.0446c-5.4136-15.4044-20.1043-38.5995-36-47.7391S80.7902,54.3658,80.7902,54.3658z" fill="#346bc8"/></g><g id="change2_1"><path d="M94.3554,48.3286c0,0-20.8696-1.1367-25.8261-2.4587c24.5217-46.1916,58.3151-38.591,58.3151-38.591 C95.4203,27.6267,94.3554,48.3286,94.3554,48.3286z M94.3554,48.3286c0,0-20.8696-1.1367-25.8261-2.4587 c24.5217-46.1916,58.3151-38.591,58.3151-38.591C95.4203,27.6267,94.3554,48.3286,94.3554,48.3286z" fill="#fff1e1"/></g><g id="change3_1"><path d="M132.4424,50.9745c0,0-16.4348-1.8261-37.9565-3.0373c3.2609-28.3416,33.7826-41.1244,33.7826-41.1244 l11.7391,2.3684L132.4424,50.9745z M132.4424,50.9745c0,0-16.4348-1.8261-37.9565-3.0373 c3.2609-28.3416,33.7826-41.1244,33.7826-41.1244l11.7391,2.3684L132.4424,50.9745z M99.966,240.0742 c0,0,2.672,43.7917,2.4764,45.3569c-0.1956,1.5652,0.1256,1.775-5.6739,3.3261c-5.4082,1.2748-13.322,8.6754-10.1739,11.2559 c3.1481,2.5805,27.8003-8.3211,27.8003-8.3211l-2.0574-49.8283l-13.2211-2.0195L99.966,240.0742z M141.089,240.4397 c0,0-1.7172,41.4675-2.0597,45.9696c-0.3425,4.5021,1.9565,5.8696,8.8044,9c6.8478,3.1305,16.0435,10.0166,19.1739,4.2257 c3.1304-5.7909-6.6386-9.117-13.4932-10.6822c-2.3546-2.7391-3.253-2.7111-3.3329-12.3261s3.3329-39.7174,3.3329-39.7174 L141.089,240.4397z" fill="#ffd200"/></g><g id="change4_1"><path d="M155.2684,149.4001c-9.1957,6.2082-24.4565,15.3136-49.3044,7.4875 c-24.8478-7.8261-15.4565-29.3478-13.1353-34.3773c2.7125,9.0575,6.2875,18.1382,33.7282,19.7034 c24.3283,1.3877,30.0858-19.37,31.0788-24.0965c0.127-0.6047,0.1761-0.947,0.1761-0.947 C169.1597,128.7137,164.4641,143.1919,155.2684,149.4001z M151.7467,10.7901l-11.7391-2.4625l-7.4093,41.7857l31.7354,4.2525 C164.3337,54.3658,169.7467,33.4753,151.7467,10.7901z" fill="#ff7134"/></g><g id="change5_1"><path d="M158.7747,115.6948c-0.0969-0.0839-0.1971-0.1506-0.2988-0.2058c-0.8351-0.7491-2.55-0.3965-2.5524,1.0657 c-0.0188,11.7728-10.0638,21.0743-20.7468,24.213c-0.3228,0.0948-0.648,0.1844-0.977,0.2552 c-0.1167,0.0251-0.2341,0.0461-0.351,0.0698c-0.0029,0.0006-0.0031,0.0008-0.0059,0.0013 c-0.0071,0.0003-0.0079-0.0001-0.0162,0.0003c-1.099,0.0539-2.1985,0.0955-3.2986,0.1215c-2.7613,0.065-5.5261,0.0343-8.2832-0.1363 c-5.8275-0.3606-11.9099-1.2814-17.1892-3.9041c-2.7277-1.355-5.2935-3.1973-7.0731-5.7055 c-2.0213-2.8488-2.8994-6.2042-2.9846-9.6675c-0.0242-0.9837-0.8174-1.4641-1.5823-1.4444 c-0.7142-0.723-2.2059-0.7052-2.5726,0.5758c-1.416,4.9454-2.9774,9.982-3.0589,15.1711c-0.0732,4.6639,1.314,9.0858,4.1349,12.8042 c5.7552,7.586,14.9313,11.1369,24.1171,12.3051c10.0609,1.2795,20.7125,0.377,30.1035-3.6002 c7.8223-3.3129,15.293-9.0218,18.3703-17.1953C167.601,132.2088,165.5094,121.526,158.7747,115.6948z M162.2928,137.4555 c-1.9051,7.6479-8.4886,13.1396-15.2905,16.4874c-8.3129,4.0917-17.8253,5.2179-26.9871,4.6456 c-8.5449-0.5337-17.3658-2.8659-23.5948-9.0632c-3.2924-3.2755-5.4278-7.3862-5.621-12.0769 c-0.1597-3.8759,0.6821-7.6817,1.7101-11.4177c1.1036,5.0265,3.9742,9.3306,8.4932,12.2877 c5.4327,3.5548,12.0966,4.9089,18.4622,5.5388c2.9871,0.2956,5.9913,0.4042,8.9922,0.3887c2.1359-0.011,4.4399,0.1216,6.5402-0.3302 c4.6973-1.0106,9.295-3.7194,13.0427-6.6284c5.6318-4.3716,9.6357-10.3929,10.6343-17.3619 C162.5273,124.7079,163.764,131.5495,162.2928,137.4555z M225.6019,114.2013c-4.8239-16.0204-14.21-30.7051-26.0187-42.4862 c-2.5181-2.5122-5.1762-4.8783-7.9617-7.0895c2.4496-0.1829,4.9012-0.3311,7.3565-0.4176c0.3305,0.1039,0.6633,0.198,0.9934,0.3036 c1.0317,0.33,1.778-0.5367,1.8987-1.4464c1.6254-12.2472-6.1813-23.1682-12.3523-32.5907 c-3.0338-4.6323-8.0305-8.4689-12.2193-12.1669c-4.2646-3.7649-9.5653-5.8177-15.071-6.9888 c-3.2327-0.6876-6.5076-1.1136-9.7818-1.5449c-0.4829-0.4998-0.9637-1.002-1.4667-1.4815 c-0.1107-0.1055-0.2269-0.1823-0.3446-0.2466c-0.0073-0.1254-0.0262-0.2552-0.07-0.3932c-1.1862-3.7384-4.4641-6.603-8.2919-7.4203 c-3.9208-0.8372-9.0757,0.5429-10.209,4.8892c-0.0508,0.1951-0.0576,0.3753-0.0414,0.5452 c-0.1837-0.0319-0.3673-0.0654-0.5515-0.0947c-0.4225-0.5228-1.1514-0.8408-1.926-0.511c-0.157,0.0668-0.3105,0.1429-0.467,0.2111 c-0.8267-0.0732-1.6588-0.1143-2.498-0.1121c-11.9517,0.0317-24.0253,3.3226-33.8829,10.19 c-10.8736,7.5753-19.561,18.4452-25.2592,30.3582c-8.3199,0.3506-16.6342,0.9668-24.9532,1.2589 c-13.8784,0.4873-27.8245,1.6328-41.4457,4.4263c-1.6968,0.348-1.1356,2.3429,0.3987,2.9464 c10.2225,4.0208,23.1289,2.04,34.7398,2.5129c3.3312,0.1357,6.6429,0.1758,9.9587,0.5674c3.353,0.396,6.6778,0.9983,10.0119,1.523 c1.7623,0.2773,3.5303,0.5359,5.3033,0.7472c-5.4087,2.8702-10.6929,5.9733-15.4473,9.8574 c-6.5485,5.3498-11.4957,12.3112-15.826,19.5059c-4.5598,7.5757-8.643,15.3229-11.3483,23.7691 c-2.7552,8.6021-4.3707,17.6608-4.9917,26.6674c-0.6229,9.0345-0.5923,17.8285,1.7891,26.5511 c2.2634,8.2907,5.5038,16.3229,9.488,23.9338c3.8234,7.3038,8.2445,14.6339,13.9301,20.6502 c5.5637,5.8872,13.1993,10.7046,19.9758,15.0928c6.8364,4.427,13.945,8.1609,21.5908,11c5.7006,2.1168,11.5056,3.5995,17.4325,4.646 c1.1888,10.1599,2.0276,20.3577,2.5846,30.5715c0.1486,2.7241,0.2789,5.4492,0.3929,8.1749 c0.0552,1.321,0.1068,2.6423,0.1547,3.9636c0.0226,0.6222,0.09,1.2714,0.0128,1.8912c-0.0297,0.238-0.0692,0.4639-0.1754,0.6816 c-0.0106,0.0218-0.0135,0.0361-0.0172,0.0512c-0.0302-0.0078-0.0698-0.0138-0.134-0.0139 c-4.5581-0.0032-8.7265,2.501-12.1453,5.3441c-1.6202,1.3472-3.2921,2.874-3.9141,4.9606 c-0.5778,1.9381,0.1886,4.0834,1.9922,5.0812c1.844,1.0202,4.009,0.4625,5.8527-0.2394c2.574-0.98,5.1491-1.9523,7.7388-2.891 c2.5892-0.9385,5.1815-1.8688,7.757-2.8445c1.0736-0.4067,2.139-0.8323,3.2226-1.2117c0.9416-0.3297,1.9103-0.68,2.6594-1.3643 c1.7158-1.5676,1.1508-3.7412,1.0441-5.7814c-0.1414-2.7039-0.0963-5.4306-0.1335-8.1379 c-0.167-12.1381-0.2891-24.2826-1.0443-36.4014c6.1122,0.3664,12.2504,0.3413,18.3462-0.1948 c2.4893-0.2189,4.9716-0.5254,7.443-0.9026c-0.6174,10.1-0.9449,20.2169-1.1836,30.332c-0.0657,2.7855-0.1246,5.5713-0.1799,8.3571 c-0.0522,2.6276-0.3036,5.347-0.1002,7.9685c0.1874,2.4156,1.2862,4.4561,3.5261,5.5192c2.5519,1.2112,5.2343,2.1758,7.8077,3.3511 c2.6607,1.2151,5.3074,2.4617,7.9977,3.6108c2.1434,0.9155,4.3339,2.0045,6.7321,1.7766c2.0681-0.1965,4.1662-1.3898,4.5952-3.5713 c0.4625-2.3514-1.36-4.5284-2.9634-6.0042c-1.7916-1.649-3.8439-3.0067-6.0716-3.9893c-1.0209-0.4503-2.0661-0.8402-3.139-1.1472 c-0.9579-0.2742-2.3024-0.2011-2.8718-1.053c-0.2701-0.4041-0.5362-0.796-0.8693-1.1533c-0.2615-0.2805-0.8222-0.6024-0.9809-0.9657 c-0.1581-0.362-0.0196-0.9532-0.0031-1.3647c0.0291-0.7226,0.0612-1.4451,0.0962-2.1675c0.1328-2.7424,0.306-5.4828,0.5084-8.221 c0.8648-11.7033,2.2403-23.3619,3.6814-35.0066c0.9263-0.2964,1.8491-0.6024,2.7556-0.9449 c8.3204-3.1443,15.7077-8.2397,23.1361-13.0323c6.7958-4.3844,13.3152-8.9774,18.7137-15.0694 c5.16-5.8229,10.3267-11.0916,14.3883-17.6937c4.467-7.2614,6.7796-16.3533,9.0116-24.606 c2.3582-8.7192,3.8574-17.7009,4.3892-26.7196C229.1789,131.458,228.1586,122.6924,225.6019,114.2013z M156.668,13.3608 c5.3066,0.8065,10.7484,1.9301,15.3839,4.7664c4.5561,2.7877,7.7756,7.1564,10.6904,11.5319 c1.6462,2.4712,3.2208,4.9915,4.9447,7.4102c1.871,2.6249,3.8486,5.1635,5.5954,7.8768c3.1173,4.8423,5.8391,10.301,5.7279,16.1313 c-11.8124-3.6701-23.9176-6.3588-36.1267-8.3188c-9.803-1.5738-19.6364-3.0986-29.5165-4.1385 c2.6384-12.5684,5.2889-25.1411,7.2844-37.83c3.4037,0.8185,6.8607,1.3164,10.3243,1.7811 c9.4567,10.2128,14.4257,24.352,12.7502,38.2621c-0.2303,1.9127,2.7717,1.896,3,0c1.6174-13.4286-2.8079-27.1846-11.2629-37.6473 C155.8648,13.2437,156.2668,13.2998,156.668,13.3608z M129.5662,8.3276c0.5229,0.0529,1.0463,0.1021,1.5663,0.1887 c2.2361,0.3721,4.4268,0.9552,6.6171,1.5349c-2.0213,12.8392-4.7124,25.5598-7.3814,38.2775 c-2.4733-0.2343-4.9486-0.4465-7.4283-0.6072c-9.0302-0.5853-18.0632-1.2343-27.1032-1.7009 c1.0871-7.0475,5.3694-13.4526,9.7672-18.8845c4.3195-5.3351,9.39-10.0869,15.1058-13.8984 C123.5244,11.3604,126.4905,9.7309,129.5662,8.3276z M90.8546,20.4801c8.9382-7.283,19.9836-11.3748,31.4575-12.1644 c0.2576-0.0178,0.5164-0.0273,0.7744-0.0428C112.3453,14.3612,103.1918,23.5413,97.1,34.201 c-2.0844,3.6473-3.6028,7.524-4.2406,11.6689c-3.2733-0.153-6.5475-0.2786-9.8231-0.3631 c-4.0609-0.1048-8.1187-0.0479-12.175,0.0818C75.7286,35.9756,82.4914,27.2947,90.8546,20.4801z M111.8451,272.8781 c0.0359,2.5724,0.0684,5.1449,0.1046,7.7173c0.0358,2.5424-0.0753,5.144,0.1588,7.6763c0.0715,0.773,0.3622,1.7668,0.1566,2.5338 c-0.2276,0.8489-1.2928,1.0406-2.026,1.2972c-2.3478,0.8217-4.6567,1.767-6.9946,2.619c-2.3594,0.8599-4.7242,1.7049-7.0793,2.5762 c-2.0594,0.762-4.2324,1.9459-6.4141,2.2859c-0.7311,0.114-1.597,0.0916-2.0007-0.6429c-0.444-0.8078,0.1537-1.7818,0.6387-2.4329 c1.215-1.6313,3.0972-2.981,4.7832-4.0847c1.8228-1.1932,3.7981-2.1581,5.9334-2.6355c0.8839-0.1976,1.7673,0.0062,2.6455-0.191 c0.963-0.2164,1.6364-0.892,2.0243-1.7801c0.8746-2.0023,0.3719-4.6052,0.2866-6.7153c-0.1035-2.5605-0.2211-5.1205-0.3544-7.6797 c-0.5494-10.5432-1.3939-21.0705-2.6085-31.5581c1.3542,0.204,2.7126,0.3948,4.0802,0.5584 c1.8929,0.2264,3.7924,0.4101,5.6948,0.5647C111.5006,252.9384,111.7062,262.9093,111.8451,272.8781z M150.1016,267.0117 c-0.4575,5.145-0.8358,10.2982-1.0693,15.4585c-0.0468,1.0342-0.2719,2.2658-0.0252,3.2804c0.2487,1.023,1.0351,1.633,1.7221,2.3561 c0.5549,0.5841,0.8681,1.3604,1.4822,1.8984c0.85,0.7447,2.0692,0.7621,3.1176,1.0343c2.1697,0.5633,4.223,1.4462,6.0988,2.6779 c1.5148,0.9948,4.1794,2.7831,4.4898,4.7426c0.342,2.1585-3.3587,1.5573-4.4276,1.1752c-2.5264-0.9031-4.9707-2.0919-7.4066-3.2102 c-2.4426-1.1214-4.8792-2.2567-7.353-3.3082c-2.084-0.8858-5.0298-1.3712-5.4677-3.9791c-0.387-2.3051-0.0128-4.9091,0.0328-7.2385 c0.0498-2.5469,0.1022-5.0938,0.1597-7.6406c0.2458-10.8901,0.5798-21.7831,1.2557-32.6561c1.0344-0.1853,2.067-0.3806,3.0958-0.593 c2.4485-0.5054,4.9108-1.064,7.343-1.7217C152.0117,248.5152,150.9251,257.7503,150.1016,267.0117z M224.145,153.5794 c-1.4235,8.4362-3.412,17.0101-7.1463,24.7478c-3.3815,7.0068-7.8314,13.4001-11.8263,20.0554 c-3.8867,6.4749-8.9389,12.0566-14.8422,16.7554c-3.1989,2.5463-6.6528,4.7037-10.0813,6.9195 c-3.6406,2.3528-7.2582,4.7454-10.9882,6.9559c-3.6616,2.17-7.4444,4.2014-11.4467,5.6731 c-0.5123,0.1884-1.0372,0.3478-1.556,0.5216c-0.6854-0.7782-2.4063-0.4898-2.6955,0.8435 c-2.8219,0.8124-5.6968,1.4752-8.5535,2.0649c-0.7819,0.1614-1.5664,0.3045-2.3508,0.4485 c-0.5845-0.9717-2.3992-0.8148-2.7594,0.4683c-6.9019,1.0864-13.8826,1.5281-20.8811,1.3779 c-6.0698-0.1303-12.2161-0.5964-18.258-1.5417c-0.0116-0.0939-0.0203-0.1882-0.032-0.2822 c-0.2238-1.8073-2.9691-1.9041-3.0056-0.2383c-1.5321-0.2847-3.0585-0.591-4.5695-0.9459 c-7.8707-1.8486-15.55-4.7133-22.7355-8.4146c-6.8176-3.5117-13.3839-7.8616-19.4327-12.5691 c-3.0644-2.3848-5.9988-4.9519-8.6768-7.7665c-2.7521-2.8927-5.0753-6.0834-7.2634-9.4159 c-4.559-6.9435-8.4721-14.3401-11.5342-22.0645c-3.0743-7.7549-5.6118-16.0319-6.5032-24.3527 c-0.9583-8.9453-0.0422-18.0297,1.6089-26.8387c1.5791-8.4252,4.1328-16.7166,7.9669-24.3972 c1.9109-3.8279,4.0899-7.546,6.3008-11.2073c2.1615-3.5795,4.4534-7.1038,7.0684-10.3717 c5.1218-6.4011,11.4656-11.2258,18.5483-15.2786c2.8236-1.6156,5.7086-3.1195,8.605-4.5999 c2.9335,0.0804,5.8605-0.1147,8.7783-0.4335c6.5551-0.7162,13.0195-1.7729,19.6296-1.136 c6.4236,0.6189,12.7782,1.7925,19.1529,2.7689c6.6648,1.0209,13.3237,1.5657,20.0353,2.142 c6.8051,0.5844,13.5914,1.3704,20.3989,1.9272c7.7094,0.6306,15.3652,0.7936,23.0872,0.2884 c3.3715-0.2206,6.7385-0.5184,10.1067-0.7952c-0.1182,0.4283-0.0062,0.8979,0.4783,1.2745 c12.5889,9.782,22.868,22.9009,29.5696,37.3528c3.4943,7.5355,6.0399,15.6552,7.0182,23.9195 C226.3878,136.1147,225.5941,144.9916,224.145,153.5794z M104.2985,113.4925c2.0306-0.4847,3.8123-2.2307,4.5629-4.1387 c0.4474-1.1376,0.3936-2.3149-0.0406-3.3492c-0.0707-0.4966-0.2379-0.975-0.4845-1.4177c0.0424-0.7621-0.2608-1.5262-0.8163-2.1092 c-0.8085-0.8485-1.9716-1.0952-3.0931-0.881c-1.9318,0.3689-3.623,2.2017-4.546,3.8527c-0.9786,1.7507-1.225,3.7579-0.3979,5.6108 C100.3218,112.9391,102.2783,113.9748,104.2985,113.4925z M139.5811,110.4508c0.0931,0.1776,0.1976,0.35,0.3293,0.5089 c0.536,0.6467,1.2036,0.881,1.91,0.8605c1.0089,0.2849,2.0975,0.2318,3.0898-0.2833c1.7908-0.9294,2.4346-2.9485,2.6412-4.817 c0.215-1.9442,0.1533-4.5759-1.9546-5.4654c-0.247-0.1042-0.4911-0.168-0.7326-0.2073c-0.0339-0.1118-0.0785-0.2214-0.1449-0.3243 c-0.4319-0.6699-1.3376-0.9785-2.0523-0.5381c-1.7834,1.0988-3.3667,2.574-4.1655,4.5443 c-0.7979,1.9678-0.3922,4.1115,1.0303,5.6752C139.5472,110.421,139.5656,110.4342,139.5811,110.4508z M142.1572,108.4903 c-0.0004-0.0187,0.0012-0.0375,0.0009-0.0563c0.0463-0.0061,0.0917-0.0049,0.1384-0.014c0.1667-0.0328,0.3331-0.077,0.4975-0.1284 c-0.0851,0.0536-0.1673,0.1115-0.2532,0.1639c-0.1233,0.0753-0.2466,0.1508-0.373,0.2208 C142.1649,108.6143,142.1585,108.5524,142.1572,108.4903z M144.4513,104.0595c0.0137,0.0245,0.0262,0.0478,0.0408,0.071 c0.0007,0.0018,0.0014,0.0035,0.0021,0.0052C144.465,104.0889,144.4517,104.0649,144.4513,104.0595z M144.2717,104.0368 c-0.0025,0.0023-0.0275,0.0101-0.0734,0.0237c0.002-0.0008,0.0036-0.0017,0.0055-0.0025 C144.2265,104.0506,144.2492,104.044,144.2717,104.0368z M125.4843,123.255c0.8583-0.2359,1.1681-1.0409,1.0477-1.8452 c-0.548-3.66-0.532-7.3936-0.2815-11.0781c0.0551-0.8092-0.7288-1.5-1.5-1.5c-0.8577,0-1.4448,0.6884-1.5,1.5 c-0.2701,3.9717-0.2014,7.9346,0.3886,11.8757C123.7592,123.0093,124.7705,123.4512,125.4843,123.255z M199.5278,126.768 c-0.1439-1.8319-0.1382-3.8488-0.6675-5.6241c-1.0123-3.3953-4.6991-3.8867-7.2285-1.7125 c-2.7634,2.3753-2.2877,7.0079-2.3177,10.2631c-0.0464,5.03,0.1743,10.0574,0.5967,15.069c0.161,1.9097,2.2908,1.578,2.1283-0.3489 c-0.3879-4.6009,0.2648-8.8659,0.2685-13.4837c0.0018-2.141-0.0751-4.3635,0.1837-6.4926c0.1508-1.2405,0.921-3.7776,2.7318-3.3793 c1.283,0.2823,1.1259,3.5687,1.2047,4.4899c0.1945,2.2752,0.344,4.554,0.4578,6.8346c0.2319,4.6444,1.3988,9.2074,1.4143,13.8571 c0.0064,1.9301,1.9207,2.0209,1.9143,0.087c-0.0145-4.3234-0.0854-8.6471-0.282-12.9664 C199.8321,131.1617,199.7002,128.9633,199.5278,126.768z M74.5825,178.0343c0.4349,4.4327-0.1763,9.0435-0.4788,13.4894 c-0.0721,1.0604-0.6342,10.5574-2.9714,8.7697c-1.3213-1.0106-2.1357-3.0978-2.6315-4.6252 c-0.5789-1.7838-0.8796-3.6414-0.9944-5.51c-0.2678-4.3596-0.2066-8.8407-0.5543-13.2c-0.1525-1.9116-2.449-1.7956-2.2952,0.1324 c0.332,4.1622-0.357,8.3096-0.1807,12.4722c0.1457,3.4385,0.7859,6.9395,2.4402,9.9917c0.7845,1.4474,1.838,3.0547,3.4014,3.7321 c1.4415,0.6246,2.986,0.2267,4.0753-0.8749c2.4101-2.4374,2.3806-6.761,2.6395-9.9371c0.3879-4.7589,0.2819-9.541-0.1841-14.29 C76.6616,176.2808,74.3937,176.1111,74.5825,178.0343z" fill="inherit"/></g></svg>